<svg width="900" height="900" viewBox="0 0 900 900" fill="none" xmlns="http://www.w3.org/2000/svg">
<rect width="900" height="300" fill="#C67F2A"/>
<rect y="300" width="900" height="300" fill="#E2963E"/>
<rect y="600" width="900" height="300" fill="#FB9F4C"/>
<path d="M122.791 222.318V117.625L102 125.614V93.4489L132.871 77.6818H160.593V222.318H122.791Z" fill="black"/>
<path d="M233.221 222.318V109.847H208.23V77.6818H296.224V109.847H271.233V222.318H233.221Z" fill="black"/>
<path d="M360.617 222.318V166.398H343.816V222.318H306.014V77.6818H343.816V132.761H360.617V77.6818H398.418V222.318H360.617Z" fill="black"/>
<path d="M415.121 222.318V77.6818H452.922V222.318H415.121Z" fill="black"/>
<path d="M529.947 222.318L506.636 157.148H505.586V222.318H469.674V77.6818H506.006L526.167 133.813H527.427V77.6818H563.338V222.318H529.947Z" fill="black"/>
<path d="M625.578 165.136V135.494H668V219.375C662.68 220.777 656.169 221.898 648.469 222.739C640.909 223.58 633.838 224 627.258 224C613.538 224 603.247 221.968 596.387 217.903C589.526 213.699 584.766 206.481 582.106 196.25C579.446 185.879 578.116 170.462 578.116 150C578.116 129.538 579.516 114.191 582.316 103.96C585.116 93.589 590.086 86.3712 597.227 82.3068C604.507 78.1023 615.358 76 629.778 76C635.239 76 641.539 76.4205 648.679 77.2614C655.819 78.1023 662.12 79.1534 667.58 80.4148V109.216C654.139 107.814 645.039 107.114 640.279 107.114C631.598 107.114 625.718 107.814 622.638 109.216C619.698 110.477 617.738 113.841 616.758 119.307C615.778 124.773 615.288 135.004 615.288 150C615.288 164.015 615.568 173.896 616.128 179.642C616.688 185.388 617.808 189.242 619.488 191.205C621.308 193.027 624.388 193.938 628.728 193.938L634.608 193.727V165.136H625.578Z" fill="black"/>
<path d="M172.201 522.318L168.838 497.722H142.565L139.202 522.318H102L128.483 377.682H183.761L210.244 522.318H172.201ZM156.437 411.108H154.966L147.189 467.659H164.214L156.437 411.108Z" fill="white"/>
<path d="M264.178 465.136V435.494H306.635V519.375C301.31 520.777 294.794 521.898 287.088 522.739C279.521 523.58 272.445 524 265.859 524C252.127 524 241.828 521.968 234.962 517.903C228.096 513.699 223.332 506.481 220.67 496.25C218.007 485.879 216.676 470.462 216.676 450C216.676 429.538 218.078 414.191 220.88 403.96C223.682 393.589 228.657 386.371 235.803 382.307C243.089 378.102 253.949 376 268.381 376C273.846 376 280.152 376.42 287.298 377.261C294.444 378.102 300.75 379.153 306.214 380.415V409.216C292.763 407.814 283.655 407.114 278.891 407.114C270.203 407.114 264.318 407.814 261.235 409.216C258.293 410.477 256.331 413.841 255.35 419.307C254.369 424.773 253.879 435.004 253.879 450C253.879 464.015 254.159 473.896 254.719 479.642C255.28 485.388 256.401 489.242 258.082 491.205C259.904 493.027 262.987 493.938 267.33 493.938L273.216 493.727V465.136H264.178Z" fill="white"/>
<path d="M384.642 522.318L381.279 497.722H355.006L351.643 522.318H314.441L340.924 377.682H396.202L422.685 522.318H384.642ZM368.878 411.108H367.407L359.63 467.659H376.655L368.878 411.108Z" fill="white"/>
<path d="M431.219 522.318V377.682H469.052V522.318H431.219Z" fill="white"/>
<path d="M546.14 522.318L522.81 457.148H521.759V522.318H485.818V377.682H522.179L542.357 433.813H543.618V377.682H579.559V522.318H546.14Z" fill="white"/>
<path d="M635.335 524C628.889 524 621.953 523.58 614.527 522.739C607.1 522.038 600.795 521.127 595.61 520.006V491.415C608.642 492.396 618.24 492.886 624.405 492.886C628.749 492.886 631.902 492.746 633.864 492.466C635.825 492.186 637.227 491.555 638.067 490.574C638.908 489.733 639.468 488.542 639.749 487C640.029 485.458 640.169 483.286 640.169 480.483C640.169 476.278 639.889 473.335 639.328 471.653C638.768 469.831 637.647 468.5 635.965 467.659C634.284 466.818 631.271 466.047 626.928 465.347L609.062 461.983C603.177 460.862 598.973 456.867 596.451 450C594.069 442.992 592.878 433.182 592.878 420.568C592.878 408.235 594.7 398.845 598.343 392.398C602.126 385.811 607.17 381.466 613.476 379.364C619.922 377.121 627.979 376 637.647 376C644.933 376 651.659 376.42 657.825 377.261C663.99 378.102 668.824 378.943 672.327 379.784V408.585C663.92 407.604 655.302 407.114 646.475 407.114C642.411 407.114 639.398 407.254 637.437 407.534C635.615 407.674 634.214 408.165 633.233 409.006C632.252 409.847 631.552 411.038 631.131 412.58C630.851 414.121 630.711 416.364 630.711 419.307C630.711 422.67 630.851 425.123 631.131 426.665C631.552 428.206 632.322 429.328 633.443 430.028C634.564 430.729 636.456 431.36 639.118 431.92L654.462 434.864C659.226 435.845 663.219 437.386 666.442 439.489C669.805 441.591 672.537 445.305 674.639 450.631C676.881 456.797 678.002 465.066 678.002 475.438C678.002 489.593 676.181 500.174 672.537 507.182C669.034 514.189 664.34 518.744 658.455 520.847C652.57 522.949 644.863 524 635.335 524Z" fill="white"/>
<path d="M708.945 522.318V409.847H683.933V377.682H772V409.847H746.988V522.318H708.945Z" fill="white"/>
<path d="M157.601 822.318L146.271 774.807H139.767V822.318H102V677.682H155.083C165.714 677.682 173.756 679.434 179.212 682.938C184.667 686.301 188.304 691.417 190.122 698.284C192.08 705.011 193.059 714.331 193.059 726.244C193.059 737.036 192.22 745.795 190.542 752.523C188.863 759.11 185.506 764.295 180.471 768.08L196.416 822.318H157.601ZM139.767 744.955H145.432C148.509 744.955 150.677 744.674 151.936 744.114C153.195 743.413 154.034 741.871 154.454 739.489C154.873 737.106 155.083 732.831 155.083 726.665C155.083 720.498 154.873 716.294 154.454 714.051C154.174 711.669 153.404 710.197 152.146 709.636C150.887 708.936 148.649 708.585 145.432 708.585H139.767V744.955Z" fill="black"/>
<path d="M269.007 822.318L265.65 797.722H239.423L236.066 822.318H198.929L225.366 677.682H280.547L306.984 822.318H269.007ZM253.271 711.108H251.802L244.039 767.659H261.034L253.271 711.108Z" fill="black"/>
<path d="M386.42 820.216C383.202 821.337 379.076 822.248 374.04 822.949C369.005 823.65 364.249 824 359.773 824C346.065 824 335.924 821.758 329.35 817.273C322.916 812.648 318.65 805.36 316.551 795.409C314.453 785.318 313.404 770.182 313.404 750C313.404 729.958 314.453 714.892 316.551 704.801C318.789 694.71 323.126 687.422 329.56 682.938C336.134 678.313 346.205 676 359.773 676C364.669 676 369.564 676.35 374.46 677.051C379.496 677.752 383.342 678.593 386 679.574V708.375C377.188 707.534 371.033 707.114 367.536 707.114C361.801 707.114 357.885 707.955 355.787 709.636C353.828 711.318 352.57 714.752 352.01 719.938C351.59 724.983 351.381 735.004 351.381 750C351.381 764.996 351.59 775.087 352.01 780.273C352.57 785.458 353.828 788.892 355.787 790.574C357.885 792.116 361.801 792.886 367.536 792.886C374.95 792.886 381.244 792.466 386.42 791.625V820.216Z" fill="black"/>
<path d="M400.125 822.318V677.682H437.891V822.318H400.125Z" fill="black"/>
<path d="M493.443 824C487.009 824 480.085 823.58 472.671 822.739C465.258 822.038 458.963 821.127 453.788 820.006V791.415C466.796 792.396 476.378 792.886 482.532 792.886C486.869 792.886 490.016 792.746 491.974 792.466C493.932 792.186 495.331 791.555 496.17 790.574C497.01 789.733 497.569 788.542 497.849 787C498.129 785.458 498.269 783.286 498.269 780.483C498.269 776.278 497.989 773.335 497.429 771.653C496.87 769.831 495.751 768.5 494.072 767.659C492.394 766.818 489.386 766.047 485.05 765.347L467.216 761.983C461.341 760.862 457.145 756.867 454.627 750C452.249 742.992 451.06 733.182 451.06 720.568C451.06 708.235 452.879 698.845 456.516 692.398C460.292 685.811 465.328 681.466 471.622 679.364C478.056 677.121 486.099 676 495.751 676C503.024 676 509.738 676.42 515.893 677.261C522.047 678.102 526.873 678.943 530.37 679.784V708.585C521.978 707.604 513.375 707.114 504.563 707.114C500.507 707.114 497.499 707.254 495.541 707.534C493.723 707.674 492.324 708.165 491.345 709.006C490.366 709.847 489.666 711.038 489.247 712.58C488.967 714.121 488.827 716.364 488.827 719.307C488.827 722.67 488.967 725.123 489.247 726.665C489.666 728.206 490.435 729.328 491.555 730.028C492.674 730.729 494.562 731.36 497.219 731.92L512.536 734.864C517.292 735.845 521.278 737.386 524.495 739.489C527.852 741.591 530.58 745.305 532.678 750.631C534.916 756.797 536.035 765.066 536.035 775.438C536.035 789.593 534.217 800.174 530.58 807.182C527.083 814.189 522.397 818.744 516.522 820.847C510.648 822.949 502.954 824 493.443 824Z" fill="black"/>
<path d="M647.702 822.318V724.142H645.814L631.966 822.318H599.865L586.227 724.142H584.128V822.318H548.88V677.682H604.69L616.02 765.557H617.699L628.819 677.682H684V822.318H647.702Z" fill="black"/>
</svg>
