<svg width="71" height="63" viewBox="0 0 71 63" fill="none" xmlns="http://www.w3.org/2000/svg">
<g opacity="0.4">
<path opacity="0.2" d="M4.11487 29.935C4.08235 33.2481 5.38428 36.4328 7.73423 38.7885C10.0842 41.1441 13.2897 42.4778 16.6455 42.4961L29.2988 42.5652L29.5439 17.5811L16.8907 17.512C13.5349 17.4937 10.3035 18.7922 7.9076 21.122C5.51167 23.4518 4.14738 26.6219 4.11487 29.935Z" fill="#18181A"/>
<path d="M1.46416 29.9696C1.50739 25.9962 3.14525 22.1954 6.01834 19.4013C8.89142 16.6071 12.765 15.0478 16.7892 15.0656L29.3741 15.1342C30.2948 15.0861 46.3404 14.0588 61.7341 1.49696C62.4775 0.889493 63.3801 0.503385 64.3359 0.38399C65.2918 0.264594 66.2611 0.416869 67.1301 0.822927C67.9991 1.22898 68.7317 1.87196 69.2417 2.67632C69.7518 3.48068 70.0182 4.41302 70.0095 5.36382L69.5186 55.3193C69.5091 56.2704 69.2249 57.2001 68.6993 57.9993C68.1738 58.7985 67.4287 59.4339 66.5517 59.8308C65.6747 60.2278 64.7022 60.3697 63.7485 60.24C62.7948 60.1104 61.8996 59.7144 61.1681 59.0988C49.3223 49.1425 36.9455 46.24 31.6695 45.4182L31.5722 55.3219C31.5651 56.145 31.3522 56.9546 30.9523 57.6786C30.5524 58.4025 29.9779 59.0184 29.2799 59.4715L25.7792 61.7412C25.1025 62.1806 24.3298 62.454 23.5256 62.5384C22.7215 62.6229 21.9094 62.5159 21.1573 62.2266C20.4052 61.9372 19.735 61.4738 19.2029 60.8752C18.6707 60.2767 18.2921 59.5603 18.0988 58.7862L14.5132 44.9157C10.8666 44.4161 7.53335 42.6253 5.13317 39.8762C2.733 37.1271 1.42919 33.6067 1.46416 29.9696ZM64.4596 55.2699L64.9503 5.33627C51.3034 16.4744 37.4195 19.2371 31.9202 19.9065L31.7193 40.3508C37.1984 41.0926 51.0235 43.9999 64.4596 55.2699ZM23.0124 57.5421L23.0121 57.5764L26.5128 55.3068L26.6132 45.094L19.7832 45.0568L23.0124 57.5421ZM16.5437 40.0434L26.6622 40.0985L26.8586 20.1163L16.7401 20.0612C14.0565 20.0466 11.4725 21.0852 9.55648 22.9485C7.64048 24.8119 6.54945 27.3474 6.52341 29.9972C6.49737 32.647 7.53846 35.1941 9.41763 37.0781C11.2968 38.9621 13.8601 40.0288 16.5437 40.0434Z" fill="#18181A"/>
</g>
</svg>
