<svg width="83" height="63" viewBox="0 0 83 63" fill="none" xmlns="http://www.w3.org/2000/svg">
<g opacity="0.4">
<path opacity="0.2" d="M5.70734 40.8149L16.6783 40.8339L16.5551 59.8728L5.58418 59.8539C4.85676 59.8526 4.16099 59.5649 3.64992 59.0539C3.13886 58.543 2.85437 57.8507 2.85904 57.1293L2.94701 43.5301C2.95168 42.8087 3.24512 42.1174 3.76278 41.6082C4.28044 41.099 4.97992 40.8137 5.70734 40.8149ZM66.479 2.84141C63.8092 2.80574 61.1857 3.56118 58.9445 5.01098C56.7033 6.46078 54.9464 8.53895 53.8987 10.9794C52.8827 8.5354 51.1527 6.45122 48.9303 4.99372C46.7079 3.53623 44.0943 2.77176 41.4241 2.79822C33.9536 2.78535 27.8553 8.99996 27.8076 16.3741C27.7755 21.3243 30.1465 25.7992 33.4553 29.9833L48.2901 30.0088C50.1087 30.012 51.8481 30.7314 53.1257 32.0088C54.4034 33.2861 55.1146 35.0169 55.103 36.8203C55.0913 38.6236 54.3577 40.3519 53.0635 41.6249C51.7694 42.8978 50.0207 43.6112 48.2021 43.6081L49.5735 43.6104L62.5452 40.6817C70.1371 35.1701 79.8552 26.4016 79.9195 16.464C79.9672 9.08978 73.9495 2.85428 66.479 2.84141Z" fill="#18181A"/>
<path d="M79.2153 37.2229C78.3228 36.5359 77.2978 36.0368 76.2026 35.7561C75.1075 35.4754 73.9651 35.4189 72.8451 35.5901C79.3258 29.1547 82.6245 22.7512 82.6652 16.4679C82.7234 7.468 75.4712 0.135137 66.4985 0.119706C64.1177 0.100785 61.7593 0.598872 59.5886 1.579C57.4179 2.55913 55.4877 3.99754 53.9334 5.79324C52.4023 3.99223 50.4907 2.54721 48.3328 1.55964C46.1749 0.572071 43.8229 0.0658837 41.442 0.0766159C32.4692 0.0611852 25.1222 7.36894 25.064 16.3689C25.0398 20.1089 26.1272 23.7455 28.4406 27.595C26.5224 28.0728 24.7683 29.0568 23.3649 30.4423L15.5596 38.1131L5.72279 38.0962C4.26786 38.0937 2.86881 38.6644 1.83341 39.6829C0.798017 40.7013 0.211093 42.084 0.201756 43.5268L0.113743 57.127C0.104406 58.5698 0.673421 59.9545 1.69561 60.9765C2.7178 61.9985 4.10943 62.574 5.56436 62.5765L41.2222 62.6378C41.4465 62.6383 41.6701 62.6113 41.8879 62.5574L63.8664 57.155C64.0065 57.1223 64.1434 57.077 64.2753 57.0197L77.6388 51.419L77.7901 51.3512C79.0751 50.7187 80.178 49.773 80.9951 48.6032C81.8121 47.4334 82.3164 46.0779 82.4603 44.6646C82.6043 43.2512 82.3832 41.8265 81.8179 40.5246C81.2526 39.2226 80.3616 38.0864 79.229 37.2229L79.2153 37.2229ZM41.4067 5.51669C43.5314 5.48952 45.6129 6.09132 47.3852 7.24515C49.1576 8.39897 50.5401 10.0524 51.356 11.994C51.5594 12.4932 51.9082 12.9205 52.358 13.2216C52.8079 13.5227 53.3384 13.6839 53.8823 13.6848C54.4262 13.6858 54.9588 13.5264 55.4125 13.2268C55.8662 12.9273 56.2205 12.5012 56.4304 12.0027C57.2714 10.064 58.6753 8.41534 60.4625 7.26764C62.2497 6.11993 64.339 5.5253 66.4633 5.55978C72.3091 5.56984 77.2175 10.5594 77.1794 16.4585C77.1364 23.092 71.674 30.5866 61.3836 38.1579L57.5756 39.0184C57.9184 37.6208 57.9381 36.1659 57.6333 34.7627C57.3285 33.3596 56.707 32.0445 55.8154 30.9161C54.9239 29.7877 53.7854 28.8752 52.4853 28.2471C51.1852 27.619 49.7572 27.2915 48.3084 27.2891L34.8269 27.2659C31.8936 23.3032 30.5276 19.8191 30.5498 16.3783C30.588 10.4792 35.5609 5.50664 41.4067 5.51669ZM5.68758 43.5362L13.9163 43.5504L13.8283 57.1506L5.59957 57.1364L5.68758 43.5362ZM75.4184 46.4476L62.3539 51.9265L40.9146 57.1972L19.3141 57.16L19.4125 41.9652L27.2213 34.2876C27.7321 33.7811 28.3389 33.3799 29.0064 33.1073C29.6739 32.8347 30.3887 32.6962 31.1094 32.6997L48.2732 32.7292C49.3644 32.7311 50.4081 33.1627 51.1747 33.9292C51.9414 34.6957 52.3681 35.7342 52.3611 36.8163C52.3541 37.8984 51.9139 38.9355 51.1374 39.6993C50.3608 40.4631 49.3115 40.8912 48.2203 40.8893L38.6201 40.8728C37.8927 40.8716 37.1932 41.1569 36.6755 41.6661C36.1578 42.1754 35.8643 42.8667 35.8596 43.5881C35.855 44.3095 36.1395 45.0019 36.6506 45.5129C37.1617 46.0239 37.8575 46.3116 38.5849 46.3129L49.5566 46.3317C49.7631 46.3315 49.969 46.3091 50.1708 46.2648L73.1766 41.0648L73.283 41.0378C73.9855 40.846 74.7336 40.9182 75.3832 41.2406C76.0328 41.563 76.5381 42.1128 76.8018 42.7843C77.0656 43.4557 77.0691 44.2013 76.8118 44.8776C76.5545 45.5539 76.0546 46.1131 75.4081 46.4476L75.4184 46.4476Z" fill="#18181A"/>
</g>
</svg>
