<svg width="82" height="82" viewBox="0 0 82 82" fill="none" xmlns="http://www.w3.org/2000/svg">
<g opacity="0.4">
<path d="M72.3721 41H79H72.3721ZM64.1535 17.8218L69.5 12.5L64.1535 17.8218ZM41 9.61481V3V9.61481ZM17.8465 17.8218L12.5 12.5L17.8465 17.8218ZM9.62791 41H3H9.62791ZM33.4 79H48.6H33.4ZM60 41C59.999 37.5747 59.0721 34.2134 57.3173 31.2718C55.5626 28.3301 53.0452 25.9175 50.0317 24.2893C47.0182 22.6611 43.6205 21.8778 40.1983 22.0223C36.776 22.1669 33.4565 23.2338 30.591 25.1104C27.7255 26.9869 25.4205 29.6031 23.92 32.6822C22.4196 35.7614 21.7794 39.1889 22.0672 42.6021C22.355 46.0152 23.5602 49.2871 25.5552 52.0714C27.5501 54.8558 30.2607 57.0491 33.4 58.4192V67.6H48.6V58.4192C51.9889 56.9396 54.8725 54.5035 56.8974 51.4095C58.9223 48.3154 60.0006 44.6978 60 41Z" fill="#18181A" fill-opacity="0.2"/>
<path d="M72.3721 41H79M64.1535 17.8218L69.5 12.5M41 9.61481V3M17.8465 17.8218L12.5 12.5M9.62791 41H3M33.4 79H48.6M60 41C59.999 37.5747 59.0721 34.2134 57.3174 31.2718C55.5626 28.3301 53.0452 25.9175 50.0317 24.2893C47.0182 22.6611 43.6205 21.8778 40.1983 22.0223C36.776 22.1669 33.4565 23.2338 30.591 25.1104C27.7255 26.9869 25.4205 29.6031 23.92 32.6822C22.4196 35.7614 21.7794 39.1889 22.0672 42.602C22.355 46.0152 23.5602 49.2871 25.5552 52.0714C27.5501 54.8558 30.2607 57.0491 33.4 58.4192V67.6H48.6V58.4192C51.9889 56.9396 54.8725 54.5035 56.8974 51.4095C58.9223 48.3154 60.0006 44.6978 60 41Z" stroke="#18181A" stroke-width="6" stroke-linecap="round" stroke-linejoin="round"/>
</g>
</svg>
