<svg width="83" height="84" viewBox="0 0 83 84" fill="none" xmlns="http://www.w3.org/2000/svg">
<path opacity="0.4" d="M26.8529 0.00176471C26.7309 0.328228 26.5914 0.672339 26.4868 1.04292C25.8765 2.9717 25.5975 5.25871 26.3996 6.9175C26.4868 7.0975 26.5391 7.14338 26.6088 7.28279C27.4632 6.56457 28.8756 5.66812 30.9332 5.73165C32.642 5.78282 34.0544 6.79397 34.8739 8.04865C35.6935 9.30333 36.0771 10.7945 36.1468 12.2839C36.2166 13.7715 35.9899 15.2661 35.3622 16.572C34.7345 17.8779 33.5662 19.0778 31.962 19.3072C29.329 19.6955 27.4284 18.2308 26.4693 17.5955C26.3124 17.5073 26.2426 17.4896 26.1555 17.4367C26.1032 17.5249 26.0857 17.5249 25.9985 17.7367C25.9113 17.9132 25.8416 19.1837 26.2078 20.8425C26.3473 21.4425 26.5042 22.0954 26.7134 22.766C30.3055 22.6778 33.8277 22.9601 36.3561 23.9483C37.6464 24.4424 38.5532 24.8836 39.1809 25.8012C39.8086 26.7188 39.6517 27.9365 39.3901 28.6247C38.8845 30.0011 38.2567 30.7776 38.4485 32.5423C38.5357 33.2128 38.7275 33.4246 39.146 33.654C39.5645 33.8834 40.2794 34.0069 41.0466 33.8834C42.5811 33.6716 43.9935 32.6128 44.1504 31.5187C44.3771 29.9482 44.0458 29.9835 43.4704 29.26C43.3309 29.0659 43.1216 28.8365 42.9647 28.3953C42.8078 27.9365 42.8427 27.1953 43.1042 26.7188C43.6099 25.7659 44.2376 25.5012 45.2141 24.9718C46.7485 24.1248 48.4574 24.3013 50.3231 24.6012C51.6309 24.813 53.0433 25.1483 54.4731 25.5189C54.0721 23.913 53.7059 22.3248 53.4792 20.8425C53.1828 18.8484 53.0607 17.0132 53.95 15.3897C54.2639 14.8426 54.508 14.4226 54.8218 14.0556C55.1183 13.6885 55.4845 13.2844 56.1994 13.1309C56.9143 12.9756 57.6641 13.3603 57.9779 13.6621C58.3092 13.9638 58.4487 14.2091 58.5882 14.4226C58.8672 14.8426 59.0939 15.1603 59.3032 15.3014C59.5124 15.4603 59.6693 15.5838 60.3145 15.4779C60.7504 15.425 61.1689 15.125 61.5525 14.4897C61.9536 13.8615 62.2326 12.9244 62.2849 12.0156C62.3197 11.1068 62.1454 10.2474 61.8315 9.73568C61.5351 9.22569 61.2735 9.00511 60.5935 8.96628C59.6868 8.91334 59.3206 9.08628 59.1113 9.22216C58.9021 9.35628 58.8149 9.48686 58.6405 9.78862C58.5359 9.93862 58.5185 10.1574 57.9605 10.5492C57.6815 10.7451 57.1061 10.9251 56.6353 10.8227C56.1471 10.7186 55.8855 10.4751 55.7111 10.2986C55.0311 9.59803 54.9439 9.13569 54.4034 7.99395C53.0956 5.2393 53.2351 2.26936 53.7059 0L26.8529 0.00176471ZM57.0363 0.00176471C56.583 1.91996 56.2691 4.58637 57.2281 6.61751C57.2456 6.64045 57.2456 6.64751 57.263 6.67045C57.3153 6.63339 57.3502 6.5928 57.4025 6.55751C58.2221 6.02634 59.3555 5.71223 60.7679 5.79517C62.4244 5.89047 63.8019 6.87515 64.5342 8.11395C65.2666 9.35098 65.4933 10.7857 65.4061 12.1903C65.3363 13.595 64.9527 14.9838 64.2204 16.1838C63.488 17.3661 62.3023 18.4073 60.7679 18.619C59.4426 18.8131 58.2395 18.4602 57.4374 17.8779C57.1061 17.6308 56.862 17.3661 56.6353 17.1014C56.4609 17.6132 56.3563 18.7955 56.583 20.3837C56.8445 22.1131 57.3851 24.2307 57.9431 26.3836C57.9431 26.4012 57.9431 26.4189 57.9605 26.4189C59.4775 26.8247 60.9597 27.1777 62.2849 27.3894C64.0634 27.6718 65.5282 27.6541 66.2256 27.3894C66.5744 27.2659 66.6964 27.1777 66.8359 27.0894C66.8359 27.0718 66.8359 27.0718 66.8185 27.0541C66.1385 26.0836 64.3599 24.0718 64.5691 21.0719C64.6912 19.3602 65.8595 17.9661 67.2021 17.4014C67.8821 17.1191 68.5971 16.9779 69.312 16.9426C70.0443 16.9073 70.7767 16.9602 71.509 17.1014C72.9563 17.3661 74.3861 17.9485 75.5893 18.8131C76.7924 19.6778 77.8212 20.8778 78.0479 22.4836C78.3966 24.9189 77.1237 26.613 76.4263 27.46L76.4611 27.4953C77.4899 27.9894 79.809 27.7424 81.7969 27.0894C82.2153 26.9659 82.6164 26.8071 83 26.6659V4.00177C83 1.79263 81.2091 0.00176471 79 0.00176471L57.0363 0.00176471ZM69.8176 20.119C69.2422 20.119 68.7365 20.2072 68.4053 20.3308C67.8821 20.5602 67.7426 20.666 67.7078 21.2837C67.5857 22.9778 68.4924 23.9483 69.3817 25.2189C69.6084 25.5365 69.8351 25.8718 70.0095 26.313C70.2013 26.7718 70.3059 27.4424 70.1141 28.0776C69.6956 29.3659 68.6319 29.8776 67.3067 30.3717C65.6328 31.007 63.7845 30.8482 61.7792 30.5305C60.8202 30.3717 59.8263 30.16 58.8149 29.9129C59.0416 30.9011 59.2508 31.8893 59.3903 32.8423C59.7042 34.8893 59.8263 36.7951 59.059 38.4892C58.5185 39.7068 58.3441 40.395 57.3502 41.048C56.862 41.3656 55.9378 41.4185 55.4321 41.1891C54.9439 40.9597 54.7521 40.7127 54.5603 40.5186C53.8279 39.7598 53.671 39.2127 51.875 39.3186C51.2298 39.3539 51.038 39.5303 50.7765 40.0597C50.5149 40.5715 50.3754 41.4715 50.4626 42.4068C50.5672 43.3597 50.8811 44.3126 51.2821 44.9126C51.6658 45.5302 51.9796 45.6714 52.2063 45.6714C53.4269 45.689 54.0895 45.0891 55.2403 44.4891C55.8158 44.1714 56.7748 43.8008 57.7861 44.2067C58.78 44.6126 59.3032 45.442 59.8088 46.4831C60.6632 48.2655 61.0294 50.7713 61.1515 53.5595C61.3084 53.5418 61.4828 53.5065 61.6397 53.4712C63.5927 53.1359 65.4061 52.9771 67.08 53.5948C67.7426 53.8418 68.2483 54.0712 68.7191 54.3889C69.1725 54.7065 69.6782 55.2006 69.8351 55.9241C69.992 56.6653 69.713 57.3182 69.4689 57.7064C69.2248 58.1123 68.9632 58.3594 68.7191 58.6241C67.7252 59.6299 66.9057 60.2476 67.0975 61.6417C67.1672 62.1358 67.4811 62.5946 68.2309 63.0357C68.9632 63.4946 70.0618 63.8298 71.1603 63.9181C72.2588 64.0063 73.3399 63.8475 74.0374 63.5475C74.7174 63.2475 74.9092 63.0004 74.9616 62.6299C75.1534 61.3417 74.4384 60.6005 73.5492 59.4005C73.1132 58.8005 72.4855 58.0241 72.5901 56.8065C72.6947 55.5888 73.6189 54.7065 74.7698 54.0359C77.3679 52.5536 80.4019 53.1712 82.7384 53.93C82.8256 53.9653 82.9128 53.983 83 54.0183V30.0364C82.9128 30.0717 82.8431 30.0894 82.7559 30.1247C80.4716 30.8658 77.612 31.5893 75.0836 30.3364C74.5779 30.0894 74.1595 29.8423 73.7758 29.507C73.3922 29.1541 73.0261 28.66 72.9214 28.0247C72.8343 27.3894 73.0435 26.8247 73.2353 26.4718C73.4445 26.1189 73.6538 25.8718 73.8282 25.6424C74.5954 24.7601 75.1534 24.3542 74.9441 22.9425C74.8918 22.5189 74.5256 21.9366 73.7758 21.3896C73.0261 20.8602 71.9624 20.419 70.9336 20.2249C70.55 20.1543 70.1664 20.119 69.8176 20.119ZM27.7771 25.9424H27.6725L27.8992 26.6659C28.5443 28.7835 29.2069 30.9541 29.5731 32.9658C29.9219 34.9775 30.0788 36.8657 29.2244 38.5598C28.9279 39.1598 28.649 39.6186 28.3002 40.0421C27.9515 40.448 27.4109 40.9068 26.6263 40.9421C25.859 40.9774 25.2836 40.5539 24.9697 40.2362C24.6733 39.9362 24.4815 39.6715 24.3071 39.4068C23.9235 38.8774 23.5922 38.4186 23.2261 38.1539C22.8773 37.8716 22.5634 37.7127 21.7962 37.801C21.2557 37.8716 20.8372 38.1715 20.4013 38.8951C19.9828 39.6362 19.6863 40.7303 19.6166 41.8421C19.5643 42.9538 19.7561 44.0655 20.0874 44.7891C20.4187 45.5126 20.7326 45.7596 21.1511 45.8126C22.546 46.0243 23.3307 45.3008 24.5338 44.4538C25.1267 44.0303 25.859 43.4479 27.0448 43.5361C28.2305 43.6244 29.1197 44.5597 29.73 45.6714C30.5845 47.2596 30.3752 49.0066 30.0613 50.9478C29.73 52.8712 29.1546 55.0241 28.5792 57.177C28.5443 57.3006 28.5095 57.4064 28.4746 57.53C31.5261 57.3535 34.3857 56.8241 35.7632 56.1359C35.7807 56.1359 35.7807 56.1359 35.7807 56.1182C35.275 55.3241 34.9786 54.2124 35.0483 52.8183C35.1181 51.1242 36.0597 49.7301 37.2279 48.9184C38.3962 48.1066 39.7737 47.7714 41.1338 47.7184C42.4939 47.6655 43.8366 47.8949 44.9874 48.5302C46.1557 49.1654 47.2019 50.3831 47.2368 51.936C47.2716 53.7536 46.5742 55.0594 46.208 55.6594C46.3824 55.8006 46.6265 55.9771 47.0101 56.1888C47.3414 56.3829 48.5097 56.5241 50.079 56.2594C51.6483 56.0123 53.6013 55.483 55.6065 54.9359C56.4086 54.7241 57.2107 54.4947 58.0128 54.283C57.8908 51.4066 57.4548 48.8478 56.984 47.8772C56.8445 47.5596 56.7399 47.4361 56.6527 47.3302C55.9901 47.6831 54.4382 48.8831 52.154 48.8478C50.6021 48.8302 49.3989 47.8066 48.6492 46.6596C47.9168 45.5126 47.4809 44.1361 47.3414 42.742C47.2019 41.3303 47.3239 39.8833 47.9866 38.5951C48.6492 37.3069 50.0267 36.2481 51.7006 36.1422C53.7233 36.0363 55.1357 36.8833 55.9901 37.5716C56.0599 37.4127 56.1296 37.3598 56.2168 37.1657C56.4784 36.5657 56.5656 35.1187 56.2866 33.3187C56.0948 32.0305 55.7634 30.5482 55.3798 29.0306C53.3571 28.5012 51.4216 27.9894 49.8349 27.7424C48.2132 27.4777 46.9926 27.6188 46.7137 27.76C46.5567 27.8482 46.5218 27.9012 46.3998 27.9718C46.9055 28.7835 47.5158 30.16 47.2542 31.9776C46.8183 34.9775 44.0632 36.6716 41.4826 37.0422C40.1922 37.2186 38.8321 37.0951 37.6464 36.4422C36.4607 35.7892 35.5017 34.4834 35.3273 32.8952C35.0309 30.16 36.1992 28.2012 36.4433 27.513C36.3212 27.4247 36.0074 27.213 35.2401 26.913C33.6882 26.313 30.8111 25.96 27.7771 25.9424ZM24.4118 26.0836C21.1336 26.3483 18.0996 27.0541 16.9139 27.7071C16.6 27.8835 16.4605 28.0071 16.3559 28.1129C16.8092 28.8012 18.2216 30.4599 18.0124 32.9128C17.8903 34.4481 16.7744 35.6304 15.5712 36.1598C14.3681 36.7069 13.0272 36.8128 11.6863 36.6539C10.3471 36.4775 9.00097 36.0187 7.86059 35.2069C6.72021 34.3775 5.77164 33.0893 5.5746 31.4835C5.40023 30.0717 5.71933 28.8541 6.26511 28.0071C6.46737 27.6894 6.68882 27.4424 6.90504 27.2306C6.87889 27.213 6.87714 27.213 6.84924 27.1953C5.24679 26.3659 2.93639 26.5424 0.986933 27.0894C0.636449 27.1777 0.312122 27.2835 0 27.3894L0 56.7359C0.308634 56.8418 0.631219 56.9476 0.978214 57.0359C2.92069 57.5829 5.23109 57.777 6.86319 56.9476C7.18578 56.7888 7.31132 56.6829 7.48395 56.5594C6.84227 55.7477 5.6862 54.0889 5.94775 51.6183C6.12387 49.9772 7.13695 48.6713 8.35406 47.9302C9.57116 47.189 10.9801 46.9067 12.3698 46.9067C13.7578 46.9067 15.1353 47.2067 16.3384 47.8949C17.5242 48.5655 18.5878 49.7478 18.7971 51.3007C19.0935 53.5948 17.8903 55.183 17.2452 55.9594C17.3498 56.03 17.3672 56.0653 17.559 56.1712C18.675 56.8065 21.8485 57.4241 25.2139 57.5476C25.3359 57.1417 25.4405 56.7535 25.5452 56.3476C26.1206 54.1947 26.6786 52.0948 26.9576 50.4184C27.2366 48.7243 27.1145 47.4537 26.975 47.2067C26.8355 46.942 26.7832 46.889 26.7309 46.8184C26.6437 46.8714 26.5216 46.9243 26.3298 47.0655C25.3359 47.7537 23.4179 49.3596 20.6977 48.9537C19.0586 48.7243 17.8729 47.4714 17.2452 46.1302C16.6174 44.7714 16.4082 43.2185 16.4954 41.6832C16.5651 40.148 16.9313 38.5951 17.6985 37.2892C18.4658 35.9657 19.7735 34.8363 21.4649 34.6422C22.9471 34.4834 24.2374 34.9422 25.1092 35.6128C25.737 36.0716 26.138 36.5834 26.4693 37.0245C26.696 36.4775 26.7832 35.2069 26.4693 33.5305C26.1729 31.8011 25.5452 29.7188 24.9 27.6188C24.7431 27.1071 24.5687 26.5953 24.4118 26.0836ZM12.3541 50.0831C11.4369 50.0831 10.5389 50.2948 9.96698 50.6478C9.39504 51.0007 9.13523 51.336 9.06897 51.9536C8.88937 53.6653 9.48048 54.0006 10.2355 54.9712C10.4256 55.2183 10.647 55.5006 10.8179 55.9594C10.9905 56.4182 11.0184 57.1417 10.7708 57.7064C10.2791 58.8182 9.45956 59.1888 8.26513 59.8064C5.5066 61.1828 2.46036 60.7417 0.142983 60.1064C0.0941596 60.0887 0.0488235 60.0711 0 60.0534L0 80C0 82.2091 1.79086 84 4 84H23.7666C23.3132 81.9353 23.2261 79.3413 24.5513 76.9766C25.1267 75.9531 25.3882 75.3708 26.138 74.8237C26.5042 74.5414 27.2191 74.312 27.7771 74.4531C28.3351 74.5767 28.6141 74.8414 28.7884 75.0002C29.1372 75.3178 29.2418 75.4414 29.4336 75.5296C29.6254 75.6178 29.887 75.7237 30.5845 75.6355C30.8634 75.6002 31.2994 75.3355 31.7179 74.5767C32.1538 73.8355 32.4851 72.7238 32.5723 71.6297C32.6595 70.5532 32.4851 69.4944 32.1887 68.8768C31.8922 68.2591 31.683 68.065 31.0727 68.0297C30.2706 67.9768 29.9219 68.1709 29.5731 68.4533C29.2244 68.7356 28.9279 69.1944 28.6489 69.6885C28.492 69.918 28.37 70.165 28.1084 70.4826C27.9863 70.6415 27.812 70.8356 27.4807 71.012C27.1668 71.2062 26.6088 71.312 26.1555 71.1885C25.2313 70.9591 25.0046 70.3944 24.7779 69.9885C24.5513 69.565 24.3595 69.1062 24.1153 68.4709C23.4876 66.7592 23.662 64.8533 24.0107 62.7887C24.1328 62.1181 24.2723 61.4122 24.4292 60.7064C21.1162 60.5828 18.0821 60.1064 16.0246 58.9593C14.9784 58.3594 14.1553 57.8476 13.8589 56.6829C13.7124 56.1006 13.8415 55.4653 14.0333 55.0771C14.2216 54.6712 14.4378 54.4242 14.6122 54.1947C15.362 53.2948 15.8502 53.0301 15.6758 51.7066C15.6235 51.336 15.4143 51.0007 14.804 50.6654C13.981 50.2948 13.1074 50.0831 12.3541 50.0831ZM78.3966 56.3653C77.5771 56.3653 76.8447 56.5065 76.3042 56.8065C76.0078 56.9829 75.9206 57.0712 75.8334 57.1241C75.8857 57.2123 75.9206 57.3182 76.0601 57.5123C76.775 58.4652 78.4664 60.3534 78.0653 63.0887C77.8387 64.7298 76.5832 65.9121 75.258 66.4768C73.9153 67.0415 72.4157 67.2004 70.8987 67.0768C69.3992 66.9533 67.8996 66.5474 66.6092 65.771C65.3363 64.9945 64.2029 63.724 63.9937 62.0652C63.6275 59.3829 65.2666 57.6182 66.2082 56.6653C66.121 56.63 66.121 56.63 65.9989 56.577C65.3189 56.33 63.8891 56.3123 62.1628 56.6123C61.8489 56.6653 61.5176 56.7182 61.1863 56.7888C61.1166 60.6181 60.6632 64.4828 59.6345 67.1474C59.1288 68.4709 58.6929 69.4238 57.6466 69.9885C57.1061 70.2709 56.4609 70.3415 55.9553 70.2532C55.467 70.1474 55.1008 69.9709 54.7695 69.7944C53.4618 69.0886 52.5899 68.2944 50.759 68.365C50.1139 68.3827 50.0616 68.4886 49.8523 68.9827C49.6605 69.4768 49.5733 70.4297 49.7651 71.4179C49.9395 72.4061 50.358 73.4296 50.8462 74.1002C51.317 74.7708 51.7529 74.9649 51.9448 74.9825C53.113 75.0002 53.1828 74.5943 54.0546 73.8532C54.2639 73.659 54.5429 73.412 55.0311 73.2532C55.5193 73.0943 56.2168 73.1649 56.6876 73.412C57.6466 73.9237 57.9954 74.612 58.6057 75.7061C60.0529 78.3001 59.6868 81.3354 59.1637 83.7C59.1462 83.8059 59.1113 83.8941 59.0939 84H79C81.2091 84 83 82.2091 83 80V57.3888C82.6164 57.2476 82.2153 57.0888 81.7969 56.9653C80.6809 56.5947 79.4603 56.3829 78.3966 56.3653Z" fill="#18181A"/>
</svg>
