<svg width="794" height="382" viewBox="0 0 794 382" fill="none" xmlns="http://www.w3.org/2000/svg">
<rect opacity="0.2" width="794" height="382" rx="16" fill="white"/>
<path d="M50.7267 182.983H32V336H762V288.109H691.572V258.908H637.222V229.122H577.028V144.437H508.237V96.5462H441.693V104.139H368.98V58H301.852V220.945H239.074V154.366H171.867V210.433H118.271V125.748H50.7267V182.983Z" fill="#8B78B3" stroke="#B591FD" stroke-width="4"/>
<path d="M32 32V336H762V32" stroke="white" stroke-width="2"/>
<line x1="32.5" y1="32.5" x2="761.5" y2="32.5001" stroke="white" stroke-linecap="round" stroke-dasharray="2 4"/>
<line x1="32.5" y1="129.609" x2="761.5" y2="129.609" stroke="white" stroke-linecap="round" stroke-dasharray="2 4"/>
<line x1="32.5" y1="232.499" x2="761.5" y2="232.499" stroke="white" stroke-linecap="round" stroke-dasharray="2 4"/>
<line x1="118.166" y1="32" x2="118.166" y2="335" stroke="white" stroke-dasharray="2 4"/>
<line x1="239.499" y1="32" x2="239.499" y2="335" stroke="white" stroke-dasharray="2 4"/>
<line x1="369" y1="32" x2="369" y2="335" stroke="white" stroke-dasharray="2 4"/>
<line x1="509" y1="32" x2="509" y2="335" stroke="white" stroke-dasharray="2 4"/>
<line x1="637.333" y1="32" x2="637.333" y2="335" stroke="white" stroke-dasharray="2 4"/>
<line x1="743.5" y1="32" x2="743.5" y2="335" stroke="white" stroke-dasharray="2 4"/>
<line x1="50.5" y1="32" x2="50.5" y2="335" stroke="white" stroke-dasharray="2 4"/>
<line x1="171.833" y1="32" x2="171.833" y2="335" stroke="white" stroke-dasharray="2 4"/>
<line x1="301.334" y1="32" x2="301.334" y2="335" stroke="white" stroke-dasharray="2 4"/>
<line x1="441.333" y1="32" x2="441.333" y2="335" stroke="white" stroke-dasharray="2 4"/>
<line x1="576.666" y1="32" x2="576.666" y2="335" stroke="white" stroke-dasharray="2 4"/>
<line x1="691" y1="32" x2="691" y2="335" stroke="white" stroke-dasharray="2 4"/>
<path d="M35.9738 357L34.9191 354.281H31.4855L30.4367 357H29.4289L32.7805 348.398H33.677L37.0051 357H35.9738ZM34.6203 353.396L33.6184 350.695C33.5949 350.625 33.5559 350.51 33.5012 350.35C33.4504 350.189 33.3977 350.023 33.343 349.852C33.2883 349.68 33.2434 349.541 33.2082 349.436C33.1691 349.596 33.1262 349.756 33.0793 349.916C33.0363 350.072 32.9934 350.219 32.9504 350.355C32.9074 350.488 32.8703 350.602 32.8391 350.695L31.8195 353.396H34.6203ZM41.4656 350.461C42.2664 350.461 42.9051 350.736 43.3816 351.287C43.8582 351.838 44.0965 352.666 44.0965 353.771C44.0965 354.502 43.9871 355.115 43.7684 355.611C43.5496 356.107 43.241 356.482 42.8426 356.736C42.448 356.99 41.9812 357.117 41.4422 357.117C41.1023 357.117 40.8035 357.072 40.5457 356.982C40.2879 356.893 40.0672 356.771 39.8836 356.619C39.7 356.467 39.5477 356.301 39.4266 356.121H39.3562C39.368 356.273 39.3816 356.457 39.3973 356.672C39.4168 356.887 39.4266 357.074 39.4266 357.234V359.871H38.448V350.578H39.2508L39.3797 351.527H39.4266C39.5516 351.332 39.7039 351.154 39.8836 350.994C40.0633 350.83 40.282 350.701 40.5398 350.607C40.8016 350.51 41.1102 350.461 41.4656 350.461ZM41.2957 351.281C40.8504 351.281 40.491 351.367 40.2176 351.539C39.948 351.711 39.7508 351.969 39.6258 352.312C39.5008 352.652 39.4344 353.08 39.4266 353.596V353.783C39.4266 354.326 39.4852 354.785 39.6023 355.16C39.7234 355.535 39.9207 355.82 40.1941 356.016C40.4715 356.211 40.8426 356.309 41.3074 356.309C41.7059 356.309 42.0379 356.201 42.3035 355.986C42.5691 355.771 42.7664 355.473 42.8953 355.09C43.0281 354.703 43.0945 354.26 43.0945 353.76C43.0945 353.002 42.9461 352.4 42.6492 351.955C42.3562 351.506 41.9051 351.281 41.2957 351.281ZM49.1137 350.461C49.2426 350.461 49.3773 350.469 49.518 350.484C49.6586 350.496 49.7836 350.514 49.893 350.537L49.7699 351.439C49.6645 351.412 49.5473 351.391 49.4184 351.375C49.2895 351.359 49.1684 351.352 49.0551 351.352C48.7973 351.352 48.5531 351.404 48.3227 351.51C48.0961 351.611 47.8969 351.76 47.725 351.955C47.5531 352.146 47.4184 352.379 47.3207 352.652C47.223 352.922 47.1742 353.223 47.1742 353.555V357H46.1957V350.578H47.0043L47.1098 351.762H47.1508C47.2836 351.523 47.4437 351.307 47.6312 351.111C47.8187 350.912 48.0355 350.754 48.2816 350.637C48.5316 350.52 48.809 350.461 49.1137 350.461ZM54.2262 351.369L54.1559 351.24C54.2262 350.955 54.316 350.65 54.4254 350.326C54.5348 349.998 54.6539 349.672 54.7828 349.348C54.9117 349.02 55.0406 348.715 55.1695 348.434H55.8844C55.8062 348.734 55.7262 349.059 55.6441 349.406C55.566 349.754 55.4937 350.1 55.4273 350.443C55.3609 350.783 55.3062 351.092 55.2633 351.369H54.2262ZM62.6418 357H57.0285V356.186L59.3195 353.859C59.7453 353.43 60.1027 353.047 60.3918 352.711C60.6848 352.375 60.9074 352.045 61.0598 351.721C61.2121 351.393 61.2883 351.033 61.2883 350.643C61.2883 350.158 61.1437 349.789 60.8547 349.535C60.5695 349.277 60.1926 349.148 59.7238 349.148C59.3137 349.148 58.9504 349.219 58.634 349.359C58.3176 349.5 57.9934 349.699 57.6613 349.957L57.1398 349.301C57.3664 349.109 57.6125 348.939 57.8781 348.791C58.1477 348.643 58.4348 348.525 58.7395 348.439C59.048 348.354 59.3762 348.311 59.7238 348.311C60.2512 348.311 60.7062 348.402 61.0891 348.586C61.4719 348.77 61.7668 349.031 61.9738 349.371C62.1848 349.711 62.2902 350.115 62.2902 350.584C62.2902 351.037 62.2004 351.459 62.0207 351.85C61.841 352.236 61.5891 352.621 61.2648 353.004C60.9406 353.383 60.5617 353.785 60.1281 354.211L58.2648 356.068V356.109H62.6418V357ZM69.909 357H64.2957V356.186L66.5867 353.859C67.0125 353.43 67.3699 353.047 67.659 352.711C67.952 352.375 68.1746 352.045 68.327 351.721C68.4793 351.393 68.5555 351.033 68.5555 350.643C68.5555 350.158 68.4109 349.789 68.1219 349.535C67.8367 349.277 67.4598 349.148 66.991 349.148C66.5809 349.148 66.2176 349.219 65.9012 349.359C65.5848 349.5 65.2605 349.699 64.9285 349.957L64.407 349.301C64.6336 349.109 64.8797 348.939 65.1453 348.791C65.4148 348.643 65.702 348.525 66.0066 348.439C66.3152 348.354 66.6434 348.311 66.991 348.311C67.5184 348.311 67.9734 348.402 68.3563 348.586C68.7391 348.77 69.034 349.031 69.241 349.371C69.452 349.711 69.5574 350.115 69.5574 350.584C69.5574 351.037 69.4676 351.459 69.2879 351.85C69.1082 352.236 68.8563 352.621 68.532 353.004C68.2078 353.383 67.8289 353.785 67.3953 354.211L65.532 356.068V356.109H69.909V357Z" fill="white"/>
<path d="M100.058 357L97.1809 349.418H97.134C97.1496 349.578 97.1633 349.773 97.175 350.004C97.1867 350.234 97.1965 350.486 97.2043 350.76C97.2121 351.029 97.216 351.305 97.216 351.586V357H96.2902V348.434H97.7668L100.48 355.559H100.521L103.275 348.434H104.739V357H103.755V351.516C103.755 351.262 103.759 351.008 103.767 350.754C103.775 350.496 103.784 350.254 103.796 350.027C103.808 349.797 103.82 349.598 103.831 349.43H103.784L100.872 357H100.058ZM109.739 350.473C110.505 350.473 111.073 350.645 111.444 350.988C111.815 351.332 112.001 351.881 112.001 352.635V357H111.292L111.104 356.051H111.057C110.878 356.285 110.69 356.482 110.495 356.643C110.3 356.799 110.073 356.918 109.815 357C109.561 357.078 109.249 357.117 108.878 357.117C108.487 357.117 108.139 357.049 107.835 356.912C107.534 356.775 107.296 356.568 107.12 356.291C106.948 356.014 106.862 355.662 106.862 355.236C106.862 354.596 107.116 354.104 107.624 353.76C108.132 353.416 108.905 353.229 109.944 353.197L111.052 353.15V352.758C111.052 352.203 110.932 351.814 110.694 351.592C110.456 351.369 110.12 351.258 109.686 351.258C109.35 351.258 109.03 351.307 108.725 351.404C108.421 351.502 108.132 351.617 107.858 351.75L107.559 351.012C107.848 350.863 108.18 350.736 108.555 350.631C108.93 350.525 109.325 350.473 109.739 350.473ZM111.04 353.836L110.061 353.877C109.261 353.908 108.696 354.039 108.368 354.27C108.04 354.5 107.876 354.826 107.876 355.248C107.876 355.615 107.987 355.887 108.21 356.062C108.432 356.238 108.727 356.326 109.095 356.326C109.665 356.326 110.132 356.168 110.495 355.852C110.858 355.535 111.04 355.061 111.04 354.428V353.836ZM113.391 350.578H114.434L115.852 354.305C115.934 354.523 116.01 354.734 116.08 354.938C116.151 355.137 116.213 355.328 116.268 355.512C116.323 355.695 116.366 355.873 116.397 356.045H116.438C116.493 355.85 116.571 355.594 116.672 355.277C116.774 354.957 116.883 354.631 117 354.299L118.342 350.578H119.391L116.596 357.943C116.448 358.338 116.274 358.682 116.075 358.975C115.879 359.268 115.641 359.492 115.36 359.648C115.079 359.809 114.739 359.889 114.34 359.889C114.157 359.889 113.995 359.877 113.854 359.854C113.713 359.834 113.592 359.811 113.491 359.783V359.004C113.577 359.023 113.68 359.041 113.801 359.057C113.926 359.072 114.055 359.08 114.188 359.08C114.43 359.08 114.639 359.033 114.815 358.939C114.995 358.85 115.149 358.717 115.278 358.541C115.407 358.365 115.518 358.156 115.612 357.914L115.963 357.012L113.391 350.578ZM123.537 351.369L123.466 351.24C123.537 350.955 123.627 350.65 123.736 350.326C123.845 349.998 123.964 349.672 124.093 349.348C124.222 349.02 124.351 348.715 124.48 348.434H125.195C125.117 348.734 125.037 349.059 124.955 349.406C124.877 349.754 124.804 350.1 124.738 350.443C124.671 350.783 124.617 351.092 124.574 351.369H123.537ZM131.952 357H126.339V356.186L128.63 353.859C129.056 353.43 129.413 353.047 129.702 352.711C129.995 352.375 130.218 352.045 130.37 351.721C130.523 351.393 130.599 351.033 130.599 350.643C130.599 350.158 130.454 349.789 130.165 349.535C129.88 349.277 129.503 349.148 129.034 349.148C128.624 349.148 128.261 349.219 127.945 349.359C127.628 349.5 127.304 349.699 126.972 349.957L126.45 349.301C126.677 349.109 126.923 348.939 127.189 348.791C127.458 348.643 127.745 348.525 128.05 348.439C128.359 348.354 128.687 348.311 129.034 348.311C129.562 348.311 130.017 348.402 130.4 348.586C130.782 348.77 131.077 349.031 131.284 349.371C131.495 349.711 131.601 350.115 131.601 350.584C131.601 351.037 131.511 351.459 131.331 351.85C131.152 352.236 130.9 352.621 130.575 353.004C130.251 353.383 129.872 353.785 129.439 354.211L127.575 356.068V356.109H131.952V357ZM139.22 357H133.606V356.186L135.897 353.859C136.323 353.43 136.68 353.047 136.97 352.711C137.263 352.375 137.485 352.045 137.638 351.721C137.79 351.393 137.866 351.033 137.866 350.643C137.866 350.158 137.721 349.789 137.432 349.535C137.147 349.277 136.77 349.148 136.302 349.148C135.891 349.148 135.528 349.219 135.212 349.359C134.895 349.5 134.571 349.699 134.239 349.957L133.718 349.301C133.944 349.109 134.19 348.939 134.456 348.791C134.725 348.643 135.013 348.525 135.317 348.439C135.626 348.354 135.954 348.311 136.302 348.311C136.829 348.311 137.284 348.402 137.667 348.586C138.05 348.77 138.345 349.031 138.552 349.371C138.763 349.711 138.868 350.115 138.868 350.584C138.868 351.037 138.778 351.459 138.598 351.85C138.419 352.236 138.167 352.621 137.843 353.004C137.518 353.383 137.139 353.785 136.706 354.211L134.843 356.068V356.109H139.22V357Z" fill="white"/>
<path d="M150.32 359.256C150.124 359.256 149.952 359.242 149.804 359.215C149.655 359.188 149.529 359.15 149.423 359.104V358.254C149.548 358.293 149.683 358.322 149.827 358.342C149.972 358.365 150.128 358.377 150.296 358.377C150.515 358.377 150.716 358.334 150.9 358.248C151.083 358.162 151.23 358.016 151.339 357.809C151.448 357.602 151.503 357.316 151.503 356.953V348.434H152.505V356.877C152.505 357.412 152.415 357.855 152.236 358.207C152.06 358.559 151.808 358.82 151.48 358.992C151.155 359.168 150.769 359.256 150.32 359.256ZM160.335 350.578V357H159.538L159.397 356.098H159.345C159.212 356.32 159.04 356.508 158.829 356.66C158.618 356.812 158.38 356.926 158.114 357C157.852 357.078 157.573 357.117 157.276 357.117C156.768 357.117 156.343 357.035 155.999 356.871C155.655 356.707 155.395 356.453 155.22 356.109C155.048 355.766 154.962 355.324 154.962 354.785V350.578H155.946V354.715C155.946 355.25 156.067 355.65 156.309 355.916C156.552 356.178 156.921 356.309 157.417 356.309C157.893 356.309 158.272 356.219 158.554 356.039C158.839 355.859 159.044 355.596 159.169 355.248C159.294 354.896 159.356 354.467 159.356 353.959V350.578H160.335ZM165.832 350.461C166.594 350.461 167.17 350.648 167.561 351.023C167.952 351.395 168.147 351.992 168.147 352.816V357H167.186V352.881C167.186 352.346 167.063 351.945 166.817 351.68C166.575 351.414 166.202 351.281 165.698 351.281C164.987 351.281 164.487 351.482 164.198 351.885C163.909 352.287 163.764 352.871 163.764 353.637V357H162.791V350.578H163.577L163.723 351.504H163.776C163.912 351.277 164.086 351.088 164.297 350.936C164.508 350.779 164.745 350.662 165.006 350.584C165.268 350.502 165.543 350.461 165.832 350.461ZM173.271 351.369L173.201 351.24C173.271 350.955 173.361 350.65 173.47 350.326C173.58 349.998 173.699 349.672 173.828 349.348C173.957 349.02 174.086 348.715 174.214 348.434H174.929C174.851 348.734 174.771 349.059 174.689 349.406C174.611 349.754 174.539 350.1 174.472 350.443C174.406 350.783 174.351 351.092 174.308 351.369H173.271ZM181.687 357H176.073V356.186L178.364 353.859C178.79 353.43 179.148 353.047 179.437 352.711C179.73 352.375 179.952 352.045 180.105 351.721C180.257 351.393 180.333 351.033 180.333 350.643C180.333 350.158 180.189 349.789 179.9 349.535C179.614 349.277 179.237 349.148 178.769 349.148C178.359 349.148 177.995 349.219 177.679 349.359C177.362 349.5 177.038 349.699 176.706 349.957L176.185 349.301C176.411 349.109 176.657 348.939 176.923 348.791C177.193 348.643 177.48 348.525 177.784 348.439C178.093 348.354 178.421 348.311 178.769 348.311C179.296 348.311 179.751 348.402 180.134 348.586C180.517 348.77 180.812 349.031 181.019 349.371C181.23 349.711 181.335 350.115 181.335 350.584C181.335 351.037 181.245 351.459 181.066 351.85C180.886 352.236 180.634 352.621 180.31 353.004C179.986 353.383 179.607 353.785 179.173 354.211L177.31 356.068V356.109H181.687V357ZM188.954 357H183.341V356.186L185.632 353.859C186.057 353.43 186.415 353.047 186.704 352.711C186.997 352.375 187.22 352.045 187.372 351.721C187.524 351.393 187.6 351.033 187.6 350.643C187.6 350.158 187.456 349.789 187.167 349.535C186.882 349.277 186.505 349.148 186.036 349.148C185.626 349.148 185.263 349.219 184.946 349.359C184.63 349.5 184.305 349.699 183.973 349.957L183.452 349.301C183.679 349.109 183.925 348.939 184.19 348.791C184.46 348.643 184.747 348.525 185.052 348.439C185.36 348.354 185.688 348.311 186.036 348.311C186.563 348.311 187.018 348.402 187.401 348.586C187.784 348.77 188.079 349.031 188.286 349.371C188.497 349.711 188.602 350.115 188.602 350.584C188.602 351.037 188.513 351.459 188.333 351.85C188.153 352.236 187.901 352.621 187.577 353.004C187.253 353.383 186.874 353.785 186.44 354.211L184.577 356.068V356.109H188.954V357Z" fill="white"/>
<path d="M220.982 359.256C220.786 359.256 220.614 359.242 220.466 359.215C220.318 359.188 220.191 359.15 220.085 359.104V358.254C220.21 358.293 220.345 358.322 220.489 358.342C220.634 358.365 220.79 358.377 220.958 358.377C221.177 358.377 221.378 358.334 221.562 358.248C221.745 358.162 221.892 358.016 222.001 357.809C222.111 357.602 222.165 357.316 222.165 356.953V348.434H223.167V356.877C223.167 357.412 223.077 357.855 222.898 358.207C222.722 358.559 222.47 358.82 222.142 358.992C221.818 359.168 221.431 359.256 220.982 359.256ZM230.997 350.578V357H230.2L230.059 356.098H230.007C229.874 356.32 229.702 356.508 229.491 356.66C229.28 356.812 229.042 356.926 228.776 357C228.514 357.078 228.235 357.117 227.938 357.117C227.43 357.117 227.005 357.035 226.661 356.871C226.317 356.707 226.057 356.453 225.882 356.109C225.71 355.766 225.624 355.324 225.624 354.785V350.578H226.608V354.715C226.608 355.25 226.729 355.65 226.971 355.916C227.214 356.178 227.583 356.309 228.079 356.309C228.555 356.309 228.934 356.219 229.216 356.039C229.501 355.859 229.706 355.596 229.831 355.248C229.956 354.896 230.018 354.467 230.018 353.959V350.578H230.997ZM234.432 357H233.454V347.883H234.432V357ZM239.609 351.369L239.539 351.24C239.609 350.955 239.699 350.65 239.808 350.326C239.918 349.998 240.037 349.672 240.166 349.348C240.295 349.02 240.423 348.715 240.552 348.434H241.267C241.189 348.734 241.109 349.059 241.027 349.406C240.949 349.754 240.877 350.1 240.81 350.443C240.744 350.783 240.689 351.092 240.646 351.369H239.609ZM248.025 357H242.411V356.186L244.702 353.859C245.128 353.43 245.486 353.047 245.775 352.711C246.068 352.375 246.29 352.045 246.443 351.721C246.595 351.393 246.671 351.033 246.671 350.643C246.671 350.158 246.527 349.789 246.237 349.535C245.952 349.277 245.575 349.148 245.107 349.148C244.696 349.148 244.333 349.219 244.017 349.359C243.7 349.5 243.376 349.699 243.044 349.957L242.523 349.301C242.749 349.109 242.995 348.939 243.261 348.791C243.53 348.643 243.818 348.525 244.122 348.439C244.431 348.354 244.759 348.311 245.107 348.311C245.634 348.311 246.089 348.402 246.472 348.586C246.855 348.77 247.15 349.031 247.357 349.371C247.568 349.711 247.673 350.115 247.673 350.584C247.673 351.037 247.583 351.459 247.404 351.85C247.224 352.236 246.972 352.621 246.648 353.004C246.323 353.383 245.945 353.785 245.511 354.211L243.648 356.068V356.109H248.025V357ZM255.292 357H249.679V356.186L251.97 353.859C252.395 353.43 252.753 353.047 253.042 352.711C253.335 352.375 253.557 352.045 253.71 351.721C253.862 351.393 253.938 351.033 253.938 350.643C253.938 350.158 253.794 349.789 253.505 349.535C253.22 349.277 252.843 349.148 252.374 349.148C251.964 349.148 251.6 349.219 251.284 349.359C250.968 349.5 250.643 349.699 250.311 349.957L249.79 349.301C250.016 349.109 250.262 348.939 250.528 348.791C250.798 348.643 251.085 348.525 251.389 348.439C251.698 348.354 252.026 348.311 252.374 348.311C252.901 348.311 253.356 348.402 253.739 348.586C254.122 348.77 254.417 349.031 254.624 349.371C254.835 349.711 254.94 350.115 254.94 350.584C254.94 351.037 254.85 351.459 254.671 351.85C254.491 352.236 254.239 352.621 253.915 353.004C253.591 353.383 253.212 353.785 252.778 354.211L250.915 356.068V356.109H255.292V357Z" fill="white"/>
<path d="M285.665 357L284.611 354.281H281.177L280.128 357H279.12L282.472 348.398H283.368L286.696 357H285.665ZM284.312 353.396L283.31 350.695C283.286 350.625 283.247 350.51 283.193 350.35C283.142 350.189 283.089 350.023 283.034 349.852C282.98 349.68 282.935 349.541 282.9 349.436C282.861 349.596 282.818 349.756 282.771 349.916C282.728 350.072 282.685 350.219 282.642 350.355C282.599 350.488 282.562 350.602 282.53 350.695L281.511 353.396H284.312ZM293.442 350.578V357H292.645L292.505 356.098H292.452C292.319 356.32 292.147 356.508 291.936 356.66C291.725 356.812 291.487 356.926 291.221 357C290.96 357.078 290.68 357.117 290.384 357.117C289.876 357.117 289.45 357.035 289.106 356.871C288.762 356.707 288.503 356.453 288.327 356.109C288.155 355.766 288.069 355.324 288.069 354.785V350.578H289.054V354.715C289.054 355.25 289.175 355.65 289.417 355.916C289.659 356.178 290.028 356.309 290.524 356.309C291.001 356.309 291.38 356.219 291.661 356.039C291.946 355.859 292.151 355.596 292.276 355.248C292.401 354.896 292.464 354.467 292.464 353.959V350.578H293.442ZM297.692 359.883C296.848 359.883 296.198 359.725 295.741 359.408C295.284 359.096 295.055 358.656 295.055 358.09C295.055 357.688 295.182 357.344 295.436 357.059C295.694 356.773 296.049 356.584 296.502 356.49C296.334 356.412 296.19 356.295 296.069 356.139C295.952 355.982 295.893 355.803 295.893 355.6C295.893 355.365 295.957 355.16 296.086 354.984C296.219 354.805 296.42 354.633 296.69 354.469C296.354 354.332 296.08 354.102 295.87 353.777C295.662 353.449 295.559 353.068 295.559 352.635C295.559 352.174 295.655 351.781 295.846 351.457C296.037 351.129 296.315 350.879 296.678 350.707C297.041 350.535 297.481 350.449 297.996 350.449C298.11 350.449 298.223 350.455 298.336 350.467C298.454 350.475 298.565 350.488 298.67 350.508C298.776 350.523 298.868 350.543 298.946 350.566H301.149V351.193L299.965 351.34C300.082 351.492 300.18 351.676 300.258 351.891C300.336 352.105 300.375 352.344 300.375 352.605C300.375 353.246 300.159 353.756 299.725 354.135C299.291 354.51 298.696 354.697 297.938 354.697C297.758 354.697 297.575 354.682 297.387 354.65C297.196 354.756 297.049 354.873 296.948 355.002C296.85 355.131 296.801 355.279 296.801 355.447C296.801 355.572 296.838 355.672 296.912 355.746C296.991 355.82 297.102 355.875 297.246 355.91C297.391 355.941 297.565 355.957 297.768 355.957H298.899C299.598 355.957 300.133 356.104 300.504 356.396C300.879 356.689 301.067 357.117 301.067 357.68C301.067 358.391 300.778 358.936 300.2 359.314C299.621 359.693 298.786 359.883 297.692 359.883ZM297.721 359.121C298.252 359.121 298.692 359.066 299.039 358.957C299.391 358.852 299.653 358.697 299.825 358.494C300 358.295 300.088 358.057 300.088 357.779C300.088 357.521 300.03 357.326 299.912 357.193C299.795 357.064 299.623 356.979 299.397 356.936C299.17 356.889 298.893 356.865 298.565 356.865H297.452C297.162 356.865 296.911 356.91 296.696 357C296.481 357.09 296.315 357.223 296.198 357.398C296.084 357.574 296.028 357.793 296.028 358.055C296.028 358.402 296.174 358.666 296.467 358.846C296.76 359.029 297.178 359.121 297.721 359.121ZM297.973 353.988C298.438 353.988 298.787 353.871 299.022 353.637C299.256 353.402 299.373 353.061 299.373 352.611C299.373 352.131 299.254 351.771 299.016 351.533C298.778 351.291 298.426 351.17 297.961 351.17C297.516 351.17 297.172 351.295 296.93 351.545C296.692 351.791 296.573 352.152 296.573 352.629C296.573 353.066 296.694 353.402 296.936 353.637C297.178 353.871 297.524 353.988 297.973 353.988ZM305.535 351.369L305.464 351.24C305.535 350.955 305.625 350.65 305.734 350.326C305.843 349.998 305.962 349.672 306.091 349.348C306.22 349.02 306.349 348.715 306.478 348.434H307.193C307.115 348.734 307.035 349.059 306.953 349.406C306.875 349.754 306.802 350.1 306.736 350.443C306.67 350.783 306.615 351.092 306.572 351.369H305.535ZM313.95 357H308.337V356.186L310.628 353.859C311.054 353.43 311.411 353.047 311.7 352.711C311.993 352.375 312.216 352.045 312.368 351.721C312.521 351.393 312.597 351.033 312.597 350.643C312.597 350.158 312.452 349.789 312.163 349.535C311.878 349.277 311.501 349.148 311.032 349.148C310.622 349.148 310.259 349.219 309.943 349.359C309.626 349.5 309.302 349.699 308.97 349.957L308.448 349.301C308.675 349.109 308.921 348.939 309.187 348.791C309.456 348.643 309.743 348.525 310.048 348.439C310.357 348.354 310.685 348.311 311.032 348.311C311.56 348.311 312.015 348.402 312.398 348.586C312.78 348.77 313.075 349.031 313.282 349.371C313.493 349.711 313.599 350.115 313.599 350.584C313.599 351.037 313.509 351.459 313.329 351.85C313.15 352.236 312.898 352.621 312.573 353.004C312.249 353.383 311.87 353.785 311.437 354.211L309.573 356.068V356.109H313.95V357ZM321.218 357H315.604V356.186L317.895 353.859C318.321 353.43 318.679 353.047 318.968 352.711C319.261 352.375 319.483 352.045 319.636 351.721C319.788 351.393 319.864 351.033 319.864 350.643C319.864 350.158 319.72 349.789 319.43 349.535C319.145 349.277 318.768 349.148 318.3 349.148C317.889 349.148 317.526 349.219 317.21 349.359C316.893 349.5 316.569 349.699 316.237 349.957L315.716 349.301C315.942 349.109 316.188 348.939 316.454 348.791C316.723 348.643 317.011 348.525 317.315 348.439C317.624 348.354 317.952 348.311 318.3 348.311C318.827 348.311 319.282 348.402 319.665 348.586C320.048 348.77 320.343 349.031 320.55 349.371C320.761 349.711 320.866 350.115 320.866 350.584C320.866 351.037 320.776 351.459 320.596 351.85C320.417 352.236 320.165 352.621 319.841 353.004C319.516 353.383 319.138 353.785 318.704 354.211L316.841 356.068V356.109H321.218V357Z" fill="white"/>
<path d="M353.025 354.721C353.025 355.229 352.898 355.662 352.644 356.021C352.394 356.377 352.042 356.648 351.589 356.836C351.136 357.023 350.603 357.117 349.989 357.117C349.665 357.117 349.359 357.102 349.07 357.07C348.78 357.039 348.515 356.994 348.273 356.936C348.03 356.877 347.818 356.805 347.634 356.719V355.764C347.927 355.885 348.284 355.998 348.706 356.104C349.128 356.205 349.57 356.256 350.03 356.256C350.46 356.256 350.823 356.199 351.12 356.086C351.417 355.969 351.642 355.803 351.794 355.588C351.95 355.369 352.029 355.107 352.029 354.803C352.029 354.51 351.964 354.266 351.835 354.07C351.706 353.871 351.491 353.691 351.191 353.531C350.894 353.367 350.487 353.193 349.972 353.01C349.609 352.881 349.288 352.74 349.011 352.588C348.734 352.432 348.501 352.256 348.314 352.061C348.126 351.865 347.984 351.639 347.886 351.381C347.792 351.123 347.745 350.828 347.745 350.496C347.745 350.039 347.861 349.648 348.091 349.324C348.325 348.996 348.648 348.746 349.058 348.574C349.472 348.398 349.946 348.311 350.482 348.311C350.939 348.311 351.361 348.354 351.747 348.439C352.138 348.525 352.495 348.641 352.82 348.785L352.509 349.641C352.2 349.512 351.872 349.404 351.525 349.318C351.181 349.232 350.825 349.189 350.458 349.189C350.091 349.189 349.78 349.244 349.527 349.354C349.277 349.459 349.085 349.609 348.952 349.805C348.82 350 348.753 350.232 348.753 350.502C348.753 350.803 348.816 351.053 348.941 351.252C349.07 351.451 349.273 351.629 349.55 351.785C349.831 351.938 350.202 352.098 350.663 352.266C351.167 352.449 351.595 352.645 351.946 352.852C352.298 353.055 352.566 353.305 352.749 353.602C352.933 353.895 353.025 354.268 353.025 354.721ZM357.503 350.461C358.05 350.461 358.518 350.582 358.909 350.824C359.3 351.066 359.598 351.406 359.805 351.844C360.012 352.277 360.116 352.785 360.116 353.367V353.971H355.68C355.692 354.725 355.88 355.299 356.243 355.693C356.606 356.088 357.118 356.285 357.778 356.285C358.184 356.285 358.544 356.248 358.856 356.174C359.169 356.1 359.493 355.99 359.829 355.846V356.701C359.505 356.846 359.182 356.951 358.862 357.018C358.546 357.084 358.171 357.117 357.737 357.117C357.12 357.117 356.581 356.992 356.12 356.742C355.663 356.488 355.307 356.117 355.054 355.629C354.8 355.141 354.673 354.543 354.673 353.836C354.673 353.145 354.788 352.547 355.018 352.043C355.253 351.535 355.581 351.145 356.003 350.871C356.429 350.598 356.929 350.461 357.503 350.461ZM357.491 351.258C356.971 351.258 356.557 351.428 356.249 351.768C355.94 352.107 355.757 352.582 355.698 353.191H359.096C359.093 352.809 359.032 352.473 358.915 352.184C358.802 351.891 358.628 351.664 358.393 351.504C358.159 351.34 357.858 351.258 357.491 351.258ZM365.186 350.461C365.987 350.461 366.625 350.736 367.102 351.287C367.579 351.838 367.817 352.666 367.817 353.771C367.817 354.502 367.707 355.115 367.489 355.611C367.27 356.107 366.961 356.482 366.563 356.736C366.168 356.99 365.702 357.117 365.162 357.117C364.823 357.117 364.524 357.072 364.266 356.982C364.008 356.893 363.787 356.771 363.604 356.619C363.42 356.467 363.268 356.301 363.147 356.121H363.077C363.088 356.273 363.102 356.457 363.118 356.672C363.137 356.887 363.147 357.074 363.147 357.234V359.871H362.168V350.578H362.971L363.1 351.527H363.147C363.272 351.332 363.424 351.154 363.604 350.994C363.784 350.83 364.002 350.701 364.26 350.607C364.522 350.51 364.83 350.461 365.186 350.461ZM365.016 351.281C364.571 351.281 364.211 351.367 363.938 351.539C363.668 351.711 363.471 351.969 363.346 352.312C363.221 352.652 363.155 353.08 363.147 353.596V353.783C363.147 354.326 363.205 354.785 363.323 355.16C363.444 355.535 363.641 355.82 363.914 356.016C364.192 356.211 364.563 356.309 365.028 356.309C365.426 356.309 365.758 356.201 366.024 355.986C366.289 355.771 366.487 355.473 366.616 355.09C366.748 354.703 366.815 354.26 366.815 353.76C366.815 353.002 366.666 352.4 366.37 351.955C366.077 351.506 365.625 351.281 365.016 351.281ZM372.636 351.369L372.566 351.24C372.636 350.955 372.726 350.65 372.836 350.326C372.945 349.998 373.064 349.672 373.193 349.348C373.322 349.02 373.451 348.715 373.58 348.434H374.295C374.216 348.734 374.136 349.059 374.054 349.406C373.976 349.754 373.904 350.1 373.837 350.443C373.771 350.783 373.716 351.092 373.673 351.369H372.636ZM381.052 357H375.439V356.186L377.73 353.859C378.155 353.43 378.513 353.047 378.802 352.711C379.095 352.375 379.318 352.045 379.47 351.721C379.622 351.393 379.698 351.033 379.698 350.643C379.698 350.158 379.554 349.789 379.265 349.535C378.98 349.277 378.603 349.148 378.134 349.148C377.724 349.148 377.361 349.219 377.044 349.359C376.728 349.5 376.404 349.699 376.071 349.957L375.55 349.301C375.777 349.109 376.023 348.939 376.288 348.791C376.558 348.643 376.845 348.525 377.15 348.439C377.458 348.354 377.786 348.311 378.134 348.311C378.661 348.311 379.116 348.402 379.499 348.586C379.882 348.77 380.177 349.031 380.384 349.371C380.595 349.711 380.7 350.115 380.7 350.584C380.7 351.037 380.611 351.459 380.431 351.85C380.251 352.236 379.999 352.621 379.675 353.004C379.351 353.383 378.972 353.785 378.538 354.211L376.675 356.068V356.109H381.052V357ZM388.319 357H382.706V356.186L384.997 353.859C385.423 353.43 385.78 353.047 386.069 352.711C386.362 352.375 386.585 352.045 386.737 351.721C386.889 351.393 386.966 351.033 386.966 350.643C386.966 350.158 386.821 349.789 386.532 349.535C386.247 349.277 385.87 349.148 385.401 349.148C384.991 349.148 384.628 349.219 384.311 349.359C383.995 349.5 383.671 349.699 383.339 349.957L382.817 349.301C383.044 349.109 383.29 348.939 383.555 348.791C383.825 348.643 384.112 348.525 384.417 348.439C384.725 348.354 385.054 348.311 385.401 348.311C385.929 348.311 386.384 348.402 386.766 348.586C387.149 348.77 387.444 349.031 387.651 349.371C387.862 349.711 387.968 350.115 387.968 350.584C387.968 351.037 387.878 351.459 387.698 351.85C387.518 352.236 387.266 352.621 386.942 353.004C386.618 353.383 386.239 353.785 385.805 354.211L383.942 356.068V356.109H388.319V357Z" fill="white"/>
<path d="M428.771 352.705C428.771 353.365 428.687 353.967 428.519 354.51C428.351 355.049 428.101 355.514 427.769 355.904C427.441 356.291 427.032 356.59 426.544 356.801C426.056 357.012 425.489 357.117 424.845 357.117C424.181 357.117 423.601 357.012 423.105 356.801C422.612 356.59 422.202 356.289 421.874 355.898C421.55 355.508 421.306 355.041 421.142 354.498C420.982 353.955 420.902 353.354 420.902 352.693C420.902 351.818 421.046 351.051 421.335 350.391C421.624 349.73 422.062 349.217 422.648 348.85C423.237 348.482 423.976 348.299 424.862 348.299C425.71 348.299 426.423 348.48 427.001 348.844C427.583 349.207 428.023 349.719 428.32 350.379C428.62 351.035 428.771 351.811 428.771 352.705ZM421.95 352.705C421.95 353.432 422.054 354.061 422.261 354.592C422.468 355.123 422.784 355.533 423.21 355.822C423.64 356.111 424.185 356.256 424.845 356.256C425.509 356.256 426.052 356.111 426.474 355.822C426.9 355.533 427.214 355.123 427.417 354.592C427.62 354.061 427.722 353.432 427.722 352.705C427.722 351.6 427.489 350.736 427.025 350.115C426.564 349.49 425.843 349.178 424.862 349.178C424.198 349.178 423.652 349.32 423.222 349.605C422.792 349.891 422.472 350.297 422.261 350.824C422.054 351.348 421.95 351.975 421.95 352.705ZM433.507 357.117C432.929 357.117 432.419 356.998 431.977 356.76C431.536 356.521 431.192 356.158 430.946 355.67C430.7 355.182 430.577 354.566 430.577 353.824C430.577 353.047 430.706 352.412 430.964 351.92C431.225 351.424 431.585 351.057 432.042 350.818C432.499 350.58 433.018 350.461 433.6 350.461C433.921 350.461 434.229 350.494 434.526 350.561C434.827 350.623 435.073 350.703 435.264 350.801L434.971 351.615C434.776 351.537 434.55 351.467 434.292 351.404C434.038 351.342 433.8 351.311 433.577 351.311C433.132 351.311 432.761 351.406 432.464 351.598C432.171 351.789 431.95 352.07 431.802 352.441C431.657 352.812 431.585 353.27 431.585 353.812C431.585 354.332 431.655 354.775 431.796 355.143C431.94 355.51 432.153 355.791 432.434 355.986C432.72 356.178 433.075 356.273 433.501 356.273C433.841 356.273 434.147 356.238 434.421 356.168C434.694 356.094 434.942 356.008 435.165 355.91V356.777C434.95 356.887 434.71 356.971 434.444 357.029C434.182 357.088 433.87 357.117 433.507 357.117ZM439.162 356.32C439.323 356.32 439.487 356.307 439.655 356.279C439.823 356.252 439.959 356.219 440.065 356.18V356.936C439.952 356.986 439.793 357.029 439.59 357.064C439.391 357.1 439.196 357.117 439.004 357.117C438.664 357.117 438.356 357.059 438.079 356.941C437.801 356.82 437.579 356.617 437.411 356.332C437.246 356.047 437.164 355.652 437.164 355.148V351.34H436.25V350.865L437.17 350.484L437.557 349.09H438.143V350.578H440.024V351.34H438.143V355.119C438.143 355.521 438.235 355.822 438.418 356.021C438.606 356.221 438.854 356.32 439.162 356.32ZM444.486 351.369L444.416 351.24C444.486 350.955 444.576 350.65 444.685 350.326C444.795 349.998 444.914 349.672 445.043 349.348C445.171 349.02 445.3 348.715 445.429 348.434H446.144C446.066 348.734 445.986 349.059 445.904 349.406C445.826 349.754 445.754 350.1 445.687 350.443C445.621 350.783 445.566 351.092 445.523 351.369H444.486ZM452.902 357H447.288V356.186L449.579 353.859C450.005 353.43 450.362 353.047 450.652 352.711C450.945 352.375 451.167 352.045 451.32 351.721C451.472 351.393 451.548 351.033 451.548 350.643C451.548 350.158 451.404 349.789 451.114 349.535C450.829 349.277 450.452 349.148 449.984 349.148C449.573 349.148 449.21 349.219 448.894 349.359C448.577 349.5 448.253 349.699 447.921 349.957L447.4 349.301C447.626 349.109 447.872 348.939 448.138 348.791C448.407 348.643 448.695 348.525 448.999 348.439C449.308 348.354 449.636 348.311 449.984 348.311C450.511 348.311 450.966 348.402 451.349 348.586C451.732 348.77 452.027 349.031 452.234 349.371C452.445 349.711 452.55 350.115 452.55 350.584C452.55 351.037 452.46 351.459 452.28 351.85C452.101 352.236 451.849 352.621 451.525 353.004C451.2 353.383 450.821 353.785 450.388 354.211L448.525 356.068V356.109H452.902V357ZM460.169 357H454.555V356.186L456.846 353.859C457.272 353.43 457.63 353.047 457.919 352.711C458.212 352.375 458.434 352.045 458.587 351.721C458.739 351.393 458.815 351.033 458.815 350.643C458.815 350.158 458.671 349.789 458.382 349.535C458.096 349.277 457.72 349.148 457.251 349.148C456.841 349.148 456.477 349.219 456.161 349.359C455.845 349.5 455.52 349.699 455.188 349.957L454.667 349.301C454.893 349.109 455.139 348.939 455.405 348.791C455.675 348.643 455.962 348.525 456.266 348.439C456.575 348.354 456.903 348.311 457.251 348.311C457.778 348.311 458.233 348.402 458.616 348.586C458.999 348.77 459.294 349.031 459.501 349.371C459.712 349.711 459.817 350.115 459.817 350.584C459.817 351.037 459.727 351.459 459.548 351.85C459.368 352.236 459.116 352.621 458.792 353.004C458.468 353.383 458.089 353.785 457.655 354.211L455.792 356.068V356.109H460.169V357Z" fill="white"/>
<path d="M494.097 357H492.948L488.279 349.805H488.232C488.243 349.996 488.257 350.215 488.273 350.461C488.288 350.703 488.3 350.963 488.308 351.24C488.32 351.514 488.325 351.793 488.325 352.078V357H487.4V348.434H488.542L493.195 355.605H493.236C493.228 355.469 493.218 355.275 493.206 355.025C493.195 354.771 493.183 354.5 493.171 354.211C493.163 353.918 493.159 353.646 493.159 353.396V348.434H494.097V357ZM502.225 353.777C502.225 354.305 502.157 354.775 502.02 355.189C501.884 355.604 501.686 355.953 501.429 356.238C501.171 356.523 500.858 356.742 500.491 356.895C500.128 357.043 499.716 357.117 499.255 357.117C498.825 357.117 498.43 357.043 498.071 356.895C497.716 356.742 497.407 356.523 497.145 356.238C496.887 355.953 496.686 355.604 496.542 355.189C496.401 354.775 496.331 354.305 496.331 353.777C496.331 353.074 496.45 352.477 496.688 351.984C496.927 351.488 497.266 351.111 497.708 350.854C498.153 350.592 498.682 350.461 499.296 350.461C499.882 350.461 500.393 350.592 500.831 350.854C501.272 351.115 501.614 351.494 501.856 351.99C502.102 352.482 502.225 353.078 502.225 353.777ZM497.339 353.777C497.339 354.293 497.407 354.74 497.544 355.119C497.68 355.498 497.891 355.791 498.177 355.998C498.462 356.205 498.829 356.309 499.278 356.309C499.723 356.309 500.089 356.205 500.374 355.998C500.663 355.791 500.876 355.498 501.012 355.119C501.149 354.74 501.218 354.293 501.218 353.777C501.218 353.266 501.149 352.824 501.012 352.453C500.876 352.078 500.665 351.789 500.38 351.586C500.095 351.383 499.725 351.281 499.272 351.281C498.604 351.281 498.114 351.502 497.802 351.943C497.493 352.385 497.339 352.996 497.339 353.777ZM505.719 357L503.282 350.578H504.325L505.737 354.463C505.834 354.729 505.934 355.021 506.036 355.342C506.137 355.662 506.207 355.92 506.246 356.115H506.287C506.334 355.92 506.412 355.662 506.522 355.342C506.631 355.018 506.731 354.725 506.821 354.463L508.233 350.578H509.276L506.832 357H505.719ZM513.427 351.369L513.357 351.24C513.427 350.955 513.517 350.65 513.627 350.326C513.736 349.998 513.855 349.672 513.984 349.348C514.113 349.02 514.242 348.715 514.371 348.434H515.086C515.007 348.734 514.927 349.059 514.845 349.406C514.767 349.754 514.695 350.1 514.629 350.443C514.562 350.783 514.507 351.092 514.464 351.369H513.427ZM521.843 357H516.23V356.186L518.521 353.859C518.946 353.43 519.304 353.047 519.593 352.711C519.886 352.375 520.109 352.045 520.261 351.721C520.413 351.393 520.489 351.033 520.489 350.643C520.489 350.158 520.345 349.789 520.056 349.535C519.771 349.277 519.394 349.148 518.925 349.148C518.515 349.148 518.152 349.219 517.835 349.359C517.519 349.5 517.195 349.699 516.862 349.957L516.341 349.301C516.568 349.109 516.814 348.939 517.079 348.791C517.349 348.643 517.636 348.525 517.941 348.439C518.249 348.354 518.577 348.311 518.925 348.311C519.452 348.311 519.907 348.402 520.29 348.586C520.673 348.77 520.968 349.031 521.175 349.371C521.386 349.711 521.491 350.115 521.491 350.584C521.491 351.037 521.402 351.459 521.222 351.85C521.042 352.236 520.79 352.621 520.466 353.004C520.142 353.383 519.763 353.785 519.329 354.211L517.466 356.068V356.109H521.843V357ZM529.11 357H523.497V356.186L525.788 353.859C526.214 353.43 526.571 353.047 526.86 352.711C527.153 352.375 527.376 352.045 527.528 351.721C527.68 351.393 527.757 351.033 527.757 350.643C527.757 350.158 527.612 349.789 527.323 349.535C527.038 349.277 526.661 349.148 526.192 349.148C525.782 349.148 525.419 349.219 525.102 349.359C524.786 349.5 524.462 349.699 524.13 349.957L523.608 349.301C523.835 349.109 524.081 348.939 524.346 348.791C524.616 348.643 524.903 348.525 525.208 348.439C525.516 348.354 525.845 348.311 526.192 348.311C526.72 348.311 527.175 348.402 527.557 348.586C527.94 348.77 528.235 349.031 528.442 349.371C528.653 349.711 528.759 350.115 528.759 350.584C528.759 351.037 528.669 351.459 528.489 351.85C528.309 352.236 528.057 352.621 527.733 353.004C527.409 353.383 527.03 353.785 526.596 354.211L524.733 356.068V356.109H529.11V357Z" fill="white"/>
<path d="M562.23 352.635C562.23 353.6 562.054 354.406 561.702 355.055C561.351 355.699 560.841 356.186 560.173 356.514C559.509 356.838 558.702 357 557.753 357H555.427V348.434H558.011C558.882 348.434 559.632 348.594 560.261 348.914C560.89 349.23 561.374 349.701 561.714 350.326C562.058 350.947 562.23 351.717 562.23 352.635ZM561.181 352.67C561.181 351.9 561.052 351.266 560.794 350.766C560.54 350.266 560.165 349.895 559.669 349.652C559.177 349.406 558.573 349.283 557.859 349.283H556.423V356.145H557.636C558.816 356.145 559.7 355.854 560.29 355.271C560.884 354.689 561.181 353.822 561.181 352.67ZM566.86 350.461C567.407 350.461 567.876 350.582 568.266 350.824C568.657 351.066 568.956 351.406 569.163 351.844C569.37 352.277 569.473 352.785 569.473 353.367V353.971H565.038C565.05 354.725 565.237 355.299 565.6 355.693C565.964 356.088 566.475 356.285 567.136 356.285C567.542 356.285 567.901 356.248 568.214 356.174C568.526 356.1 568.85 355.99 569.186 355.846V356.701C568.862 356.846 568.54 356.951 568.22 357.018C567.903 357.084 567.528 357.117 567.095 357.117C566.477 357.117 565.938 356.992 565.477 356.742C565.02 356.488 564.665 356.117 564.411 355.629C564.157 355.141 564.03 354.543 564.03 353.836C564.03 353.145 564.145 352.547 564.376 352.043C564.61 351.535 564.938 351.145 565.36 350.871C565.786 350.598 566.286 350.461 566.86 350.461ZM566.848 351.258C566.329 351.258 565.915 351.428 565.606 351.768C565.298 352.107 565.114 352.582 565.055 353.191H568.454C568.45 352.809 568.389 352.473 568.272 352.184C568.159 351.891 567.985 351.664 567.751 351.504C567.516 351.34 567.216 351.258 566.848 351.258ZM574.098 357.117C573.52 357.117 573.01 356.998 572.569 356.76C572.127 356.521 571.784 356.158 571.537 355.67C571.291 355.182 571.168 354.566 571.168 353.824C571.168 353.047 571.297 352.412 571.555 351.92C571.817 351.424 572.176 351.057 572.633 350.818C573.09 350.58 573.61 350.461 574.192 350.461C574.512 350.461 574.821 350.494 575.118 350.561C575.418 350.623 575.664 350.703 575.856 350.801L575.563 351.615C575.368 351.537 575.141 351.467 574.883 351.404C574.629 351.342 574.391 351.311 574.168 351.311C573.723 351.311 573.352 351.406 573.055 351.598C572.762 351.789 572.541 352.07 572.393 352.441C572.248 352.812 572.176 353.27 572.176 353.812C572.176 354.332 572.246 354.775 572.387 355.143C572.532 355.51 572.745 355.791 573.026 355.986C573.311 356.178 573.666 356.273 574.092 356.273C574.432 356.273 574.739 356.238 575.012 356.168C575.286 356.094 575.534 356.008 575.756 355.91V356.777C575.541 356.887 575.301 356.971 575.036 357.029C574.774 357.088 574.461 357.117 574.098 357.117ZM580.4 351.369L580.33 351.24C580.4 350.955 580.49 350.65 580.599 350.326C580.709 349.998 580.828 349.672 580.957 349.348C581.086 349.02 581.214 348.715 581.343 348.434H582.058C581.98 348.734 581.9 349.059 581.818 349.406C581.74 349.754 581.668 350.1 581.601 350.443C581.535 350.783 581.48 351.092 581.437 351.369H580.4ZM588.816 357H583.202V356.186L585.493 353.859C585.919 353.43 586.277 353.047 586.566 352.711C586.859 352.375 587.081 352.045 587.234 351.721C587.386 351.393 587.462 351.033 587.462 350.643C587.462 350.158 587.318 349.789 587.029 349.535C586.743 349.277 586.366 349.148 585.898 349.148C585.487 349.148 585.124 349.219 584.808 349.359C584.491 349.5 584.167 349.699 583.835 349.957L583.314 349.301C583.54 349.109 583.786 348.939 584.052 348.791C584.321 348.643 584.609 348.525 584.913 348.439C585.222 348.354 585.55 348.311 585.898 348.311C586.425 348.311 586.88 348.402 587.263 348.586C587.646 348.77 587.941 349.031 588.148 349.371C588.359 349.711 588.464 350.115 588.464 350.584C588.464 351.037 588.374 351.459 588.195 351.85C588.015 352.236 587.763 352.621 587.439 353.004C587.114 353.383 586.736 353.785 586.302 354.211L584.439 356.068V356.109H588.816V357ZM596.083 357H590.47V356.186L592.761 353.859C593.186 353.43 593.544 353.047 593.833 352.711C594.126 352.375 594.348 352.045 594.501 351.721C594.653 351.393 594.729 351.033 594.729 350.643C594.729 350.158 594.585 349.789 594.296 349.535C594.011 349.277 593.634 349.148 593.165 349.148C592.755 349.148 592.391 349.219 592.075 349.359C591.759 349.5 591.434 349.699 591.102 349.957L590.581 349.301C590.807 349.109 591.054 348.939 591.319 348.791C591.589 348.643 591.876 348.525 592.18 348.439C592.489 348.354 592.817 348.311 593.165 348.311C593.692 348.311 594.147 348.402 594.53 348.586C594.913 348.77 595.208 349.031 595.415 349.371C595.626 349.711 595.731 350.115 595.731 350.584C595.731 351.037 595.641 351.459 595.462 351.85C595.282 352.236 595.03 352.621 594.706 353.004C594.382 353.383 594.003 353.785 593.569 354.211L591.706 356.068V356.109H596.083V357Z" fill="white"/>
<path d="M617.165 359.256C616.97 359.256 616.798 359.242 616.65 359.215C616.501 359.188 616.374 359.15 616.269 359.104V358.254C616.394 358.293 616.529 358.322 616.673 358.342C616.818 358.365 616.974 358.377 617.142 358.377C617.361 358.377 617.562 358.334 617.745 358.248C617.929 358.162 618.075 358.016 618.185 357.809C618.294 357.602 618.349 357.316 618.349 356.953V348.434H619.351V356.877C619.351 357.412 619.261 357.855 619.081 358.207C618.905 358.559 618.654 358.82 618.325 358.992C618.001 359.168 617.614 359.256 617.165 359.256ZM624.28 350.473C625.046 350.473 625.614 350.645 625.985 350.988C626.356 351.332 626.542 351.881 626.542 352.635V357H625.833L625.645 356.051H625.598C625.419 356.285 625.231 356.482 625.036 356.643C624.841 356.799 624.614 356.918 624.356 357C624.102 357.078 623.79 357.117 623.419 357.117C623.028 357.117 622.68 357.049 622.376 356.912C622.075 356.775 621.837 356.568 621.661 356.291C621.489 356.014 621.403 355.662 621.403 355.236C621.403 354.596 621.657 354.104 622.165 353.76C622.673 353.416 623.446 353.229 624.485 353.197L625.593 353.15V352.758C625.593 352.203 625.473 351.814 625.235 351.592C624.997 351.369 624.661 351.258 624.227 351.258C623.891 351.258 623.571 351.307 623.266 351.404C622.962 351.502 622.673 351.617 622.399 351.75L622.1 351.012C622.389 350.863 622.721 350.736 623.096 350.631C623.471 350.525 623.866 350.473 624.28 350.473ZM625.581 353.836L624.602 353.877C623.802 353.908 623.237 354.039 622.909 354.27C622.581 354.5 622.417 354.826 622.417 355.248C622.417 355.615 622.528 355.887 622.751 356.062C622.973 356.238 623.268 356.326 623.636 356.326C624.206 356.326 624.673 356.168 625.036 355.852C625.399 355.535 625.581 355.061 625.581 354.428V353.836ZM631.987 350.461C632.748 350.461 633.325 350.648 633.715 351.023C634.106 351.395 634.301 351.992 634.301 352.816V357H633.34V352.881C633.34 352.346 633.217 351.945 632.971 351.68C632.729 351.414 632.356 351.281 631.852 351.281C631.141 351.281 630.641 351.482 630.352 351.885C630.063 352.287 629.918 352.871 629.918 353.637V357H628.946V350.578H629.731L629.877 351.504H629.93C630.067 351.277 630.241 351.088 630.452 350.936C630.662 350.779 630.899 350.662 631.161 350.584C631.422 350.502 631.698 350.461 631.987 350.461ZM639.425 351.369L639.355 351.24C639.425 350.955 639.515 350.65 639.625 350.326C639.734 349.998 639.853 349.672 639.982 349.348C640.111 349.02 640.24 348.715 640.369 348.434H641.084C641.005 348.734 640.925 349.059 640.843 349.406C640.765 349.754 640.693 350.1 640.627 350.443C640.56 350.783 640.505 351.092 640.462 351.369H639.425ZM647.841 357H642.228V356.186L644.519 353.859C644.945 353.43 645.302 353.047 645.591 352.711C645.884 352.375 646.107 352.045 646.259 351.721C646.411 351.393 646.487 351.033 646.487 350.643C646.487 350.158 646.343 349.789 646.054 349.535C645.769 349.277 645.392 349.148 644.923 349.148C644.513 349.148 644.15 349.219 643.833 349.359C643.517 349.5 643.193 349.699 642.861 349.957L642.339 349.301C642.566 349.109 642.812 348.939 643.077 348.791C643.347 348.643 643.634 348.525 643.939 348.439C644.247 348.354 644.575 348.311 644.923 348.311C645.45 348.311 645.905 348.402 646.288 348.586C646.671 348.77 646.966 349.031 647.173 349.371C647.384 349.711 647.489 350.115 647.489 350.584C647.489 351.037 647.4 351.459 647.22 351.85C647.04 352.236 646.788 352.621 646.464 353.004C646.14 353.383 645.761 353.785 645.327 354.211L643.464 356.068V356.109H647.841V357ZM654.792 350.432C654.792 350.814 654.718 351.146 654.569 351.428C654.421 351.709 654.214 351.939 653.948 352.119C653.682 352.295 653.37 352.418 653.011 352.488V352.535C653.69 352.621 654.2 352.84 654.54 353.191C654.884 353.543 655.055 354.004 655.055 354.574C655.055 355.07 654.938 355.51 654.704 355.893C654.473 356.275 654.118 356.576 653.637 356.795C653.161 357.01 652.55 357.117 651.804 357.117C651.35 357.117 650.93 357.08 650.544 357.006C650.161 356.936 649.794 356.816 649.442 356.648V355.734C649.798 355.91 650.184 356.049 650.602 356.15C651.02 356.248 651.425 356.297 651.815 356.297C652.596 356.297 653.161 356.143 653.509 355.834C653.856 355.521 654.03 355.096 654.03 354.557C654.03 354.186 653.932 353.887 653.737 353.66C653.546 353.43 653.268 353.262 652.905 353.156C652.546 353.047 652.112 352.992 651.604 352.992H650.749V352.16H651.61C652.075 352.16 652.47 352.092 652.794 351.955C653.118 351.818 653.364 351.627 653.532 351.381C653.704 351.131 653.79 350.836 653.79 350.496C653.79 350.062 653.645 349.729 653.356 349.494C653.067 349.256 652.675 349.137 652.179 349.137C651.874 349.137 651.596 349.168 651.346 349.23C651.096 349.293 650.862 349.379 650.643 349.488C650.425 349.598 650.206 349.725 649.987 349.869L649.495 349.201C649.807 348.959 650.188 348.75 650.637 348.574C651.087 348.398 651.596 348.311 652.167 348.311C653.042 348.311 653.698 348.51 654.136 348.908C654.573 349.307 654.792 349.814 654.792 350.432Z" fill="white"/>
<path d="M671.38 357H670.384V348.434H675.154V349.312H671.38V352.453H674.925V353.326H671.38V357ZM679.309 350.461C679.856 350.461 680.325 350.582 680.716 350.824C681.106 351.066 681.405 351.406 681.612 351.844C681.819 352.277 681.923 352.785 681.923 353.367V353.971H677.487C677.499 354.725 677.686 355.299 678.05 355.693C678.413 356.088 678.925 356.285 679.585 356.285C679.991 356.285 680.35 356.248 680.663 356.174C680.975 356.1 681.3 355.99 681.636 355.846V356.701C681.311 356.846 680.989 356.951 680.669 357.018C680.352 357.084 679.977 357.117 679.544 357.117C678.927 357.117 678.387 356.992 677.927 356.742C677.47 356.488 677.114 356.117 676.86 355.629C676.606 355.141 676.479 354.543 676.479 353.836C676.479 353.145 676.595 352.547 676.825 352.043C677.059 351.535 677.387 351.145 677.809 350.871C678.235 350.598 678.735 350.461 679.309 350.461ZM679.298 351.258C678.778 351.258 678.364 351.428 678.055 351.768C677.747 352.107 677.563 352.582 677.505 353.191H680.903C680.899 352.809 680.839 352.473 680.721 352.184C680.608 351.891 680.434 351.664 680.2 351.504C679.966 351.34 679.665 351.258 679.298 351.258ZM684.948 347.883V350.162C684.948 350.424 684.94 350.678 684.924 350.924C684.912 351.17 684.903 351.361 684.895 351.498H684.948C685.123 351.209 685.377 350.965 685.709 350.766C686.041 350.566 686.465 350.467 686.981 350.467C687.786 350.467 688.426 350.746 688.903 351.305C689.383 351.859 689.623 352.686 689.623 353.783C689.623 354.506 689.514 355.115 689.295 355.611C689.077 356.107 688.768 356.482 688.37 356.736C687.971 356.99 687.5 357.117 686.957 357.117C686.45 357.117 686.032 357.023 685.704 356.836C685.379 356.645 685.129 356.412 684.954 356.139H684.877L684.678 357H683.975V347.883H684.948ZM686.823 351.281C686.358 351.281 685.989 351.373 685.715 351.557C685.442 351.736 685.245 352.01 685.123 352.377C685.006 352.74 684.948 353.201 684.948 353.76V353.812C684.948 354.621 685.082 355.24 685.352 355.67C685.621 356.096 686.112 356.309 686.823 356.309C687.42 356.309 687.868 356.09 688.164 355.652C688.465 355.215 688.616 354.59 688.616 353.777C688.616 352.949 688.467 352.326 688.17 351.908C687.877 351.49 687.428 351.281 686.823 351.281ZM694.443 351.369L694.373 351.24C694.443 350.955 694.533 350.65 694.642 350.326C694.752 349.998 694.871 349.672 695 349.348C695.129 349.02 695.257 348.715 695.386 348.434H696.101C696.023 348.734 695.943 349.059 695.861 349.406C695.783 349.754 695.711 350.1 695.644 350.443C695.578 350.783 695.523 351.092 695.48 351.369H694.443ZM702.859 357H697.245V356.186L699.536 353.859C699.962 353.43 700.32 353.047 700.609 352.711C700.902 352.375 701.124 352.045 701.277 351.721C701.429 351.393 701.505 351.033 701.505 350.643C701.505 350.158 701.361 349.789 701.071 349.535C700.786 349.277 700.409 349.148 699.941 349.148C699.53 349.148 699.167 349.219 698.851 349.359C698.534 349.5 698.21 349.699 697.878 349.957L697.357 349.301C697.583 349.109 697.829 348.939 698.095 348.791C698.364 348.643 698.652 348.525 698.956 348.439C699.265 348.354 699.593 348.311 699.941 348.311C700.468 348.311 700.923 348.402 701.306 348.586C701.689 348.77 701.984 349.031 702.191 349.371C702.402 349.711 702.507 350.115 702.507 350.584C702.507 351.037 702.417 351.459 702.237 351.85C702.058 352.236 701.806 352.621 701.482 353.004C701.157 353.383 700.779 353.785 700.345 354.211L698.482 356.068V356.109H702.859V357ZM709.809 350.432C709.809 350.814 709.735 351.146 709.587 351.428C709.438 351.709 709.231 351.939 708.966 352.119C708.7 352.295 708.388 352.418 708.028 352.488V352.535C708.708 352.621 709.218 352.84 709.557 353.191C709.901 353.543 710.073 354.004 710.073 354.574C710.073 355.07 709.956 355.51 709.721 355.893C709.491 356.275 709.136 356.576 708.655 356.795C708.179 357.01 707.567 357.117 706.821 357.117C706.368 357.117 705.948 357.08 705.561 357.006C705.179 356.936 704.811 356.816 704.46 356.648V355.734C704.815 355.91 705.202 356.049 705.62 356.15C706.038 356.248 706.442 356.297 706.833 356.297C707.614 356.297 708.179 356.143 708.526 355.834C708.874 355.521 709.048 355.096 709.048 354.557C709.048 354.186 708.95 353.887 708.755 353.66C708.563 353.43 708.286 353.262 707.923 353.156C707.563 353.047 707.13 352.992 706.622 352.992H705.766V352.16H706.628C707.093 352.16 707.487 352.092 707.811 351.955C708.136 351.818 708.382 351.627 708.55 351.381C708.721 351.131 708.807 350.836 708.807 350.496C708.807 350.062 708.663 349.729 708.374 349.494C708.085 349.256 707.692 349.137 707.196 349.137C706.891 349.137 706.614 349.168 706.364 349.23C706.114 349.293 705.88 349.379 705.661 349.488C705.442 349.598 705.223 349.725 705.005 349.869L704.513 349.201C704.825 348.959 705.206 348.75 705.655 348.574C706.104 348.398 706.614 348.311 707.184 348.311C708.059 348.311 708.716 348.51 709.153 348.908C709.591 349.307 709.809 349.814 709.809 350.432Z" fill="white"/>
<path d="M725.109 357L722.232 349.418H722.185C722.2 349.578 722.214 349.773 722.226 350.004C722.237 350.234 722.247 350.486 722.255 350.76C722.263 351.029 722.267 351.305 722.267 351.586V357H721.341V348.434H722.818L725.53 355.559H725.571L728.325 348.434H729.79V357H728.806V351.516C728.806 351.262 728.81 351.008 728.818 350.754C728.825 350.496 728.835 350.254 728.847 350.027C728.859 349.797 728.87 349.598 728.882 349.43H728.835L725.923 357H725.109ZM734.79 350.473C735.555 350.473 736.124 350.645 736.495 350.988C736.866 351.332 737.052 351.881 737.052 352.635V357H736.343L736.155 356.051H736.108C735.929 356.285 735.741 356.482 735.546 356.643C735.35 356.799 735.124 356.918 734.866 357C734.612 357.078 734.3 357.117 733.929 357.117C733.538 357.117 733.19 357.049 732.886 356.912C732.585 356.775 732.346 356.568 732.171 356.291C731.999 356.014 731.913 355.662 731.913 355.236C731.913 354.596 732.167 354.104 732.675 353.76C733.182 353.416 733.956 353.229 734.995 353.197L736.102 353.15V352.758C736.102 352.203 735.983 351.814 735.745 351.592C735.507 351.369 735.171 351.258 734.737 351.258C734.401 351.258 734.081 351.307 733.776 351.404C733.471 351.502 733.182 351.617 732.909 351.75L732.61 351.012C732.899 350.863 733.231 350.736 733.606 350.631C733.981 350.525 734.376 350.473 734.79 350.473ZM736.091 353.836L735.112 353.877C734.311 353.908 733.747 354.039 733.419 354.27C733.091 354.5 732.927 354.826 732.927 355.248C732.927 355.615 733.038 355.887 733.261 356.062C733.483 356.238 733.778 356.326 734.145 356.326C734.716 356.326 735.182 356.168 735.546 355.852C735.909 355.535 736.091 355.061 736.091 354.428V353.836ZM742.373 350.461C742.502 350.461 742.637 350.469 742.778 350.484C742.918 350.496 743.043 350.514 743.153 350.537L743.03 351.439C742.924 351.412 742.807 351.391 742.678 351.375C742.549 351.359 742.428 351.352 742.315 351.352C742.057 351.352 741.813 351.404 741.582 351.51C741.356 351.611 741.157 351.76 740.985 351.955C740.813 352.146 740.678 352.379 740.58 352.652C740.483 352.922 740.434 353.223 740.434 353.555V357H739.455V350.578H740.264L740.37 351.762H740.411C740.543 351.523 740.704 351.307 740.891 351.111C741.079 350.912 741.295 350.754 741.541 350.637C741.791 350.52 742.069 350.461 742.373 350.461ZM747.486 351.369L747.416 351.24C747.486 350.955 747.576 350.65 747.685 350.326C747.795 349.998 747.914 349.672 748.043 349.348C748.171 349.02 748.3 348.715 748.429 348.434H749.144C749.066 348.734 748.986 349.059 748.904 349.406C748.826 349.754 748.754 350.1 748.687 350.443C748.621 350.783 748.566 351.092 748.523 351.369H747.486ZM755.902 357H750.288V356.186L752.579 353.859C753.005 353.43 753.362 353.047 753.652 352.711C753.945 352.375 754.167 352.045 754.32 351.721C754.472 351.393 754.548 351.033 754.548 350.643C754.548 350.158 754.404 349.789 754.114 349.535C753.829 349.277 753.452 349.148 752.984 349.148C752.573 349.148 752.21 349.219 751.894 349.359C751.577 349.5 751.253 349.699 750.921 349.957L750.4 349.301C750.626 349.109 750.872 348.939 751.138 348.791C751.407 348.643 751.695 348.525 751.999 348.439C752.308 348.354 752.636 348.311 752.984 348.311C753.511 348.311 753.966 348.402 754.349 348.586C754.732 348.77 755.027 349.031 755.234 349.371C755.445 349.711 755.55 350.115 755.55 350.584C755.55 351.037 755.46 351.459 755.28 351.85C755.101 352.236 754.849 352.621 754.525 353.004C754.2 353.383 753.821 353.785 753.388 354.211L751.525 356.068V356.109H755.902V357ZM762.852 350.432C762.852 350.814 762.778 351.146 762.63 351.428C762.481 351.709 762.274 351.939 762.009 352.119C761.743 352.295 761.43 352.418 761.071 352.488V352.535C761.751 352.621 762.261 352.84 762.6 353.191C762.944 353.543 763.116 354.004 763.116 354.574C763.116 355.07 762.999 355.51 762.764 355.893C762.534 356.275 762.179 356.576 761.698 356.795C761.221 357.01 760.61 357.117 759.864 357.117C759.411 357.117 758.991 357.08 758.604 357.006C758.221 356.936 757.854 356.816 757.503 356.648V355.734C757.858 355.91 758.245 356.049 758.663 356.15C759.081 356.248 759.485 356.297 759.876 356.297C760.657 356.297 761.221 356.143 761.569 355.834C761.917 355.521 762.091 355.096 762.091 354.557C762.091 354.186 761.993 353.887 761.798 353.66C761.606 353.43 761.329 353.262 760.966 353.156C760.606 353.047 760.173 352.992 759.665 352.992H758.809V352.16H759.671C760.136 352.16 760.53 352.092 760.854 351.955C761.179 351.818 761.425 351.627 761.593 351.381C761.764 351.131 761.85 350.836 761.85 350.496C761.85 350.062 761.706 349.729 761.417 349.494C761.128 349.256 760.735 349.137 760.239 349.137C759.934 349.137 759.657 349.168 759.407 349.23C759.157 349.293 758.923 349.379 758.704 349.488C758.485 349.598 758.266 349.725 758.048 349.869L757.555 349.201C757.868 348.959 758.249 348.75 758.698 348.574C759.147 348.398 759.657 348.311 760.227 348.311C761.102 348.311 761.759 348.51 762.196 348.908C762.634 349.307 762.852 349.814 762.852 350.432Z" fill="white"/>
</svg>
