<svg width="63" height="62" viewBox="0 0 63 62" fill="none" xmlns="http://www.w3.org/2000/svg">
<g opacity="0.4">
<path d="M55.0291 30.9414H60H55.0291ZM48.8651 13.5577L52.875 9.56641L48.8651 13.5577ZM31.5 7.40252V2.44141V7.40252ZM14.1349 13.5577L10.125 9.56641L14.1349 13.5577ZM7.97093 30.9414H3H7.97093ZM25.8 59.4414H37.2H25.8ZM45.75 30.9414C45.7493 28.3724 45.0541 25.8515 43.738 23.6452C42.4219 21.439 40.5339 19.6295 38.2738 18.4084C36.0136 17.1872 33.4654 16.5998 30.8987 16.7082C28.332 16.8166 25.8424 17.6168 23.6933 19.0242C21.5441 20.4316 19.8154 22.3937 18.69 24.7031C17.5647 27.0124 17.0845 29.5831 17.3004 32.1429C17.5163 34.7028 18.4202 37.1567 19.9164 39.245C21.4126 41.3333 23.4455 42.9782 25.8 44.0058V50.8914H37.2V44.0058C39.7417 42.8961 41.9044 41.0691 43.4231 38.7485C44.9417 36.428 45.7504 33.7147 45.75 30.9414Z" fill="#18181A" fill-opacity="0.2"/>
<path d="M55.0291 30.9414H60M48.8651 13.5577L52.875 9.56641M31.5 7.40252V2.44141M14.1349 13.5577L10.125 9.56641M7.97093 30.9414H3M25.8 59.4414H37.2M45.75 30.9414C45.7493 28.3724 45.0541 25.8515 43.738 23.6452C42.4219 21.439 40.5339 19.6295 38.2738 18.4084C36.0136 17.1872 33.4654 16.5998 30.8987 16.7082C28.332 16.8166 25.8424 17.6168 23.6933 19.0242C21.5441 20.4316 19.8154 22.3937 18.69 24.7031C17.5647 27.0124 17.0845 29.5831 17.3004 32.1429C17.5163 34.7028 18.4202 37.1567 19.9164 39.245C21.4126 41.3333 23.4455 42.9782 25.8 44.0058V50.8914H37.2V44.0058C39.7417 42.8961 41.9044 41.0691 43.4231 38.7485C44.9417 36.428 45.7504 33.7147 45.75 30.9414Z" stroke="#18181A" stroke-width="4.275" stroke-linecap="round" stroke-linejoin="round"/>
</g>
</svg>
