<svg width="54" height="54" viewBox="0 0 54 54" fill="none" xmlns="http://www.w3.org/2000/svg">
<g opacity="0.4">
<mask id="path-1-inside-1_4878_1742" fill="white">
<path d="M17.294 0.00112299C17.2154 0.208871 17.1255 0.427848 17.0581 0.66367C16.6651 1.89107 16.4854 3.34643 17.002 4.40201C17.0581 4.51655 17.0918 4.54575 17.1368 4.63446C17.687 4.17742 18.5966 3.60695 19.9218 3.64738C21.0223 3.67995 21.9319 4.3234 22.4597 5.12183C22.9875 5.92025 23.2346 6.86916 23.2795 7.81694C23.3244 8.76359 23.1784 9.71474 22.7741 10.5457C22.3699 11.3767 21.6175 12.1403 20.5843 12.2863C18.8886 12.5334 17.6646 11.6013 17.0469 11.1971C16.9458 11.1409 16.9009 11.1297 16.8448 11.096C16.8111 11.1521 16.7999 11.1521 16.7437 11.2869C16.6876 11.3992 16.6426 12.2077 16.8785 13.2633C16.9683 13.6451 17.0694 14.0606 17.2041 14.4873C19.5175 14.4312 21.7859 14.6109 23.4142 15.2397C24.2453 15.5541 24.8292 15.8349 25.2335 16.4188C25.6378 17.0028 25.5367 17.7776 25.3682 18.2156C25.0426 19.0915 24.6383 19.5856 24.7618 20.7085C24.818 21.1353 24.9415 21.27 25.211 21.416C25.4805 21.562 25.941 21.6406 26.4351 21.562C27.4233 21.4272 28.3329 20.7535 28.434 20.0572C28.58 19.0578 28.3666 19.0802 27.996 18.6198C27.9062 18.4963 27.7714 18.3503 27.6704 18.0696C27.5693 17.7776 27.5918 17.306 27.7602 17.0028C28.0859 16.3964 28.4901 16.2279 29.119 15.891C30.1072 15.352 31.2078 15.4643 32.4094 15.6552C33.2516 15.79 34.1612 16.0033 35.0821 16.2391C34.8238 15.2173 34.588 14.2066 34.442 13.2633C34.2511 11.9944 34.1724 10.8265 34.7452 9.79335C34.9473 9.44523 35.1045 9.17797 35.3067 8.94439C35.4976 8.71082 35.7334 8.45366 36.1938 8.35596C36.6542 8.25714 37.1371 8.50194 37.3393 8.69397C37.5526 8.886 37.6425 9.04209 37.7323 9.17797C37.912 9.44523 38.058 9.64736 38.1927 9.7372C38.3275 9.83827 38.4286 9.91688 38.8441 9.8495C39.1248 9.81581 39.3943 9.62491 39.6414 9.22064C39.8997 8.82087 40.0793 8.22457 40.113 7.64625C40.1355 7.06792 40.0232 6.52104 39.8211 6.19538C39.6302 5.87085 39.4617 5.73047 39.0237 5.70577C38.4398 5.67208 38.204 5.78213 38.0692 5.8686C37.9344 5.95394 37.8783 6.03704 37.766 6.22907C37.6986 6.32452 37.6874 6.46377 37.328 6.71307C37.1484 6.83771 36.7778 6.95226 36.4746 6.88713C36.1601 6.82087 35.9917 6.6659 35.8794 6.55361C35.4414 6.10779 35.3853 5.81357 35.0371 5.08702C34.1949 3.33407 34.2847 1.44413 34.5879 0L17.294 0.00112299ZM36.7329 0.00112299C36.4409 1.22178 36.2387 2.91858 36.8564 4.21111C36.8676 4.22571 36.8676 4.2302 36.8788 4.2448C36.9125 4.22121 36.935 4.19539 36.9687 4.17293C37.4965 3.83491 38.2264 3.63503 39.136 3.68781C40.2029 3.74845 41.09 4.37506 41.5617 5.16338C42.0333 5.95057 42.1793 6.86354 42.1232 7.75742C42.0783 8.6513 41.8312 9.53507 41.3595 10.2987C40.8879 11.0511 40.1243 11.7136 39.136 11.8484C38.2826 11.9719 37.5077 11.7473 36.9911 11.3767C36.7778 11.2195 36.6206 11.0511 36.4746 10.8826C36.3623 11.2083 36.2949 11.9607 36.4409 12.9713C36.6093 14.0718 36.9574 15.4194 37.3168 16.7894C37.3168 16.8006 37.3168 16.8119 37.328 16.8119C38.305 17.0701 39.2596 17.2947 40.113 17.4295C41.2585 17.6092 42.2018 17.5979 42.651 17.4295C42.8756 17.3509 42.9542 17.2947 43.044 17.2386C43.044 17.2274 43.044 17.2274 43.0328 17.2161C42.5948 16.5985 41.4494 15.3183 41.5841 13.4093C41.6628 12.32 42.4152 11.4329 43.2799 11.0735C43.7178 10.8939 44.1782 10.804 44.6387 10.7816C45.1103 10.7591 45.582 10.7928 46.0536 10.8826C46.9857 11.0511 47.9066 11.4216 48.6814 11.9719C49.4563 12.5221 50.1188 13.2858 50.2648 14.3077C50.4894 15.8573 49.6696 16.9354 49.2204 17.4744L49.2429 17.4969C49.9055 17.8113 51.399 17.6541 52.6792 17.2386C52.9488 17.16 53.207 17.0589 53.4541 16.9691V2.67383C53.4541 1.19773 52.2575 0.00112299 50.7814 0.00112299L36.7329 0.00112299ZM44.9643 12.8029C44.5938 12.8029 44.2681 12.859 44.0547 12.9376C43.7178 13.0836 43.628 13.151 43.6055 13.544C43.5269 14.6221 44.1109 15.2397 44.6836 16.0482C44.8296 16.2504 44.9756 16.4637 45.0879 16.7445C45.2114 17.0365 45.2788 17.4632 45.1552 17.8674C44.8857 18.6872 44.2007 19.0129 43.3472 19.3273C42.2692 19.7316 41.0788 19.6305 39.7874 19.4284C39.1697 19.3273 38.5296 19.1925 37.8783 19.0353C38.0243 19.6642 38.159 20.293 38.2489 20.8994C38.451 22.2021 38.5296 23.4149 38.0355 24.4929C37.6874 25.2678 37.5751 25.7057 36.935 26.1212C36.6206 26.3233 36.0254 26.357 35.6997 26.2111C35.3853 26.0651 35.2617 25.9079 35.1382 25.7843C34.6666 25.3015 34.5655 24.9533 33.4088 25.0207C32.9933 25.0432 32.8698 25.1555 32.7013 25.4924C32.5329 25.818 32.443 26.3907 32.4992 26.9859C32.5666 27.5923 32.7687 28.1987 33.027 28.5805C33.2741 28.9735 33.4762 29.0634 33.6222 29.0634C34.4083 29.0746 34.835 28.6928 35.5762 28.311C35.9468 28.1089 36.5644 27.873 37.2157 28.1313C37.8558 28.3896 38.1927 28.9174 38.5184 29.5799C39.0687 30.7141 39.3045 32.3087 39.3831 34.083C39.4842 34.0718 39.5965 34.0493 39.6975 34.0269C40.9553 33.8135 42.1232 33.7124 43.2012 34.1055C43.628 34.2627 43.9536 34.4087 44.2569 34.6108C44.5488 34.8129 44.8745 35.1274 44.9756 35.5878C45.0766 36.0594 44.897 36.4749 44.7397 36.722C44.5825 36.9803 44.4141 37.1375 44.2569 37.3059C43.6167 37.946 43.0889 38.339 43.2125 39.2262C43.2574 39.5406 43.4595 39.8326 43.9424 40.1133C44.4141 40.4053 45.1216 40.6187 45.829 40.6748C46.5365 40.7309 47.2328 40.6299 47.682 40.439C48.1199 40.2481 48.2435 40.0909 48.2771 39.855C48.4007 39.0353 47.9402 38.5636 47.3675 37.8C47.0868 37.4182 46.6825 36.9241 46.7499 36.1493C46.8173 35.3744 47.4124 34.8129 48.1536 34.3862C49.8269 33.4429 51.7808 33.836 53.2857 34.3188C53.3418 34.3413 53.398 34.3525 53.4541 34.375V19.1139C53.398 19.1364 53.353 19.1476 53.2969 19.1701C51.8258 19.6417 49.9841 20.1021 48.3558 19.3048C48.0301 19.1476 47.7606 18.9904 47.5135 18.777C47.2665 18.5525 47.0306 18.238 46.9632 17.8338C46.9071 17.4295 47.0419 17.0701 47.1654 16.8455C47.3001 16.621 47.4349 16.4637 47.5472 16.3178C48.0413 15.7563 48.4007 15.498 48.2659 14.5996C48.2322 14.3301 47.9964 13.9595 47.5135 13.6114C47.0306 13.2745 46.3456 12.9938 45.683 12.8703C45.436 12.8253 45.1889 12.8029 44.9643 12.8029ZM17.8892 16.5087H17.8218L17.9678 16.9691C18.3833 18.3166 18.81 19.6979 19.0458 20.978C19.2704 22.2582 19.3715 23.4598 18.8212 24.5378C18.6303 24.9196 18.4506 25.2116 18.2261 25.4811C18.0015 25.7394 17.6533 26.0314 17.148 26.0538C16.6539 26.0763 16.2833 25.8068 16.0812 25.6047C15.8902 25.4137 15.7667 25.2453 15.6544 25.0769C15.4074 24.74 15.194 24.448 14.9582 24.2796C14.7336 24.0999 14.5314 23.9988 14.0373 24.055C13.6892 24.0999 13.4197 24.2908 13.1389 24.7512C12.8694 25.2228 12.6785 25.9191 12.6336 26.6265C12.5999 27.334 12.7234 28.0415 12.9368 28.5019C13.1502 28.9623 13.3523 29.1195 13.6218 29.1532C14.5202 29.288 15.0255 28.8276 15.8004 28.2885C16.1822 28.019 16.6539 27.6484 17.4175 27.7046C18.1811 27.7607 18.7539 28.3559 19.1469 29.0634C19.6972 30.074 19.5624 31.1858 19.3603 32.421C19.1469 33.6451 18.7763 35.0151 18.4057 36.3851C18.3833 36.4637 18.3608 36.5311 18.3384 36.6097C20.3036 36.4974 22.1453 36.1605 23.0324 35.7225C23.0437 35.7225 23.0437 35.7225 23.0437 35.7113C22.718 35.206 22.5271 34.4985 22.572 33.6114C22.6169 32.5333 23.2233 31.6462 23.9757 31.1296C24.7281 30.6131 25.6153 30.3997 26.4912 30.366C27.3672 30.3323 28.2319 30.4783 28.973 30.8826C29.7254 31.2868 30.3992 32.0617 30.4217 33.0499C30.4441 34.2065 29.9949 35.0375 29.7591 35.4193C29.8714 35.5092 30.0286 35.6215 30.2757 35.7562C30.489 35.8798 31.2415 35.9696 32.2521 35.8011C33.2628 35.6439 34.5206 35.307 35.812 34.9589C36.3286 34.8242 36.8451 34.6782 37.3617 34.5434C37.2831 32.713 37.0024 31.0847 36.6992 30.4671C36.6093 30.2649 36.5419 30.1863 36.4858 30.119C36.0591 30.3436 35.0596 31.1072 33.5885 31.0847C32.589 31.0735 31.8142 30.4222 31.3313 29.6922C30.8596 28.9623 30.5789 28.0864 30.4891 27.1993C30.3992 26.3009 30.4778 25.3801 30.9046 24.5603C31.3313 23.7405 32.2185 23.0668 33.2965 22.9994C34.5992 22.932 35.5088 23.471 36.0591 23.909C36.104 23.8079 36.1489 23.7742 36.205 23.6507C36.3735 23.2689 36.4296 22.3481 36.25 21.2026C36.1264 20.3829 35.9131 19.4396 35.666 18.4738C34.3634 18.137 33.1168 17.8113 32.0949 17.6541C31.0505 17.4856 30.2645 17.5755 30.0848 17.6653C29.9837 17.7215 29.9612 17.7551 29.8826 17.8001C30.2083 18.3166 30.6013 19.1925 30.4329 20.3492C30.1522 22.2582 28.3778 23.3363 26.7158 23.5721C25.8848 23.6844 25.0089 23.6058 24.2453 23.1903C23.4816 22.7748 22.864 21.9438 22.7517 20.9331C22.5608 19.1925 23.3132 17.9461 23.4704 17.5081C23.3918 17.4519 23.1896 17.3172 22.6955 17.1263C21.6961 16.7445 19.8432 16.5199 17.8892 16.5087ZM15.7218 16.5985C13.6106 16.7669 11.6566 17.2161 10.893 17.6316C10.6908 17.7439 10.601 17.8225 10.5336 17.8899C10.8256 18.3279 11.7352 19.3834 11.6004 20.9444C11.5218 21.9213 10.8031 22.6737 10.0283 23.0106C9.2534 23.3587 8.38982 23.4261 7.52625 23.325C6.66379 23.2127 5.79685 22.9208 5.06242 22.4042C4.32799 21.8764 3.71708 21.0567 3.59018 20.0348C3.47789 19.1364 3.68339 18.3615 4.03489 17.8225C4.16515 17.6204 4.30777 17.4632 4.44702 17.3284C4.43018 17.3172 4.42905 17.3172 4.41109 17.306C3.37906 16.7782 1.89111 16.8905 0.63561 17.2386C0.40989 17.2947 0.201014 17.3621 0 17.4295L0 36.1043C0.198768 36.1717 0.406521 36.2391 0.629995 36.2953C1.881 36.6434 3.36896 36.7669 4.42007 36.2391C4.62782 36.138 4.70868 36.0707 4.81985 35.9921C4.40659 35.4755 3.66206 34.4199 3.8305 32.8478C3.94392 31.8034 4.59638 30.9724 5.38022 30.5008C6.16407 30.0291 7.07144 29.8494 7.96646 29.8494C8.86036 29.8494 9.74751 30.0404 10.5224 30.4783C11.286 30.905 11.971 31.6574 12.1058 32.6456C12.2967 34.1055 11.5218 35.1161 11.1063 35.6102C11.1737 35.6552 11.1849 35.6776 11.3085 35.745C12.0272 36.1493 14.071 36.5423 16.2384 36.6209C16.317 36.3626 16.3844 36.1156 16.4517 35.8573C16.8223 34.4873 17.1817 33.151 17.3614 32.0841C17.541 31.0061 17.4624 30.1976 17.3726 30.0404C17.2827 29.8719 17.2491 29.8382 17.2154 29.7933C17.1592 29.827 17.0806 29.8607 16.9571 29.9505C16.317 30.3885 15.0817 31.4104 13.3298 31.1521C12.2742 31.0061 11.5106 30.2088 11.1063 29.3553C10.7021 28.4907 10.5673 27.5025 10.6234 26.5255C10.6684 25.5485 10.9042 24.5603 11.3983 23.7293C11.8924 22.8871 12.7347 22.1684 13.824 22.0449C14.7785 21.9438 15.6095 22.2358 16.171 22.6625C16.5753 22.9545 16.8335 23.2801 17.0469 23.5609C17.1929 23.2127 17.2491 22.4042 17.0469 21.3374C16.856 20.2369 16.4517 18.9118 16.0362 17.5755C15.9352 17.2498 15.8229 16.9242 15.7218 16.5985ZM7.95635 31.8708C7.36566 31.8708 6.78732 32.0055 6.41898 32.2301C6.05065 32.4547 5.88332 32.6681 5.84065 33.0611C5.72498 34.1504 6.10567 34.3638 6.59192 34.9814C6.71433 35.1386 6.85695 35.3183 6.967 35.6102C7.07818 35.9022 7.09614 36.3626 6.93668 36.722C6.62 37.4294 6.0922 37.6653 5.32295 38.0583C3.54639 38.9342 1.58453 38.6535 0.0920848 38.2492C0.0606412 38.238 0.0314436 38.2267 0 38.2155L0 50.7814C0 52.2575 1.19661 53.4541 2.67271 53.4541H15.3063C15.0143 52.1402 14.9582 50.4895 15.8116 48.9847C16.1822 48.3334 16.3507 47.9628 16.8335 47.6147C17.0694 47.435 17.5298 47.289 17.8892 47.3789C18.2485 47.4575 18.4282 47.6259 18.5405 47.727C18.7651 47.9291 18.8325 48.0077 18.956 48.0639C19.0795 48.12 19.248 48.1874 19.6972 48.1313C19.8768 48.1088 20.1576 47.9404 20.4271 47.4575C20.7078 46.9858 20.9212 46.2784 20.9774 45.5821C21.0335 44.8971 20.9212 44.2234 20.7303 43.8303C20.5394 43.4373 20.4046 43.3138 20.0116 43.2913C19.495 43.2576 19.2704 43.3811 19.0458 43.5608C18.8212 43.7405 18.6303 44.0325 18.4506 44.3469C18.3496 44.4929 18.271 44.6501 18.1025 44.8522C18.0239 44.9533 17.9116 45.0768 17.6982 45.1891C17.4961 45.3126 17.1368 45.38 16.8448 45.3014C16.2496 45.1554 16.1036 44.7961 15.9576 44.5378C15.8116 44.2683 15.6881 43.9763 15.5309 43.572C15.1266 42.4828 15.2389 41.27 15.4635 39.9561C15.5421 39.5294 15.632 39.0802 15.733 38.631C13.5994 38.5524 11.6454 38.2492 10.3202 37.5193C9.64644 37.1375 9.1164 36.8118 8.92549 36.0707C8.83116 35.7001 8.91426 35.2958 9.03779 35.0488C9.15907 34.7905 9.29832 34.6333 9.41062 34.4873C9.8935 33.9146 10.2079 33.7461 10.0956 32.9039C10.0619 32.6681 9.92719 32.4547 9.53414 32.2414C9.0041 32.0055 8.44148 31.8708 7.95635 31.8708ZM50.4894 35.8685C49.9616 35.8685 49.49 35.9584 49.1418 36.1493C48.9509 36.2616 48.8948 36.3177 48.8386 36.3514C48.8723 36.4076 48.8948 36.4749 48.9846 36.5984C49.445 37.2048 50.5343 38.4064 50.2761 40.147C50.1301 41.1914 49.3215 41.9437 48.468 42.3031C47.6033 42.6624 46.6376 42.7635 45.6606 42.6849C44.6948 42.6063 43.729 42.348 42.898 41.8539C42.0783 41.3598 41.3483 40.5513 41.2136 39.4957C40.9777 37.7888 42.0333 36.6658 42.6398 36.0594C42.5836 36.037 42.5836 36.037 42.505 36.0033C42.067 35.8461 41.1462 35.8348 40.0344 36.0257C39.8323 36.0594 39.6189 36.0931 39.4056 36.138C39.3606 38.5749 39.0687 41.0341 38.4061 42.7298C38.0804 43.572 37.7997 44.1784 37.1259 44.5378C36.7778 44.7175 36.3623 44.7624 36.0366 44.7062C35.7222 44.6389 35.4863 44.5266 35.273 44.4143C34.4307 43.9651 33.8692 43.4597 32.6901 43.5047C32.2746 43.5159 32.2409 43.5833 32.1062 43.8977C31.9826 44.2121 31.9265 44.8185 32.05 45.4474C32.1623 46.0762 32.4318 46.7276 32.7463 47.1543C33.0495 47.581 33.3302 47.7045 33.4537 47.7158C34.2061 47.727 34.2511 47.4687 34.8125 46.9971C34.9473 46.8736 35.127 46.7163 35.4414 46.6153C35.7559 46.5142 36.205 46.5591 36.5083 46.7163C37.1259 47.042 37.3505 47.4799 37.7435 48.1762C38.6756 49.8269 38.4398 51.7584 38.1029 53.2632C38.0917 53.3306 38.0692 53.3867 38.058 53.4541H50.7814C52.2575 53.4541 53.4541 52.2575 53.4541 50.7814V36.5198C53.207 36.43 52.9488 36.3289 52.6792 36.2503C51.9605 36.0145 51.1744 35.8798 50.4894 35.8685Z"/>
</mask>
<path d="M17.294 0.00112299C17.2154 0.208871 17.1255 0.427848 17.0581 0.66367C16.6651 1.89107 16.4854 3.34643 17.002 4.40201C17.0581 4.51655 17.0918 4.54575 17.1368 4.63446C17.687 4.17742 18.5966 3.60695 19.9218 3.64738C21.0223 3.67995 21.9319 4.3234 22.4597 5.12183C22.9875 5.92025 23.2346 6.86916 23.2795 7.81694C23.3244 8.76359 23.1784 9.71474 22.7741 10.5457C22.3699 11.3767 21.6175 12.1403 20.5843 12.2863C18.8886 12.5334 17.6646 11.6013 17.0469 11.1971C16.9458 11.1409 16.9009 11.1297 16.8448 11.096C16.8111 11.1521 16.7999 11.1521 16.7437 11.2869C16.6876 11.3992 16.6426 12.2077 16.8785 13.2633C16.9683 13.6451 17.0694 14.0606 17.2041 14.4873C19.5175 14.4312 21.7859 14.6109 23.4142 15.2397C24.2453 15.5541 24.8292 15.8349 25.2335 16.4188C25.6378 17.0028 25.5367 17.7776 25.3682 18.2156C25.0426 19.0915 24.6383 19.5856 24.7618 20.7085C24.818 21.1353 24.9415 21.27 25.211 21.416C25.4805 21.562 25.941 21.6406 26.4351 21.562C27.4233 21.4272 28.3329 20.7535 28.434 20.0572C28.58 19.0578 28.3666 19.0802 27.996 18.6198C27.9062 18.4963 27.7714 18.3503 27.6704 18.0696C27.5693 17.7776 27.5918 17.306 27.7602 17.0028C28.0859 16.3964 28.4901 16.2279 29.119 15.891C30.1072 15.352 31.2078 15.4643 32.4094 15.6552C33.2516 15.79 34.1612 16.0033 35.0821 16.2391C34.8238 15.2173 34.588 14.2066 34.442 13.2633C34.2511 11.9944 34.1724 10.8265 34.7452 9.79335C34.9473 9.44523 35.1045 9.17797 35.3067 8.94439C35.4976 8.71082 35.7334 8.45366 36.1938 8.35596C36.6542 8.25714 37.1371 8.50194 37.3393 8.69397C37.5526 8.886 37.6425 9.04209 37.7323 9.17797C37.912 9.44523 38.058 9.64736 38.1927 9.7372C38.3275 9.83827 38.4286 9.91688 38.8441 9.8495C39.1248 9.81581 39.3943 9.62491 39.6414 9.22064C39.8997 8.82087 40.0793 8.22457 40.113 7.64625C40.1355 7.06792 40.0232 6.52104 39.8211 6.19538C39.6302 5.87085 39.4617 5.73047 39.0237 5.70577C38.4398 5.67208 38.204 5.78213 38.0692 5.8686C37.9344 5.95394 37.8783 6.03704 37.766 6.22907C37.6986 6.32452 37.6874 6.46377 37.328 6.71307C37.1484 6.83771 36.7778 6.95226 36.4746 6.88713C36.1601 6.82087 35.9917 6.6659 35.8794 6.55361C35.4414 6.10779 35.3853 5.81357 35.0371 5.08702C34.1949 3.33407 34.2847 1.44413 34.5879 0L17.294 0.00112299ZM36.7329 0.00112299C36.4409 1.22178 36.2387 2.91858 36.8564 4.21111C36.8676 4.22571 36.8676 4.2302 36.8788 4.2448C36.9125 4.22121 36.935 4.19539 36.9687 4.17293C37.4965 3.83491 38.2264 3.63503 39.136 3.68781C40.2029 3.74845 41.09 4.37506 41.5617 5.16338C42.0333 5.95057 42.1793 6.86354 42.1232 7.75742C42.0783 8.6513 41.8312 9.53507 41.3595 10.2987C40.8879 11.0511 40.1243 11.7136 39.136 11.8484C38.2826 11.9719 37.5077 11.7473 36.9911 11.3767C36.7778 11.2195 36.6206 11.0511 36.4746 10.8826C36.3623 11.2083 36.2949 11.9607 36.4409 12.9713C36.6093 14.0718 36.9574 15.4194 37.3168 16.7894C37.3168 16.8006 37.3168 16.8119 37.328 16.8119C38.305 17.0701 39.2596 17.2947 40.113 17.4295C41.2585 17.6092 42.2018 17.5979 42.651 17.4295C42.8756 17.3509 42.9542 17.2947 43.044 17.2386C43.044 17.2274 43.044 17.2274 43.0328 17.2161C42.5948 16.5985 41.4494 15.3183 41.5841 13.4093C41.6628 12.32 42.4152 11.4329 43.2799 11.0735C43.7178 10.8939 44.1782 10.804 44.6387 10.7816C45.1103 10.7591 45.582 10.7928 46.0536 10.8826C46.9857 11.0511 47.9066 11.4216 48.6814 11.9719C49.4563 12.5221 50.1188 13.2858 50.2648 14.3077C50.4894 15.8573 49.6696 16.9354 49.2204 17.4744L49.2429 17.4969C49.9055 17.8113 51.399 17.6541 52.6792 17.2386C52.9488 17.16 53.207 17.0589 53.4541 16.9691V2.67383C53.4541 1.19773 52.2575 0.00112299 50.7814 0.00112299L36.7329 0.00112299ZM44.9643 12.8029C44.5938 12.8029 44.2681 12.859 44.0547 12.9376C43.7178 13.0836 43.628 13.151 43.6055 13.544C43.5269 14.6221 44.1109 15.2397 44.6836 16.0482C44.8296 16.2504 44.9756 16.4637 45.0879 16.7445C45.2114 17.0365 45.2788 17.4632 45.1552 17.8674C44.8857 18.6872 44.2007 19.0129 43.3472 19.3273C42.2692 19.7316 41.0788 19.6305 39.7874 19.4284C39.1697 19.3273 38.5296 19.1925 37.8783 19.0353C38.0243 19.6642 38.159 20.293 38.2489 20.8994C38.451 22.2021 38.5296 23.4149 38.0355 24.4929C37.6874 25.2678 37.5751 25.7057 36.935 26.1212C36.6206 26.3233 36.0254 26.357 35.6997 26.2111C35.3853 26.0651 35.2617 25.9079 35.1382 25.7843C34.6666 25.3015 34.5655 24.9533 33.4088 25.0207C32.9933 25.0432 32.8698 25.1555 32.7013 25.4924C32.5329 25.818 32.443 26.3907 32.4992 26.9859C32.5666 27.5923 32.7687 28.1987 33.027 28.5805C33.2741 28.9735 33.4762 29.0634 33.6222 29.0634C34.4083 29.0746 34.835 28.6928 35.5762 28.311C35.9468 28.1089 36.5644 27.873 37.2157 28.1313C37.8558 28.3896 38.1927 28.9174 38.5184 29.5799C39.0687 30.7141 39.3045 32.3087 39.3831 34.083C39.4842 34.0718 39.5965 34.0493 39.6975 34.0269C40.9553 33.8135 42.1232 33.7124 43.2012 34.1055C43.628 34.2627 43.9536 34.4087 44.2569 34.6108C44.5488 34.8129 44.8745 35.1274 44.9756 35.5878C45.0766 36.0594 44.897 36.4749 44.7397 36.722C44.5825 36.9803 44.4141 37.1375 44.2569 37.3059C43.6167 37.946 43.0889 38.339 43.2125 39.2262C43.2574 39.5406 43.4595 39.8326 43.9424 40.1133C44.4141 40.4053 45.1216 40.6187 45.829 40.6748C46.5365 40.7309 47.2328 40.6299 47.682 40.439C48.1199 40.2481 48.2435 40.0909 48.2771 39.855C48.4007 39.0353 47.9402 38.5636 47.3675 37.8C47.0868 37.4182 46.6825 36.9241 46.7499 36.1493C46.8173 35.3744 47.4124 34.8129 48.1536 34.3862C49.8269 33.4429 51.7808 33.836 53.2857 34.3188C53.3418 34.3413 53.398 34.3525 53.4541 34.375V19.1139C53.398 19.1364 53.353 19.1476 53.2969 19.1701C51.8258 19.6417 49.9841 20.1021 48.3558 19.3048C48.0301 19.1476 47.7606 18.9904 47.5135 18.777C47.2665 18.5525 47.0306 18.238 46.9632 17.8338C46.9071 17.4295 47.0419 17.0701 47.1654 16.8455C47.3001 16.621 47.4349 16.4637 47.5472 16.3178C48.0413 15.7563 48.4007 15.498 48.2659 14.5996C48.2322 14.3301 47.9964 13.9595 47.5135 13.6114C47.0306 13.2745 46.3456 12.9938 45.683 12.8703C45.436 12.8253 45.1889 12.8029 44.9643 12.8029ZM17.8892 16.5087H17.8218L17.9678 16.9691C18.3833 18.3166 18.81 19.6979 19.0458 20.978C19.2704 22.2582 19.3715 23.4598 18.8212 24.5378C18.6303 24.9196 18.4506 25.2116 18.2261 25.4811C18.0015 25.7394 17.6533 26.0314 17.148 26.0538C16.6539 26.0763 16.2833 25.8068 16.0812 25.6047C15.8902 25.4137 15.7667 25.2453 15.6544 25.0769C15.4074 24.74 15.194 24.448 14.9582 24.2796C14.7336 24.0999 14.5314 23.9988 14.0373 24.055C13.6892 24.0999 13.4197 24.2908 13.1389 24.7512C12.8694 25.2228 12.6785 25.9191 12.6336 26.6265C12.5999 27.334 12.7234 28.0415 12.9368 28.5019C13.1502 28.9623 13.3523 29.1195 13.6218 29.1532C14.5202 29.288 15.0255 28.8276 15.8004 28.2885C16.1822 28.019 16.6539 27.6484 17.4175 27.7046C18.1811 27.7607 18.7539 28.3559 19.1469 29.0634C19.6972 30.074 19.5624 31.1858 19.3603 32.421C19.1469 33.6451 18.7763 35.0151 18.4057 36.3851C18.3833 36.4637 18.3608 36.5311 18.3384 36.6097C20.3036 36.4974 22.1453 36.1605 23.0324 35.7225C23.0437 35.7225 23.0437 35.7225 23.0437 35.7113C22.718 35.206 22.5271 34.4985 22.572 33.6114C22.6169 32.5333 23.2233 31.6462 23.9757 31.1296C24.7281 30.6131 25.6153 30.3997 26.4912 30.366C27.3672 30.3323 28.2319 30.4783 28.973 30.8826C29.7254 31.2868 30.3992 32.0617 30.4217 33.0499C30.4441 34.2065 29.9949 35.0375 29.7591 35.4193C29.8714 35.5092 30.0286 35.6215 30.2757 35.7562C30.489 35.8798 31.2415 35.9696 32.2521 35.8011C33.2628 35.6439 34.5206 35.307 35.812 34.9589C36.3286 34.8242 36.8451 34.6782 37.3617 34.5434C37.2831 32.713 37.0024 31.0847 36.6992 30.4671C36.6093 30.2649 36.5419 30.1863 36.4858 30.119C36.0591 30.3436 35.0596 31.1072 33.5885 31.0847C32.589 31.0735 31.8142 30.4222 31.3313 29.6922C30.8596 28.9623 30.5789 28.0864 30.4891 27.1993C30.3992 26.3009 30.4778 25.3801 30.9046 24.5603C31.3313 23.7405 32.2185 23.0668 33.2965 22.9994C34.5992 22.932 35.5088 23.471 36.0591 23.909C36.104 23.8079 36.1489 23.7742 36.205 23.6507C36.3735 23.2689 36.4296 22.3481 36.25 21.2026C36.1264 20.3829 35.9131 19.4396 35.666 18.4738C34.3634 18.137 33.1168 17.8113 32.0949 17.6541C31.0505 17.4856 30.2645 17.5755 30.0848 17.6653C29.9837 17.7215 29.9612 17.7551 29.8826 17.8001C30.2083 18.3166 30.6013 19.1925 30.4329 20.3492C30.1522 22.2582 28.3778 23.3363 26.7158 23.5721C25.8848 23.6844 25.0089 23.6058 24.2453 23.1903C23.4816 22.7748 22.864 21.9438 22.7517 20.9331C22.5608 19.1925 23.3132 17.9461 23.4704 17.5081C23.3918 17.4519 23.1896 17.3172 22.6955 17.1263C21.6961 16.7445 19.8432 16.5199 17.8892 16.5087ZM15.7218 16.5985C13.6106 16.7669 11.6566 17.2161 10.893 17.6316C10.6908 17.7439 10.601 17.8225 10.5336 17.8899C10.8256 18.3279 11.7352 19.3834 11.6004 20.9444C11.5218 21.9213 10.8031 22.6737 10.0283 23.0106C9.2534 23.3587 8.38982 23.4261 7.52625 23.325C6.66379 23.2127 5.79685 22.9208 5.06242 22.4042C4.32799 21.8764 3.71708 21.0567 3.59018 20.0348C3.47789 19.1364 3.68339 18.3615 4.03489 17.8225C4.16515 17.6204 4.30777 17.4632 4.44702 17.3284C4.43018 17.3172 4.42905 17.3172 4.41109 17.306C3.37906 16.7782 1.89111 16.8905 0.63561 17.2386C0.40989 17.2947 0.201014 17.3621 0 17.4295L0 36.1043C0.198768 36.1717 0.406521 36.2391 0.629995 36.2953C1.881 36.6434 3.36896 36.7669 4.42007 36.2391C4.62782 36.138 4.70868 36.0707 4.81985 35.9921C4.40659 35.4755 3.66206 34.4199 3.8305 32.8478C3.94392 31.8034 4.59638 30.9724 5.38022 30.5008C6.16407 30.0291 7.07144 29.8494 7.96646 29.8494C8.86036 29.8494 9.74751 30.0404 10.5224 30.4783C11.286 30.905 11.971 31.6574 12.1058 32.6456C12.2967 34.1055 11.5218 35.1161 11.1063 35.6102C11.1737 35.6552 11.1849 35.6776 11.3085 35.745C12.0272 36.1493 14.071 36.5423 16.2384 36.6209C16.317 36.3626 16.3844 36.1156 16.4517 35.8573C16.8223 34.4873 17.1817 33.151 17.3614 32.0841C17.541 31.0061 17.4624 30.1976 17.3726 30.0404C17.2827 29.8719 17.2491 29.8382 17.2154 29.7933C17.1592 29.827 17.0806 29.8607 16.9571 29.9505C16.317 30.3885 15.0817 31.4104 13.3298 31.1521C12.2742 31.0061 11.5106 30.2088 11.1063 29.3553C10.7021 28.4907 10.5673 27.5025 10.6234 26.5255C10.6684 25.5485 10.9042 24.5603 11.3983 23.7293C11.8924 22.8871 12.7347 22.1684 13.824 22.0449C14.7785 21.9438 15.6095 22.2358 16.171 22.6625C16.5753 22.9545 16.8335 23.2801 17.0469 23.5609C17.1929 23.2127 17.2491 22.4042 17.0469 21.3374C16.856 20.2369 16.4517 18.9118 16.0362 17.5755C15.9352 17.2498 15.8229 16.9242 15.7218 16.5985ZM7.95635 31.8708C7.36566 31.8708 6.78732 32.0055 6.41898 32.2301C6.05065 32.4547 5.88332 32.6681 5.84065 33.0611C5.72498 34.1504 6.10567 34.3638 6.59192 34.9814C6.71433 35.1386 6.85695 35.3183 6.967 35.6102C7.07818 35.9022 7.09614 36.3626 6.93668 36.722C6.62 37.4294 6.0922 37.6653 5.32295 38.0583C3.54639 38.9342 1.58453 38.6535 0.0920848 38.2492C0.0606412 38.238 0.0314436 38.2267 0 38.2155L0 50.7814C0 52.2575 1.19661 53.4541 2.67271 53.4541H15.3063C15.0143 52.1402 14.9582 50.4895 15.8116 48.9847C16.1822 48.3334 16.3507 47.9628 16.8335 47.6147C17.0694 47.435 17.5298 47.289 17.8892 47.3789C18.2485 47.4575 18.4282 47.6259 18.5405 47.727C18.7651 47.9291 18.8325 48.0077 18.956 48.0639C19.0795 48.12 19.248 48.1874 19.6972 48.1313C19.8768 48.1088 20.1576 47.9404 20.4271 47.4575C20.7078 46.9858 20.9212 46.2784 20.9774 45.5821C21.0335 44.8971 20.9212 44.2234 20.7303 43.8303C20.5394 43.4373 20.4046 43.3138 20.0116 43.2913C19.495 43.2576 19.2704 43.3811 19.0458 43.5608C18.8212 43.7405 18.6303 44.0325 18.4506 44.3469C18.3496 44.4929 18.271 44.6501 18.1025 44.8522C18.0239 44.9533 17.9116 45.0768 17.6982 45.1891C17.4961 45.3126 17.1368 45.38 16.8448 45.3014C16.2496 45.1554 16.1036 44.7961 15.9576 44.5378C15.8116 44.2683 15.6881 43.9763 15.5309 43.572C15.1266 42.4828 15.2389 41.27 15.4635 39.9561C15.5421 39.5294 15.632 39.0802 15.733 38.631C13.5994 38.5524 11.6454 38.2492 10.3202 37.5193C9.64644 37.1375 9.1164 36.8118 8.92549 36.0707C8.83116 35.7001 8.91426 35.2958 9.03779 35.0488C9.15907 34.7905 9.29832 34.6333 9.41062 34.4873C9.8935 33.9146 10.2079 33.7461 10.0956 32.9039C10.0619 32.6681 9.92719 32.4547 9.53414 32.2414C9.0041 32.0055 8.44148 31.8708 7.95635 31.8708ZM50.4894 35.8685C49.9616 35.8685 49.49 35.9584 49.1418 36.1493C48.9509 36.2616 48.8948 36.3177 48.8386 36.3514C48.8723 36.4076 48.8948 36.4749 48.9846 36.5984C49.445 37.2048 50.5343 38.4064 50.2761 40.147C50.1301 41.1914 49.3215 41.9437 48.468 42.3031C47.6033 42.6624 46.6376 42.7635 45.6606 42.6849C44.6948 42.6063 43.729 42.348 42.898 41.8539C42.0783 41.3598 41.3483 40.5513 41.2136 39.4957C40.9777 37.7888 42.0333 36.6658 42.6398 36.0594C42.5836 36.037 42.5836 36.037 42.505 36.0033C42.067 35.8461 41.1462 35.8348 40.0344 36.0257C39.8323 36.0594 39.6189 36.0931 39.4056 36.138C39.3606 38.5749 39.0687 41.0341 38.4061 42.7298C38.0804 43.572 37.7997 44.1784 37.1259 44.5378C36.7778 44.7175 36.3623 44.7624 36.0366 44.7062C35.7222 44.6389 35.4863 44.5266 35.273 44.4143C34.4307 43.9651 33.8692 43.4597 32.6901 43.5047C32.2746 43.5159 32.2409 43.5833 32.1062 43.8977C31.9826 44.2121 31.9265 44.8185 32.05 45.4474C32.1623 46.0762 32.4318 46.7276 32.7463 47.1543C33.0495 47.581 33.3302 47.7045 33.4537 47.7158C34.2061 47.727 34.2511 47.4687 34.8125 46.9971C34.9473 46.8736 35.127 46.7163 35.4414 46.6153C35.7559 46.5142 36.205 46.5591 36.5083 46.7163C37.1259 47.042 37.3505 47.4799 37.7435 48.1762C38.6756 49.8269 38.4398 51.7584 38.1029 53.2632C38.0917 53.3306 38.0692 53.3867 38.058 53.4541H50.7814C52.2575 53.4541 53.4541 52.2575 53.4541 50.7814V36.5198C53.207 36.43 52.9488 36.3289 52.6792 36.2503C51.9605 36.0145 51.1744 35.8798 50.4894 35.8685Z" fill="#18181A" stroke="#18181A" stroke-width="0.626415" mask="url(#path-1-inside-1_4878_1742)"/>
</g>
</svg>
