<svg width="62" height="60" viewBox="0 0 62 60" fill="none" xmlns="http://www.w3.org/2000/svg">
<g opacity="0.4">
<path opacity="0.2" d="M3.60119 30.115C3.57153 33.0333 4.61928 35.8337 6.50684 37.9014C8.39362 39.9682 10.9636 41.1331 13.6497 41.1491L23.8097 41.2096L24.0327 19.2625L13.8727 19.202C11.1867 19.186 8.59333 20.3201 6.66476 22.3642C4.7354 24.4092 3.63086 27.1968 3.60119 30.115Z" fill="#18181A" stroke="#18181A" stroke-width="0.681561"/>
<path d="M24.847 42.3702L24.7637 50.5558C24.7574 51.2634 24.5888 51.9593 24.2731 52.5816C23.9574 53.2039 23.5043 53.7334 22.9541 54.1229M24.847 42.3702L14.148 53.5337C14.2995 54.1992 14.597 54.815 15.0155 55.3295C15.434 55.844 15.9614 56.2424 16.5535 56.4911C17.1456 56.7399 17.7852 56.8318 18.4186 56.7592C19.0521 56.6866 19.661 56.4516 20.1944 56.0739L22.9541 54.1229M24.847 42.3702C24.8295 42.3672 24.8121 42.3642 24.7948 42.3613L24.8504 42.0425L25.1738 42.0444L25.1732 42.099C29.4934 42.8778 38.9844 45.4585 48.071 53.8024C48.6466 54.3317 49.3514 54.672 50.1024 54.7835C50.8534 54.895 51.6195 54.7729 52.3107 54.4317C53.0019 54.0905 53.5894 53.5443 54.0042 52.8573C54.4189 52.1703 54.6437 51.3711 54.6522 50.5536L24.847 42.3702ZM22.9541 54.1229L22.7679 53.8592M22.9541 54.1229L22.7681 53.8591L22.7679 53.8592M22.7679 53.8592C23.2734 53.5013 23.6921 53.0132 23.9848 52.4363C24.2775 51.8593 24.4344 51.2127 24.4403 50.5542L24.4403 50.5538L24.527 42.0405L24.5308 41.6598L24.9059 41.7236C29.0994 42.4366 38.9101 44.9502 48.2903 53.5638L48.2905 53.5639C48.8203 54.051 49.4661 54.3619 50.1512 54.4636C50.8362 54.5653 51.5357 54.4542 52.1685 54.1419C52.8016 53.8293 53.3434 53.3271 53.7275 52.691C54.1116 52.0548 54.3209 51.3125 54.3288 50.5517L54.7657 7.60946C54.7729 6.84882 54.5784 6.10451 54.2071 5.46418C53.8359 4.82397 53.3044 4.3158 52.6778 3.99607C52.0515 3.6765 51.3545 3.55739 50.6677 3.651C49.9808 3.74463 49.329 4.04774 48.7895 4.52834L48.7893 4.52849C36.5747 15.3954 23.8513 16.2895 23.0899 16.3329L23.0798 16.3334L23.0696 16.3334L13.1576 16.2745C10.0818 16.2596 7.11411 17.5601 4.90734 19.8994C2.69982 22.2395 1.43538 25.4275 1.39818 28.7649M22.7679 53.8592L20.0085 55.8101L20.0083 55.8102C19.5184 56.1571 18.9611 56.3717 18.3831 56.4379C17.8053 56.5041 17.2214 56.4204 16.6798 56.1929C16.1381 55.9653 15.6531 55.5998 15.2667 55.1248C14.8803 54.6497 14.6042 54.0792 14.4633 53.4607L14.4628 53.4583L11.6525 41.5351L11.6025 41.3229L11.3869 41.2907C8.59933 40.8738 6.04718 39.3788 4.20772 37.076C2.36789 34.7728 1.36776 31.8195 1.39818 28.7649M1.39818 28.7649C1.39819 28.7648 1.39819 28.7647 1.39819 28.7646L1.07479 28.7627L1.39818 28.7649C1.39818 28.7649 1.39818 28.7649 1.39818 28.7649ZM50.9909 50.513L50.9835 51.2403L50.4484 50.75C39.9389 41.119 29.1203 38.638 24.8461 38.0064L24.5684 37.9654L24.5713 37.6846L24.7501 20.1104L24.753 19.8289L25.0323 19.7918C29.3227 19.2218 40.1929 16.8647 50.8898 7.34639L51.4351 6.86124L51.4277 7.58952L50.9909 50.513ZM17.6893 53.1223L17.6956 52.5016L15.1737 41.8073L15.079 41.406L15.4918 41.4084L20.8714 41.4404L21.1948 41.4423L21.1915 41.7657L21.1021 50.5447L21.1005 50.7107L20.9647 50.8066L18.2051 52.7576L17.6893 53.1223ZM21.2352 37.4715L21.2319 37.7949L20.9085 37.793L12.9387 37.7456C10.7311 37.7325 8.62891 36.7747 7.09286 35.0918C5.55756 33.4097 4.71229 31.1406 4.73626 28.7845C4.76024 26.4284 5.65159 24.1695 7.22093 22.5059C8.79105 20.8415 10.9125 19.9088 13.1201 19.9219L21.0899 19.9693L21.4133 19.9712L21.41 20.2946L21.2352 37.4715Z" fill="#18181A" stroke="#18181A" stroke-width="0.646867"/>
</g>
</svg>
