<svg width="50" height="44" viewBox="0 0 50 44" fill="none" xmlns="http://www.w3.org/2000/svg">
<path d="M1.56 1.98667C1.71111 1.89778 1.86667 1.8 2.02667 1.69333C2.19556 1.58667 2.28889 1.53333 2.30667 1.53333H3.10667C3.59556 1.53333 3.94667 1.64 4.16 1.85333C4.37333 2.05778 4.48 2.32444 4.48 2.65333C4.48 2.75111 4.47111 2.93778 4.45333 3.21333C4.44444 3.48 4.42667 3.80444 4.4 4.18667C4.37333 4.56889 4.34222 4.99555 4.30667 5.46667C4.28 5.92889 4.24889 6.39556 4.21333 6.86667C4.18667 7.33778 4.15556 7.8 4.12 8.25333C4.09333 8.70667 4.06667 9.11556 4.04 9.48C4.01333 9.83556 3.99111 10.1333 3.97333 10.3733C3.95556 10.6133 3.94222 10.7556 3.93333 10.8C3.92444 10.8711 3.90667 10.9244 3.88 10.96C3.85333 10.9867 3.8 11 3.72 11H2.98667C2.45333 11 2.08889 10.8933 1.89333 10.68C1.69778 10.4667 1.6 10.1289 1.6 9.66667C1.6 9.48 1.61333 9.19556 1.64 8.81333C1.66667 8.42222 1.69778 7.96889 1.73333 7.45333C1.77778 6.93778 1.82222 6.37333 1.86667 5.76C1.92 5.14667 1.97333 4.52 2.02667 3.88C1.92889 3.98667 1.82222 4.06222 1.70667 4.10667C1.6 4.15111 1.49333 4.17333 1.38667 4.17333C1.21778 4.17333 1.06667 4.12889 0.933333 4.04C0.808889 3.95111 0.702222 3.84444 0.613333 3.72C0.524445 3.59556 0.457778 3.46222 0.413333 3.32C0.368889 3.16889 0.346667 3.03555 0.346667 2.92C0.346667 2.87556 0.355556 2.83556 0.373333 2.8C0.4 2.76444 0.453333 2.71555 0.533333 2.65333C0.613333 2.59111 0.733333 2.51111 0.893333 2.41333C1.05333 2.30667 1.27556 2.16444 1.56 1.98667ZM13.3755 3.4L12.8689 10.8C12.86 10.9333 12.8111 11 12.7222 11H11.9889C11.4911 11 11.1355 10.9022 10.9222 10.7067C10.7089 10.5111 10.6022 10.2311 10.6022 9.86667C10.6022 9.73333 10.6066 9.53333 10.6155 9.26667C10.6333 9 10.6555 8.68889 10.6822 8.33333C10.7089 7.96889 10.7355 7.57778 10.7622 7.16C10.7978 6.73333 10.8333 6.30667 10.8689 5.88C10.9044 5.44444 10.9355 5.01333 10.9622 4.58667C10.9978 4.16 11.0289 3.76444 11.0555 3.4H8.9222C8.82442 3.4 8.77553 3.33778 8.77553 3.21333L8.81553 2.46667C8.82442 2.35111 8.8422 2.24 8.86886 2.13333C8.90442 2.01778 8.95775 1.91555 9.02886 1.82667C9.09998 1.73778 9.18886 1.66667 9.29553 1.61333C9.41109 1.56 9.54886 1.53333 9.70886 1.53333H15.6689C15.7222 1.53333 15.7711 1.54667 15.8155 1.57333C15.86 1.6 15.8822 1.64889 15.8822 1.72L15.8289 2.50667C15.8111 2.77333 15.7355 2.99111 15.6022 3.16C15.4778 3.32 15.2155 3.4 14.8155 3.4H13.3755ZM20.9676 9.34667C20.9943 9.05333 21.021 8.74667 21.0476 8.42667C21.0832 8.10667 21.1098 7.8 21.1276 7.50667C21.1543 7.21333 21.1765 6.95111 21.1943 6.72C21.2121 6.48889 21.221 6.32 21.221 6.21333C21.221 5.98222 21.1632 5.77778 21.0476 5.6C20.941 5.41333 20.7276 5.32 20.4076 5.32C19.981 5.32 19.6343 5.52 19.3676 5.92C19.1098 6.32 18.9587 6.85333 18.9143 7.52C18.8965 7.70667 18.8743 7.96889 18.8476 8.30667C18.821 8.63556 18.7943 8.97333 18.7676 9.32C18.741 9.65778 18.7143 9.96444 18.6876 10.24C18.6698 10.5067 18.661 10.6711 18.661 10.7333C18.661 10.84 18.6387 10.9111 18.5943 10.9467C18.5587 10.9822 18.4832 11 18.3676 11H17.8876C17.6121 11 17.3854 10.9733 17.2076 10.92C17.0387 10.8578 16.901 10.7733 16.7943 10.6667C16.6965 10.56 16.6254 10.4311 16.581 10.28C16.5454 10.12 16.5276 9.93778 16.5276 9.73333C16.5276 9.53778 16.541 9.26667 16.5676 8.92C16.6032 8.56444 16.6476 8.08 16.701 7.46667C16.7543 6.84444 16.8165 6.05333 16.8876 5.09333C16.9587 4.13333 17.0343 2.94222 17.1143 1.52C17.1232 1.32444 17.1454 1.20889 17.181 1.17333C17.2076 1.14667 17.2787 1.13333 17.3943 1.13333H17.9143C18.181 1.13333 18.4032 1.16444 18.581 1.22667C18.7587 1.28889 18.901 1.37333 19.0076 1.48C19.1143 1.58667 19.1898 1.71111 19.2343 1.85333C19.2787 1.98667 19.301 2.12889 19.301 2.28C19.301 2.44 19.2832 2.73778 19.2476 3.17333C19.221 3.60889 19.1854 4.12 19.141 4.70667C19.4076 4.26222 19.701 3.95556 20.021 3.78667C20.3498 3.61778 20.7632 3.53333 21.261 3.53333C21.6343 3.53333 21.9587 3.57333 22.2343 3.65333C22.5098 3.73333 22.7365 3.87111 22.9143 4.06667C23.101 4.25333 23.2387 4.50222 23.3276 4.81333C23.4165 5.11556 23.461 5.49333 23.461 5.94667C23.461 6.08889 23.4476 6.33333 23.421 6.68C23.3943 7.02667 23.3587 7.42222 23.3143 7.86667C23.2787 8.31111 23.2387 8.77778 23.1943 9.26667C23.1587 9.74667 23.1276 10.1867 23.101 10.5867C23.0921 10.6844 23.0832 10.76 23.0743 10.8133C23.0654 10.8667 23.0476 10.9067 23.021 10.9333C23.0032 10.96 22.9721 10.9778 22.9276 10.9867C22.8832 10.9956 22.821 11 22.741 11H22.3143C22.0298 11 21.7987 10.9733 21.621 10.92C21.4432 10.8667 21.3054 10.7911 21.2076 10.6933C21.1098 10.5956 21.0387 10.4756 20.9943 10.3333C20.9587 10.1822 20.941 10.0133 20.941 9.82667C20.941 9.73778 20.941 9.65333 20.941 9.57333C20.9498 9.49333 20.9587 9.41778 20.9676 9.34667ZM26.3924 11C26.1169 11 25.8902 10.9733 25.7124 10.92C25.5435 10.8578 25.4057 10.7733 25.2991 10.6667C25.2013 10.56 25.1302 10.4311 25.0857 10.28C25.0502 10.12 25.0324 9.93778 25.0324 9.73333C25.0324 9.6 25.0369 9.41333 25.0457 9.17333C25.0635 8.92444 25.0902 8.58667 25.1257 8.16C25.1613 7.72444 25.2013 7.17778 25.2457 6.52C25.2991 5.85333 25.3613 5.03111 25.4324 4.05333C25.4413 3.85778 25.4635 3.74222 25.4991 3.70667C25.5257 3.68 25.5969 3.66667 25.7124 3.66667H26.2324C26.508 3.66667 26.7302 3.69333 26.8991 3.74667C27.0769 3.8 27.2146 3.88 27.3124 3.98667C27.4191 4.09333 27.4902 4.22222 27.5257 4.37333C27.5702 4.52444 27.5924 4.69333 27.5924 4.88C27.5924 5.01333 27.5835 5.21333 27.5657 5.48C27.548 5.74667 27.5213 6.11111 27.4857 6.57333C27.4591 7.02667 27.4191 7.59556 27.3657 8.28C27.3124 8.95556 27.2457 9.77333 27.1657 10.7333C27.1569 10.84 27.1346 10.9111 27.0991 10.9467C27.0635 10.9822 26.988 11 26.8724 11H26.3924ZM25.4457 2.09333C25.4457 1.73778 25.5746 1.45778 25.8324 1.25333C26.0902 1.04889 26.4369 0.946666 26.8724 0.946666C27.2546 0.946666 27.5302 1.02667 27.6991 1.18667C27.8769 1.33778 27.9657 1.54222 27.9657 1.8C27.9657 2.12889 27.8413 2.40444 27.5924 2.62667C27.3524 2.84 26.9969 2.94667 26.5257 2.94667C25.8057 2.94667 25.4457 2.66222 25.4457 2.09333ZM33.6819 9.82667C33.6819 9.63111 33.6952 9.37778 33.7219 9.06667C33.7575 8.74667 33.7886 8.41333 33.8152 8.06667C33.8508 7.71111 33.8819 7.36889 33.9086 7.04C33.9441 6.71111 33.9619 6.43556 33.9619 6.21333C33.9619 5.98222 33.9041 5.77778 33.7886 5.6C33.6819 5.41333 33.4686 5.32 33.1486 5.32C32.8375 5.32 32.5797 5.39555 32.3752 5.54667C32.1708 5.69778 31.9975 5.97333 31.8552 6.37333C31.7219 6.77333 31.6108 7.32444 31.5219 8.02667C31.433 8.72889 31.3486 9.63111 31.2686 10.7333C31.2597 10.84 31.2375 10.9111 31.2019 10.9467C31.1663 10.9822 31.0908 11 30.9752 11H30.4952C30.2197 11 29.993 10.9733 29.8152 10.92C29.6463 10.8578 29.5086 10.7733 29.4019 10.6667C29.3041 10.56 29.233 10.4311 29.1886 10.28C29.153 10.12 29.1352 9.93778 29.1352 9.73333C29.1352 9.6 29.1397 9.41333 29.1486 9.17333C29.1663 8.92444 29.193 8.58667 29.2286 8.16C29.2641 7.72444 29.3041 7.17778 29.3486 6.52C29.4019 5.85333 29.4641 5.03111 29.5352 4.05333C29.5441 3.85778 29.5663 3.74222 29.6019 3.70667C29.6286 3.68 29.6997 3.66667 29.8152 3.66667H30.3352C30.6019 3.66667 30.8197 3.69778 30.9886 3.76C31.1663 3.82222 31.3086 3.90667 31.4152 4.01333C31.5219 4.11111 31.5975 4.23111 31.6419 4.37333C31.6863 4.50667 31.713 4.64444 31.7219 4.78667C31.9975 4.31555 32.313 3.99111 32.6686 3.81333C33.0241 3.62667 33.4686 3.53333 34.0019 3.53333C34.3752 3.53333 34.6997 3.57333 34.9752 3.65333C35.2508 3.73333 35.4775 3.87111 35.6552 4.06667C35.8419 4.25333 35.9797 4.50222 36.0686 4.81333C36.1575 5.11556 36.2019 5.49333 36.2019 5.94667C36.2019 6.08889 36.193 6.29333 36.1752 6.56C36.1575 6.82667 36.1352 7.12 36.1086 7.44C36.0819 7.75111 36.0508 8.08 36.0152 8.42667C35.9886 8.76444 35.9619 9.08 35.9352 9.37333C35.9086 9.66667 35.8863 9.92444 35.8686 10.1467C35.8508 10.3689 35.8419 10.5156 35.8419 10.5867C35.8419 10.7822 35.8197 10.9022 35.7752 10.9467C35.7308 10.9822 35.633 11 35.4819 11H35.0552C34.7708 11 34.5397 10.9733 34.3619 10.92C34.1841 10.8667 34.0463 10.7911 33.9486 10.6933C33.8508 10.5956 33.7797 10.4756 33.7352 10.3333C33.6997 10.1822 33.6819 10.0133 33.6819 9.82667ZM42.1166 9.42667C41.8944 9.82667 41.6233 10.1244 41.3033 10.32C40.9833 10.5067 40.5833 10.6 40.1033 10.6C39.7388 10.6 39.4055 10.5422 39.1033 10.4267C38.801 10.3111 38.5433 10.1289 38.3299 9.88C38.1166 9.63111 37.9477 9.32 37.8233 8.94667C37.7077 8.56444 37.6499 8.11111 37.6499 7.58667C37.6499 7.16 37.6944 6.71111 37.7833 6.24C37.8721 5.76 38.0321 5.32 38.2633 4.92C38.5033 4.52 38.8277 4.19111 39.2366 3.93333C39.6455 3.66667 40.1699 3.53333 40.8099 3.53333C41.0766 3.53333 41.3033 3.56444 41.4899 3.62667C41.6855 3.68 41.8499 3.75555 41.9833 3.85333C42.1255 3.95111 42.2366 4.06667 42.3166 4.2C42.4055 4.33333 42.4721 4.47555 42.5166 4.62667C42.5166 4.63555 42.5166 4.60444 42.5166 4.53333C42.5255 4.45333 42.5344 4.36444 42.5433 4.26667C42.5521 4.16889 42.5566 4.07555 42.5566 3.98667C42.5655 3.88889 42.5699 3.82667 42.5699 3.8C42.5788 3.71111 42.6366 3.66667 42.7433 3.66667H43.3566C43.8188 3.66667 44.1521 3.76444 44.3566 3.96C44.5699 4.14667 44.6766 4.50667 44.6766 5.04C44.6766 5.11111 44.6721 5.27556 44.6633 5.53333C44.6544 5.78222 44.6366 6.08444 44.6099 6.44C44.5921 6.79556 44.5655 7.19111 44.5299 7.62667C44.4944 8.05333 44.4544 8.48444 44.4099 8.92C44.3655 9.35556 44.3166 9.77333 44.2633 10.1733C44.2099 10.5733 44.1521 10.9244 44.0899 11.2267C44.0277 11.5289 43.921 11.8222 43.7699 12.1067C43.6188 12.3911 43.4055 12.6444 43.1299 12.8667C42.8544 13.0889 42.4988 13.2667 42.0633 13.4C41.6366 13.5333 41.1121 13.6 40.4899 13.6C40.0188 13.6 39.6055 13.5556 39.2499 13.4667C38.9033 13.3778 38.6144 13.2578 38.3833 13.1067C38.1521 12.9644 37.9744 12.8 37.8499 12.6133C37.7344 12.4267 37.6766 12.24 37.6766 12.0533C37.6766 11.8844 37.7121 11.7378 37.7833 11.6133C37.8544 11.4889 37.9477 11.3867 38.0633 11.3067C38.1788 11.2267 38.3033 11.1644 38.4366 11.12C38.5788 11.0844 38.7121 11.0667 38.8366 11.0667C38.9877 11.0667 39.0988 11.1111 39.1699 11.2C39.241 11.2889 39.321 11.3867 39.4099 11.4933C39.4988 11.6089 39.6233 11.7111 39.7833 11.8C39.9433 11.8889 40.1921 11.9333 40.5299 11.9333C41.1166 11.9333 41.5255 11.7156 41.7566 11.28C41.9966 10.8533 42.1166 10.2356 42.1166 9.42667ZM40.9966 8.82667C41.3166 8.82667 41.5655 8.75111 41.7433 8.6C41.9299 8.44889 42.0721 8.26667 42.1699 8.05333C42.2677 7.84 42.3299 7.61778 42.3566 7.38667C42.3833 7.15556 42.3966 6.95556 42.3966 6.78667C42.3966 6.25333 42.3121 5.87556 42.1433 5.65333C41.9833 5.42222 41.7388 5.30667 41.4099 5.30667C41.081 5.30667 40.8233 5.39556 40.6366 5.57333C40.4499 5.75111 40.3077 5.96444 40.2099 6.21333C40.121 6.45333 40.0633 6.69778 40.0366 6.94667C40.0099 7.18667 39.9966 7.37333 39.9966 7.50667C39.9966 7.95111 40.0721 8.28444 40.2233 8.50667C40.3744 8.72 40.6321 8.82667 40.9966 8.82667ZM4.88 17.5333C5.10222 17.5333 5.28445 17.5778 5.42667 17.6667C5.57778 17.7467 5.70222 17.8578 5.8 18C5.89778 18.1333 5.97778 18.2889 6.04 18.4667C6.10222 18.6444 6.15556 18.8267 6.2 19.0133C6.55556 20.4533 6.84889 21.64 7.08 22.5733C7.31111 23.5067 7.49333 24.2622 7.62667 24.84C7.76 25.4089 7.85333 25.8311 7.90667 26.1067C7.96 26.3822 7.98667 26.5733 7.98667 26.68C7.98667 26.8044 7.95556 26.8889 7.89333 26.9333C7.84 26.9778 7.75111 27 7.62667 27H6.94667C6.56445 27 6.25778 26.9556 6.02667 26.8667C5.80444 26.7689 5.63111 26.6311 5.50667 26.4533C5.39111 26.2756 5.30667 26.0622 5.25333 25.8133C5.2 25.5556 5.15556 25.2667 5.12 24.9467H2.8L2.36 26.7867C2.31556 26.9289 2.21333 27 2.05333 27H1.34667C1.20444 27 1.05778 26.9867 0.906667 26.96C0.755556 26.9244 0.617778 26.8711 0.493333 26.8C0.377778 26.7289 0.28 26.64 0.2 26.5333C0.12 26.4178 0.08 26.28 0.08 26.12C0.08 25.9244 0.142222 25.6044 0.266667 25.16C0.391111 24.7156 0.546667 24.2133 0.733333 23.6533C0.928889 23.0844 1.14222 22.4933 1.37333 21.88C1.61333 21.2578 1.84444 20.6711 2.06667 20.12C2.28889 19.5689 2.48889 19.0844 2.66667 18.6667C2.85333 18.2489 2.99556 17.9556 3.09333 17.7867C3.16444 17.6622 3.22667 17.5911 3.28 17.5733C3.34222 17.5467 3.45333 17.5333 3.61333 17.5333H4.88ZM3.28 23.0133H4.81333L4.25333 19.4933L3.28 23.0133ZM13.4239 25.4267C13.2016 25.8267 12.9305 26.1244 12.6105 26.32C12.2905 26.5067 11.8905 26.6 11.4105 26.6C11.0461 26.6 10.7127 26.5422 10.4105 26.4267C10.1083 26.3111 9.85053 26.1289 9.63719 25.88C9.42386 25.6311 9.25497 25.32 9.13053 24.9467C9.01497 24.5644 8.95719 24.1111 8.95719 23.5867C8.95719 23.16 9.00164 22.7111 9.09053 22.24C9.17942 21.76 9.33942 21.32 9.57053 20.92C9.81053 20.52 10.135 20.1911 10.5439 19.9333C10.9527 19.6667 11.4772 19.5333 12.1172 19.5333C12.3839 19.5333 12.6105 19.5644 12.7972 19.6267C12.9927 19.68 13.1572 19.7556 13.2905 19.8533C13.4327 19.9511 13.5439 20.0667 13.6239 20.2C13.7127 20.3333 13.7794 20.4756 13.8239 20.6267C13.8239 20.6356 13.8239 20.6044 13.8239 20.5333C13.8327 20.4533 13.8416 20.3644 13.8505 20.2667C13.8594 20.1689 13.8639 20.0756 13.8639 19.9867C13.8727 19.8889 13.8772 19.8267 13.8772 19.8C13.8861 19.7111 13.9439 19.6667 14.0505 19.6667H14.6639C15.1261 19.6667 15.4594 19.7644 15.6639 19.96C15.8772 20.1467 15.9839 20.5067 15.9839 21.04C15.9839 21.1111 15.9794 21.2756 15.9705 21.5333C15.9616 21.7822 15.9439 22.0844 15.9172 22.44C15.8994 22.7956 15.8727 23.1911 15.8372 23.6267C15.8016 24.0533 15.7616 24.4844 15.7172 24.92C15.6727 25.3556 15.6239 25.7733 15.5705 26.1733C15.5172 26.5733 15.4594 26.9244 15.3972 27.2267C15.335 27.5289 15.2283 27.8222 15.0772 28.1067C14.9261 28.3911 14.7127 28.6444 14.4372 28.8667C14.1616 29.0889 13.8061 29.2667 13.3705 29.4C12.9439 29.5333 12.4194 29.6 11.7972 29.6C11.3261 29.6 10.9127 29.5556 10.5572 29.4667C10.2105 29.3778 9.92164 29.2578 9.69053 29.1067C9.45942 28.9644 9.28164 28.8 9.15719 28.6133C9.04164 28.4267 8.98386 28.24 8.98386 28.0533C8.98386 27.8844 9.01942 27.7378 9.09053 27.6133C9.16164 27.4889 9.25497 27.3867 9.37053 27.3067C9.48608 27.2267 9.61053 27.1644 9.74386 27.12C9.88608 27.0844 10.0194 27.0667 10.1439 27.0667C10.295 27.0667 10.4061 27.1111 10.4772 27.2C10.5483 27.2889 10.6283 27.3867 10.7172 27.4933C10.8061 27.6089 10.9305 27.7111 11.0905 27.8C11.2505 27.8889 11.4994 27.9333 11.8372 27.9333C12.4239 27.9333 12.8327 27.7156 13.0639 27.28C13.3039 26.8533 13.4239 26.2356 13.4239 25.4267ZM12.3039 24.8267C12.6239 24.8267 12.8727 24.7511 13.0505 24.6C13.2372 24.4489 13.3794 24.2667 13.4772 24.0533C13.575 23.84 13.6372 23.6178 13.6639 23.3867C13.6905 23.1556 13.7039 22.9556 13.7039 22.7867C13.7039 22.2533 13.6194 21.8756 13.4505 21.6533C13.2905 21.4222 13.0461 21.3067 12.7172 21.3067C12.3883 21.3067 12.1305 21.3956 11.9439 21.5733C11.7572 21.7511 11.615 21.9644 11.5172 22.2133C11.4283 22.4533 11.3705 22.6978 11.3439 22.9467C11.3172 23.1867 11.3039 23.3733 11.3039 23.5067C11.3039 23.9511 11.3794 24.2844 11.5305 24.5067C11.6816 24.72 11.9394 24.8267 12.3039 24.8267ZM17.129 25.36C17.129 24.56 17.489 23.9333 18.209 23.48C18.929 23.0267 19.9912 22.7822 21.3956 22.7467C21.4045 22.6489 21.409 22.5689 21.409 22.5067C21.4179 22.4356 21.4223 22.3511 21.4223 22.2533C21.4223 21.9689 21.369 21.7422 21.2623 21.5733C21.1556 21.4044 20.9334 21.32 20.5956 21.32C20.409 21.32 20.2579 21.3467 20.1423 21.4C20.0267 21.4533 19.9334 21.5289 19.8623 21.6267C19.7912 21.7156 19.7334 21.8267 19.689 21.96C19.6445 22.0933 19.6045 22.24 19.569 22.4C19.5512 22.48 19.5112 22.5333 19.449 22.56C19.3867 22.5778 19.289 22.5867 19.1556 22.5867C18.249 22.5867 17.7956 22.2444 17.7956 21.56C17.7956 21.2844 17.8579 21.0222 17.9823 20.7733C18.1156 20.5244 18.3067 20.3111 18.5556 20.1333C18.8134 19.9467 19.1334 19.8 19.5156 19.6933C19.8979 19.5867 20.3423 19.5333 20.849 19.5333C21.8356 19.5333 22.5512 19.7378 22.9956 20.1467C23.4401 20.5556 23.6623 21.1333 23.6623 21.88C23.6623 21.9778 23.649 22.1556 23.6223 22.4133C23.6045 22.6622 23.5779 22.9289 23.5423 23.2133C23.5156 23.4889 23.489 23.7511 23.4623 24C23.4445 24.2489 23.4356 24.4222 23.4356 24.52C23.4356 24.7422 23.4756 24.9022 23.5556 25C23.6356 25.0889 23.7245 25.1511 23.8223 25.1867C23.929 25.2222 24.0223 25.2489 24.1023 25.2667C24.1823 25.2844 24.2223 25.3289 24.2223 25.4C24.2223 25.5956 24.1956 25.7956 24.1423 26C24.089 26.2044 24.0001 26.3911 23.8756 26.56C23.7601 26.7289 23.5956 26.8667 23.3823 26.9733C23.1779 27.08 22.9245 27.1333 22.6223 27.1333C22.1956 27.1333 21.8756 27.0311 21.6623 26.8267C21.449 26.6222 21.3067 26.3378 21.2356 25.9733C21.0223 26.2844 20.7423 26.5556 20.3956 26.7867C20.0579 27.0178 19.6134 27.1333 19.0623 27.1333C18.7956 27.1333 18.5423 27.1022 18.3023 27.04C18.0712 26.9778 17.8667 26.8756 17.689 26.7333C17.5201 26.5911 17.3823 26.4089 17.2756 26.1867C17.1779 25.9556 17.129 25.68 17.129 25.36ZM21.2756 23.84C21.0445 23.84 20.8179 23.8578 20.5956 23.8933C20.3734 23.9289 20.1734 23.9867 19.9956 24.0667C19.8267 24.1378 19.689 24.2356 19.5823 24.36C19.4756 24.4844 19.4223 24.6356 19.4223 24.8133C19.4223 25.0178 19.4845 25.16 19.609 25.24C19.7423 25.32 19.8845 25.36 20.0356 25.36C20.1779 25.36 20.3201 25.3289 20.4623 25.2667C20.6045 25.2044 20.729 25.1111 20.8356 24.9867C20.9512 24.8533 21.049 24.6933 21.129 24.5067C21.209 24.32 21.2579 24.0978 21.2756 23.84ZM26.7815 27C26.5059 27 26.2793 26.9733 26.1015 26.92C25.9326 26.8578 25.7948 26.7733 25.6881 26.6667C25.5904 26.56 25.5193 26.4311 25.4748 26.28C25.4393 26.12 25.4215 25.9378 25.4215 25.7333C25.4215 25.6 25.4259 25.4133 25.4348 25.1733C25.4526 24.9244 25.4793 24.5867 25.5148 24.16C25.5504 23.7244 25.5904 23.1778 25.6348 22.52C25.6881 21.8533 25.7504 21.0311 25.8215 20.0533C25.8304 19.8578 25.8526 19.7422 25.8881 19.7067C25.9148 19.68 25.9859 19.6667 26.1015 19.6667H26.6215C26.897 19.6667 27.1193 19.6933 27.2881 19.7467C27.4659 19.8 27.6037 19.88 27.7015 19.9867C27.8081 20.0933 27.8793 20.2222 27.9148 20.3733C27.9593 20.5244 27.9815 20.6933 27.9815 20.88C27.9815 21.0133 27.9726 21.2133 27.9548 21.48C27.937 21.7467 27.9104 22.1111 27.8748 22.5733C27.8481 23.0267 27.8081 23.5956 27.7548 24.28C27.7015 24.9556 27.6348 25.7733 27.5548 26.7333C27.5459 26.84 27.5237 26.9111 27.4881 26.9467C27.4526 26.9822 27.377 27 27.2615 27H26.7815ZM25.8348 18.0933C25.8348 17.7378 25.9637 17.4578 26.2215 17.2533C26.4793 17.0489 26.8259 16.9467 27.2615 16.9467C27.6437 16.9467 27.9193 17.0267 28.0881 17.1867C28.2659 17.3378 28.3548 17.5422 28.3548 17.8C28.3548 18.1289 28.2304 18.4044 27.9815 18.6267C27.7415 18.84 27.3859 18.9467 26.9148 18.9467C26.1948 18.9467 25.8348 18.6622 25.8348 18.0933ZM34.071 25.8267C34.071 25.6311 34.0843 25.3778 34.111 25.0667C34.1465 24.7467 34.1776 24.4133 34.2043 24.0667C34.2398 23.7111 34.271 23.3689 34.2976 23.04C34.3332 22.7111 34.351 22.4356 34.351 22.2133C34.351 21.9822 34.2932 21.7778 34.1776 21.6C34.071 21.4133 33.8576 21.32 33.5376 21.32C33.2265 21.32 32.9687 21.3956 32.7643 21.5467C32.5598 21.6978 32.3865 21.9733 32.2443 22.3733C32.111 22.7733 31.9998 23.3244 31.911 24.0267C31.8221 24.7289 31.7376 25.6311 31.6576 26.7333C31.6487 26.84 31.6265 26.9111 31.591 26.9467C31.5554 26.9822 31.4798 27 31.3643 27H30.8843C30.6087 27 30.3821 26.9733 30.2043 26.92C30.0354 26.8578 29.8976 26.7733 29.791 26.6667C29.6932 26.56 29.6221 26.4311 29.5776 26.28C29.5421 26.12 29.5243 25.9378 29.5243 25.7333C29.5243 25.6 29.5287 25.4133 29.5376 25.1733C29.5554 24.9244 29.5821 24.5867 29.6176 24.16C29.6532 23.7244 29.6932 23.1778 29.7376 22.52C29.791 21.8533 29.8532 21.0311 29.9243 20.0533C29.9332 19.8578 29.9554 19.7422 29.991 19.7067C30.0176 19.68 30.0887 19.6667 30.2043 19.6667H30.7243C30.991 19.6667 31.2087 19.6978 31.3776 19.76C31.5554 19.8222 31.6976 19.9067 31.8043 20.0133C31.911 20.1111 31.9865 20.2311 32.031 20.3733C32.0754 20.5067 32.1021 20.6444 32.111 20.7867C32.3865 20.3156 32.7021 19.9911 33.0576 19.8133C33.4132 19.6267 33.8576 19.5333 34.391 19.5333C34.7643 19.5333 35.0887 19.5733 35.3643 19.6533C35.6398 19.7333 35.8665 19.8711 36.0443 20.0667C36.231 20.2533 36.3687 20.5022 36.4576 20.8133C36.5465 21.1156 36.591 21.4933 36.591 21.9467C36.591 22.0889 36.5821 22.2933 36.5643 22.56C36.5465 22.8267 36.5243 23.12 36.4976 23.44C36.471 23.7511 36.4398 24.08 36.4043 24.4267C36.3776 24.7644 36.351 25.08 36.3243 25.3733C36.2976 25.6667 36.2754 25.9244 36.2576 26.1467C36.2398 26.3689 36.231 26.5156 36.231 26.5867C36.231 26.7822 36.2087 26.9022 36.1643 26.9467C36.1198 26.9822 36.0221 27 35.871 27H35.4443C35.1598 27 34.9287 26.9733 34.751 26.92C34.5732 26.8667 34.4354 26.7911 34.3376 26.6933C34.2398 26.5956 34.1687 26.4756 34.1243 26.3333C34.0887 26.1822 34.071 26.0133 34.071 25.8267ZM41.2523 19.5333C42.0079 19.5333 42.5634 19.6844 42.919 19.9867C43.2745 20.28 43.4523 20.6578 43.4523 21.12C43.4523 21.5111 43.3279 21.8089 43.079 22.0133C42.839 22.2178 42.4879 22.32 42.0257 22.32C41.9012 22.32 41.8168 22.3067 41.7723 22.28C41.7279 22.2533 41.7057 22.2044 41.7057 22.1333C41.7057 22.0533 41.6968 21.9644 41.679 21.8667C41.6701 21.76 41.639 21.6622 41.5857 21.5733C41.5412 21.4756 41.4657 21.3956 41.359 21.3333C41.2612 21.2711 41.119 21.24 40.9323 21.24C40.6834 21.24 40.4834 21.3022 40.3323 21.4267C40.1812 21.5422 40.1057 21.6889 40.1057 21.8667C40.1057 22.0533 40.1812 22.2044 40.3323 22.32C40.4923 22.4267 40.6879 22.5289 40.919 22.6267C41.159 22.7244 41.4168 22.8267 41.6923 22.9333C41.9679 23.0311 42.2212 23.1644 42.4523 23.3333C42.6923 23.5022 42.8879 23.7156 43.039 23.9733C43.199 24.2222 43.279 24.5467 43.279 24.9467C43.279 25.5867 43.0523 26.1111 42.599 26.52C42.1457 26.9289 41.4657 27.1333 40.559 27.1333C40.3101 27.1333 40.0212 27.1111 39.6923 27.0667C39.3723 27.0311 39.0657 26.9733 38.7723 26.8933C38.479 26.8044 38.2301 26.6889 38.0257 26.5467C37.8301 26.4044 37.7323 26.2267 37.7323 26.0133C37.7323 25.9333 37.7457 25.8356 37.7723 25.72C37.8079 25.6044 37.8568 25.4933 37.919 25.3867C37.9901 25.28 38.0701 25.1911 38.159 25.12C38.2568 25.04 38.3723 25 38.5057 25C38.6123 25 38.7101 25.0267 38.799 25.08C38.8879 25.1333 38.9901 25.1911 39.1057 25.2533C39.2301 25.3067 39.3812 25.36 39.559 25.4133C39.7368 25.4667 39.9723 25.4933 40.2657 25.4933C40.4879 25.4933 40.6834 25.4667 40.8523 25.4133C41.0301 25.36 41.119 25.24 41.119 25.0533C41.119 24.8844 41.0479 24.7511 40.9057 24.6533C40.7634 24.5467 40.5812 24.4489 40.359 24.36C40.1457 24.2711 39.9101 24.1778 39.6523 24.08C39.4034 23.9733 39.1679 23.8356 38.9457 23.6667C38.7323 23.4978 38.5545 23.2844 38.4123 23.0267C38.2701 22.76 38.199 22.4178 38.199 22C38.199 21.5467 38.2879 21.1644 38.4657 20.8533C38.6523 20.5333 38.8879 20.2756 39.1723 20.08C39.4657 19.8844 39.7945 19.7467 40.159 19.6667C40.5234 19.5778 40.8879 19.5333 41.2523 19.5333ZM47.6415 21.4667C47.6148 21.8044 47.5837 22.1378 47.5482 22.4667C47.5215 22.7956 47.4948 23.1067 47.4682 23.4C47.4415 23.6933 47.4193 23.9556 47.4015 24.1867C47.3926 24.4178 47.3882 24.5956 47.3882 24.72C47.3882 24.9511 47.4148 25.1067 47.4682 25.1867C47.5215 25.2578 47.6104 25.2933 47.7348 25.2933C47.8326 25.2933 47.917 25.2756 47.9882 25.24C48.0593 25.2044 48.1259 25.1644 48.1882 25.12C48.2504 25.0756 48.3037 25.0356 48.3482 25C48.4015 24.9644 48.4593 24.9467 48.5215 24.9467C48.5837 24.9467 48.6415 24.9822 48.6948 25.0533C48.7482 25.1244 48.7748 25.2889 48.7748 25.5467C48.7748 26.0356 48.6415 26.4222 48.3748 26.7067C48.1082 26.9911 47.6504 27.1333 47.0015 27.1333C46.3615 27.1333 45.8859 26.9867 45.5748 26.6933C45.2726 26.3911 45.1215 25.9333 45.1215 25.32C45.1215 25.1867 45.1259 25.0311 45.1348 24.8533C45.1526 24.6667 45.1748 24.4267 45.2015 24.1333C45.2282 23.84 45.2593 23.48 45.2948 23.0533C45.3393 22.6267 45.3837 22.0978 45.4282 21.4667H44.7215C44.6504 21.4667 44.6059 21.4533 44.5882 21.4267C44.5793 21.3911 44.5748 21.3422 44.5748 21.28L44.6148 20.6C44.6237 20.4844 44.637 20.3733 44.6548 20.2667C44.6815 20.1511 44.7259 20.0489 44.7882 19.96C44.8593 19.8711 44.957 19.8 45.0815 19.7467C45.2059 19.6933 45.3704 19.6667 45.5748 19.6667C45.637 19.5067 45.7082 19.3156 45.7882 19.0933C45.8682 18.8711 45.9482 18.6578 46.0282 18.4533C46.1082 18.24 46.1837 18.0622 46.2548 17.92C46.3348 17.7778 46.4059 17.7067 46.4682 17.7067H46.8548C47.2282 17.7067 47.4859 17.8222 47.6282 18.0533C47.7704 18.2844 47.8415 18.56 47.8415 18.88C47.8415 19.0578 47.8282 19.32 47.8015 19.6667H49.2015C49.3437 19.6667 49.4148 19.7289 49.4148 19.8533L49.3615 20.5733C49.3437 20.84 49.2682 21.0578 49.1348 21.2267C49.0104 21.3867 48.7482 21.4667 48.3482 21.4667H47.6415ZM2.06667 43C1.56 43 1.2 42.9022 0.986667 42.7067C0.782222 42.5022 0.68 42.2044 0.68 41.8133C0.68 41.7067 0.684445 41.5289 0.693333 41.28C0.711111 41.0222 0.733333 40.72 0.76 40.3733C0.786667 40.0267 0.813333 39.6489 0.84 39.24C0.875556 38.8222 0.911111 38.4 0.946667 37.9733C1.01778 37.0756 1.06667 36.3467 1.09333 35.7867C1.12889 35.2267 1.15556 34.7867 1.17333 34.4667C1.2 34.0667 1.22667 33.8133 1.25333 33.7067C1.28 33.5911 1.33778 33.5333 1.42667 33.5333C1.70222 33.5333 1.98222 33.5289 2.26667 33.52C2.56 33.5022 2.84 33.4844 3.10667 33.4667C3.37333 33.4489 3.62222 33.4356 3.85333 33.4267C4.09333 33.4089 4.30667 33.4 4.49333 33.4C5.06222 33.4 5.55111 33.4711 5.96 33.6133C6.36889 33.7556 6.69778 33.9556 6.94667 34.2133C7.20445 34.4711 7.39111 34.7822 7.50667 35.1467C7.63111 35.5111 7.69333 35.92 7.69333 36.3733C7.69333 37.0667 7.55556 37.6844 7.28 38.2267C7.00445 38.7689 6.56445 39.1822 5.96 39.4667L7.08 41.0667C7.28445 41.3689 7.44 41.6044 7.54667 41.7733C7.65333 41.9333 7.70667 42.0533 7.70667 42.1333C7.70667 42.1956 7.66667 42.2844 7.58667 42.4C7.51556 42.5067 7.40445 42.6178 7.25333 42.7333C7.11111 42.84 6.93333 42.9333 6.72 43.0133C6.51556 43.0933 6.28445 43.1333 6.02667 43.1333C5.74222 43.1333 5.49333 43.04 5.28 42.8533C5.07556 42.6667 4.88889 42.4222 4.72 42.12C4.56 41.8089 4.41778 41.4533 4.29333 41.0533C4.17778 40.6533 4.06667 40.2356 3.96 39.8C3.64 39.7822 3.37778 39.7511 3.17333 39.7067C3.14667 40.0978 3.12 40.4711 3.09333 40.8267C3.06667 41.1822 3.04444 41.5022 3.02667 41.7867C3.00889 42.0622 2.99111 42.2933 2.97333 42.48C2.95556 42.6578 2.94667 42.7644 2.94667 42.8C2.93778 42.8711 2.92 42.9244 2.89333 42.96C2.86667 42.9867 2.81333 43 2.73333 43H2.06667ZM4.22667 35.4C4.12 35.4 4 35.4089 3.86667 35.4267C3.73333 35.4356 3.59111 35.4489 3.44 35.4667C3.42222 35.7778 3.4 36.1511 3.37333 36.5867C3.35556 37.0133 3.32889 37.4711 3.29333 37.96C3.60444 38.0311 3.87556 38.0667 4.10667 38.0667C4.38222 38.0667 4.60444 38.0133 4.77333 37.9067C4.95111 37.8 5.08889 37.6711 5.18667 37.52C5.28444 37.36 5.34667 37.1911 5.37333 37.0133C5.40889 36.8356 5.42667 36.6756 5.42667 36.5333C5.42667 36.1689 5.33778 35.8889 5.16 35.6933C4.98222 35.4978 4.67111 35.4 4.22667 35.4ZM8.74198 41.36C8.74198 40.56 9.10198 39.9333 9.82198 39.48C10.542 39.0267 11.6042 38.7822 13.0087 38.7467C13.0175 38.6489 13.022 38.5689 13.022 38.5067C13.0309 38.4356 13.0353 38.3511 13.0353 38.2533C13.0353 37.9689 12.982 37.7422 12.8753 37.5733C12.7687 37.4044 12.5464 37.32 12.2087 37.32C12.022 37.32 11.8709 37.3467 11.7553 37.4C11.6398 37.4533 11.5464 37.5289 11.4753 37.6267C11.4042 37.7156 11.3464 37.8267 11.302 37.96C11.2575 38.0933 11.2175 38.24 11.182 38.4C11.1642 38.48 11.1242 38.5333 11.062 38.56C10.9998 38.5778 10.902 38.5867 10.7687 38.5867C9.86198 38.5867 9.40865 38.2444 9.40865 37.56C9.40865 37.2844 9.47087 37.0222 9.59532 36.7733C9.72865 36.5244 9.91976 36.3111 10.1687 36.1333C10.4264 35.9467 10.7464 35.8 11.1287 35.6933C11.5109 35.5867 11.9553 35.5333 12.462 35.5333C13.4487 35.5333 14.1642 35.7378 14.6087 36.1467C15.0531 36.5556 15.2753 37.1333 15.2753 37.88C15.2753 37.9778 15.262 38.1556 15.2353 38.4133C15.2175 38.6622 15.1909 38.9289 15.1553 39.2133C15.1287 39.4889 15.102 39.7511 15.0753 40C15.0575 40.2489 15.0487 40.4222 15.0487 40.52C15.0487 40.7422 15.0887 40.9022 15.1687 41C15.2487 41.0889 15.3375 41.1511 15.4353 41.1867C15.542 41.2222 15.6353 41.2489 15.7153 41.2667C15.7953 41.2844 15.8353 41.3289 15.8353 41.4C15.8353 41.5956 15.8087 41.7956 15.7553 42C15.702 42.2044 15.6131 42.3911 15.4887 42.56C15.3731 42.7289 15.2087 42.8667 14.9953 42.9733C14.7909 43.08 14.5375 43.1333 14.2353 43.1333C13.8087 43.1333 13.4887 43.0311 13.2753 42.8267C13.062 42.6222 12.9198 42.3378 12.8487 41.9733C12.6353 42.2844 12.3553 42.5556 12.0087 42.7867C11.6709 43.0178 11.2264 43.1333 10.6753 43.1333C10.4087 43.1333 10.1553 43.1022 9.91532 43.04C9.68421 42.9778 9.47976 42.8756 9.30198 42.7333C9.1331 42.5911 8.99532 42.4089 8.88865 42.1867C8.79087 41.9556 8.74198 41.68 8.74198 41.36ZM12.8887 39.84C12.6575 39.84 12.4309 39.8578 12.2087 39.8933C11.9864 39.9289 11.7864 39.9867 11.6087 40.0667C11.4398 40.1378 11.302 40.2356 11.1953 40.36C11.0887 40.4844 11.0353 40.6356 11.0353 40.8133C11.0353 41.0178 11.0975 41.16 11.222 41.24C11.3553 41.32 11.4975 41.36 11.6487 41.36C11.7909 41.36 11.9331 41.3289 12.0753 41.2667C12.2175 41.2044 12.342 41.1111 12.4487 40.9867C12.5642 40.8533 12.662 40.6933 12.742 40.5067C12.822 40.32 12.8709 40.0978 12.8887 39.84ZM20.3812 41.36C20.6389 41.36 20.8612 41.3244 21.0478 41.2533C21.2434 41.1822 21.4123 41.1022 21.5545 41.0133C21.6967 40.9244 21.8167 40.8444 21.9145 40.7733C22.0123 40.7022 22.1012 40.6667 22.1812 40.6667C22.3856 40.6667 22.4878 40.8 22.4878 41.0667C22.4878 41.1289 22.4745 41.2178 22.4478 41.3333C22.4212 41.44 22.3856 41.5556 22.3412 41.68C22.2967 41.7956 22.2478 41.9067 22.1945 42.0133C22.15 42.12 22.1056 42.2 22.0612 42.2533C22.0167 42.2978 21.9367 42.3689 21.8212 42.4667C21.7145 42.5644 21.5678 42.6622 21.3812 42.76C21.1945 42.8578 20.9767 42.9422 20.7278 43.0133C20.4789 43.0933 20.2034 43.1333 19.9012 43.1333C19.5634 43.1333 19.2123 43.0844 18.8478 42.9867C18.4923 42.88 18.1678 42.7022 17.8745 42.4533C17.5812 42.1956 17.3367 41.8533 17.1412 41.4267C16.9545 40.9911 16.8612 40.4489 16.8612 39.8C16.8612 39.5689 16.8745 39.3067 16.9012 39.0133C16.9367 38.7111 17.0034 38.4044 17.1012 38.0933C17.1989 37.7733 17.3278 37.4622 17.4878 37.16C17.6567 36.8489 17.8789 36.5733 18.1545 36.3333C18.43 36.0933 18.7589 35.9022 19.1412 35.76C19.5323 35.6089 19.9945 35.5333 20.5278 35.5333C20.9634 35.5333 21.3367 35.5867 21.6478 35.6933C21.9678 35.7911 22.23 35.9289 22.4345 36.1067C22.6389 36.2756 22.79 36.4756 22.8878 36.7067C22.9945 36.9378 23.0478 37.1867 23.0478 37.4533C23.0478 37.9333 22.8967 38.2889 22.5945 38.52C22.2923 38.7422 21.8656 38.8533 21.3145 38.8533C21.1812 38.8533 21.0878 38.8444 21.0345 38.8267C20.99 38.8 20.9678 38.7467 20.9678 38.6667C20.9678 38.4533 20.9634 38.2622 20.9545 38.0933C20.9456 37.9244 20.9189 37.7822 20.8745 37.6667C20.8389 37.5511 20.7812 37.4622 20.7012 37.4C20.6212 37.3378 20.5056 37.3067 20.3545 37.3067C20.0789 37.3067 19.8567 37.3956 19.6878 37.5733C19.5278 37.7511 19.4034 37.9689 19.3145 38.2267C19.2345 38.4756 19.1812 38.7333 19.1545 39C19.1367 39.2667 19.1278 39.4889 19.1278 39.6667C19.1278 40.2978 19.2256 40.7378 19.4212 40.9867C19.6256 41.2356 19.9456 41.36 20.3812 41.36ZM25.5315 43C25.2559 43 25.0293 42.9733 24.8515 42.92C24.6826 42.8578 24.5448 42.7733 24.4381 42.6667C24.3404 42.56 24.2693 42.4311 24.2248 42.28C24.1893 42.12 24.1715 41.9378 24.1715 41.7333C24.1715 41.6 24.1759 41.4133 24.1848 41.1733C24.2026 40.9244 24.2293 40.5867 24.2648 40.16C24.3004 39.7244 24.3404 39.1778 24.3848 38.52C24.4381 37.8533 24.5004 37.0311 24.5715 36.0533C24.5804 35.8578 24.6026 35.7422 24.6381 35.7067C24.6648 35.68 24.7359 35.6667 24.8515 35.6667H25.3715C25.647 35.6667 25.8693 35.6933 26.0381 35.7467C26.2159 35.8 26.3537 35.88 26.4515 35.9867C26.5581 36.0933 26.6293 36.2222 26.6648 36.3733C26.7093 36.5244 26.7315 36.6933 26.7315 36.88C26.7315 37.0133 26.7226 37.2133 26.7048 37.48C26.687 37.7467 26.6604 38.1111 26.6248 38.5733C26.5981 39.0267 26.5581 39.5956 26.5048 40.28C26.4515 40.9556 26.3848 41.7733 26.3048 42.7333C26.2959 42.84 26.2737 42.9111 26.2381 42.9467C26.2026 42.9822 26.127 43 26.0115 43H25.5315ZM24.5848 34.0933C24.5848 33.7378 24.7137 33.4578 24.9715 33.2533C25.2293 33.0489 25.5759 32.9467 26.0115 32.9467C26.3937 32.9467 26.6693 33.0267 26.8381 33.1867C27.0159 33.3378 27.1048 33.5422 27.1048 33.8C27.1048 34.1289 26.9804 34.4044 26.7315 34.6267C26.4915 34.84 26.1359 34.9467 25.6648 34.9467C24.9448 34.9467 24.5848 34.6622 24.5848 34.0933ZM31.381 35.5333C32.1365 35.5333 32.6921 35.6844 33.0476 35.9867C33.4032 36.28 33.581 36.6578 33.581 37.12C33.581 37.5111 33.4565 37.8089 33.2076 38.0133C32.9676 38.2178 32.6165 38.32 32.1543 38.32C32.0298 38.32 31.9454 38.3067 31.901 38.28C31.8565 38.2533 31.8343 38.2044 31.8343 38.1333C31.8343 38.0533 31.8254 37.9644 31.8076 37.8667C31.7987 37.76 31.7676 37.6622 31.7143 37.5733C31.6698 37.4756 31.5943 37.3956 31.4876 37.3333C31.3898 37.2711 31.2476 37.24 31.061 37.24C30.8121 37.24 30.6121 37.3022 30.461 37.4267C30.3098 37.5422 30.2343 37.6889 30.2343 37.8667C30.2343 38.0533 30.3098 38.2044 30.461 38.32C30.621 38.4267 30.8165 38.5289 31.0476 38.6267C31.2876 38.7244 31.5454 38.8267 31.821 38.9333C32.0965 39.0311 32.3498 39.1644 32.581 39.3333C32.821 39.5022 33.0165 39.7156 33.1676 39.9733C33.3276 40.2222 33.4076 40.5467 33.4076 40.9467C33.4076 41.5867 33.181 42.1111 32.7276 42.52C32.2743 42.9289 31.5943 43.1333 30.6876 43.1333C30.4387 43.1333 30.1498 43.1111 29.821 43.0667C29.501 43.0311 29.1943 42.9733 28.901 42.8933C28.6076 42.8044 28.3587 42.6889 28.1543 42.5467C27.9587 42.4044 27.861 42.2267 27.861 42.0133C27.861 41.9333 27.8743 41.8356 27.901 41.72C27.9365 41.6044 27.9854 41.4933 28.0476 41.3867C28.1187 41.28 28.1987 41.1911 28.2876 41.12C28.3854 41.04 28.501 41 28.6343 41C28.741 41 28.8387 41.0267 28.9276 41.08C29.0165 41.1333 29.1187 41.1911 29.2343 41.2533C29.3587 41.3067 29.5098 41.36 29.6876 41.4133C29.8654 41.4667 30.101 41.4933 30.3943 41.4933C30.6165 41.4933 30.8121 41.4667 30.981 41.4133C31.1587 41.36 31.2476 41.24 31.2476 41.0533C31.2476 40.8844 31.1765 40.7511 31.0343 40.6533C30.8921 40.5467 30.7098 40.4489 30.4876 40.36C30.2743 40.2711 30.0387 40.1778 29.781 40.08C29.5321 39.9733 29.2965 39.8356 29.0743 39.6667C28.861 39.4978 28.6832 39.2844 28.541 39.0267C28.3987 38.76 28.3276 38.4178 28.3276 38C28.3276 37.5467 28.4165 37.1644 28.5943 36.8533C28.781 36.5333 29.0165 36.2756 29.301 36.08C29.5943 35.8844 29.9232 35.7467 30.2876 35.6667C30.6521 35.5778 31.0165 35.5333 31.381 35.5333ZM37.2101 40.6C37.1835 41.0089 37.1524 41.4 37.1168 41.7733C37.0812 42.1378 37.0546 42.4578 37.0368 42.7333C37.0279 42.84 37.0057 42.9111 36.9701 42.9467C36.9346 42.9822 36.859 43 36.7435 43H36.2635C35.9879 43 35.7612 42.9733 35.5835 42.92C35.4146 42.8578 35.2768 42.7733 35.1701 42.6667C35.0724 42.56 35.0012 42.4311 34.9568 42.28C34.9212 42.12 34.9035 41.9378 34.9035 41.7333C34.9035 41.6 34.9079 41.4133 34.9168 41.1733C34.9346 40.9244 34.9612 40.5867 34.9968 40.16C35.0324 39.7244 35.0724 39.1778 35.1168 38.52C35.1701 37.8533 35.2324 37.0311 35.3035 36.0533C35.3124 35.8578 35.3346 35.7422 35.3701 35.7067C35.3968 35.68 35.4679 35.6667 35.5835 35.6667H36.1035C36.3701 35.6667 36.5879 35.6978 36.7568 35.76C36.9257 35.8222 37.0635 35.9022 37.1701 36C37.2768 36.0978 37.3524 36.2133 37.3968 36.3467C37.4412 36.48 37.4679 36.6178 37.4768 36.76C37.7346 36.28 38.0279 35.9556 38.3568 35.7867C38.6857 35.6178 39.0724 35.5333 39.5168 35.5333C39.7568 35.5333 39.9879 35.5556 40.2101 35.6C40.4324 35.6444 40.6324 35.72 40.8101 35.8267C40.9879 35.9333 41.139 36.0756 41.2635 36.2533C41.3879 36.4222 41.4768 36.64 41.5301 36.9067C41.8057 36.3911 42.1079 36.0356 42.4368 35.84C42.7657 35.6356 43.179 35.5333 43.6768 35.5333C43.9524 35.5333 44.2146 35.5644 44.4635 35.6267C44.7212 35.68 44.9435 35.7778 45.1301 35.92C45.3168 36.0622 45.4635 36.2578 45.5701 36.5067C45.6857 36.7467 45.7435 37.0489 45.7435 37.4133C45.7435 37.6889 45.7301 38.0267 45.7035 38.4267C45.6768 38.8267 45.6457 39.2622 45.6101 39.7333C45.5746 40.1956 45.5346 40.6756 45.4901 41.1733C45.4457 41.6622 45.4101 42.1333 45.3835 42.5867C45.3746 42.6844 45.3657 42.76 45.3568 42.8133C45.3479 42.8667 45.3301 42.9067 45.3035 42.9333C45.2857 42.96 45.2546 42.9778 45.2101 42.9867C45.1657 42.9956 45.1035 43 45.0235 43H44.5968C44.3124 43 44.0812 42.9733 43.9035 42.92C43.7257 42.8667 43.5879 42.7911 43.4901 42.6933C43.3924 42.5956 43.3212 42.4756 43.2768 42.3333C43.2412 42.1822 43.2235 42.0133 43.2235 41.8267C43.2235 41.7111 43.2279 41.5467 43.2368 41.3333C43.2546 41.12 43.2724 40.8889 43.2901 40.64C43.3168 40.3911 43.339 40.1333 43.3568 39.8667C43.3835 39.6 43.4057 39.3556 43.4235 39.1333C43.4501 38.9022 43.4679 38.7022 43.4768 38.5333C43.4946 38.3644 43.5035 38.2533 43.5035 38.2C43.5035 37.9689 43.4546 37.7644 43.3568 37.5867C43.2679 37.4089 43.0901 37.32 42.8235 37.32C42.5924 37.32 42.3924 37.3956 42.2235 37.5467C42.0546 37.6978 41.9124 37.9067 41.7968 38.1733C41.6812 38.44 41.5879 38.7556 41.5168 39.12C41.4457 39.4844 41.3968 39.88 41.3701 40.3067C41.3524 40.5822 41.3301 40.8978 41.3035 41.2533C41.2768 41.6089 41.2457 42.0533 41.2101 42.5867C41.2012 42.6844 41.1924 42.76 41.1835 42.8133C41.1746 42.8667 41.1568 42.9067 41.1301 42.9333C41.1124 42.96 41.0812 42.9778 41.0368 42.9867C40.9924 42.9956 40.9301 43 40.8501 43H40.4235C40.139 43 39.9079 42.9733 39.7301 42.92C39.5524 42.8667 39.4146 42.7911 39.3168 42.6933C39.219 42.5956 39.1479 42.4756 39.1035 42.3333C39.0679 42.1822 39.0501 42.0133 39.0501 41.8267C39.0501 41.6489 39.0635 41.3911 39.0901 41.0533C39.1257 40.7067 39.1568 40.3511 39.1835 39.9867C39.219 39.6133 39.2501 39.2622 39.2768 38.9333C39.3124 38.5956 39.3301 38.3511 39.3301 38.2C39.3301 37.9689 39.2812 37.7644 39.1835 37.5867C39.0946 37.4089 38.9168 37.32 38.6501 37.32C38.4101 37.32 38.2057 37.4089 38.0368 37.5867C37.8679 37.7644 37.7257 38.0044 37.6101 38.3067C37.5035 38.6 37.4146 38.9467 37.3435 39.3467C37.2812 39.7467 37.2368 40.1644 37.2101 40.6Z" fill="#18181A"/>
</svg>
