<svg width="51" height="51" viewBox="0 0 51 51" fill="none" xmlns="http://www.w3.org/2000/svg">
<g id="Frame 8756">
<path id="Vector" d="M50.1194 28.7928V22.0603L-5.72205e-05 22.0603V28.7928L50.1194 28.7928Z" fill="#FF00AA"/>
<path id="Vector_2" d="M5.13445 9.87355L1.56177 16.0791L44.9547 41.0614L48.5274 34.8558L5.13445 9.87355Z" fill="#0F54DB"/>
<path id="Vector_3" d="M40.6687 5.55901L34.4631 1.98633L9.46214 45.4118L15.6677 48.9844L40.6687 5.55901Z" fill="#0F54DB"/>
<path id="Vector_4" d="M28.6402 0.422852H21.4797V50.7556H28.6402V0.422852Z" fill="#FFC530"/>
<g id="Logo">
<path id="Vector_5" d="M22.4436 0.424072H18.7034V8.65264H22.4436V0.424072Z" fill="#FFC530"/>
<path id="Vector_6" d="M28.6396 29.0642H38.4458L29.9492 24.1695L31.2546 21.9051H28.6396V12.0989L23.7448 20.5955L21.4804 19.2914V21.9288L11.6353 21.8814L20.1708 26.7998L18.8654 29.0642H21.4804V38.8704L26.3752 30.3738L28.6396 31.6793V29.0642Z" fill="white"/>
</g>
</g>
</svg>
