<svg xmlns="http://www.w3.org/2000/svg" width="51" height="51" viewBox="0 0 51 51" fill="none">
  <path d="M50.1191 28.792V22.0596L-0.000301361 22.0596V28.792L50.1191 28.792Z" fill="#FF00AA"/>
  <path d="M5.13518 9.87355L1.5625 16.0791L44.9554 41.0614L48.5281 34.8558L5.13518 9.87355Z" fill="#0F54DB"/>
  <path d="M40.6684 5.55803L34.4629 1.98535L9.4619 45.4108L15.6675 48.9835L40.6684 5.55803Z" fill="#0F54DB"/>
  <path d="M28.641 0.421875H21.4805V50.7546H28.641V0.421875Z" fill="#FFC530"/>
  <path d="M22.4434 0.423828H18.7031V8.65239H22.4434V0.423828Z" fill="#FFC530"/>
  <path d="M28.6391 29.064H38.4453L29.9487 24.1692L31.2542 21.9048H28.6391V12.0986L23.7443 20.5952L21.4799 19.2912V21.9285L11.6348 21.8812L20.1703 26.7996L18.8649 29.064H21.4799V38.8702L26.3747 30.3736L28.6391 31.6791V29.064Z" fill="white"/>
</svg>